<?xml version="1.0" encoding="UTF-8"?>
<svg id="Layer_1" xmlns="http://www.w3.org/2000/svg" xmlns:xlink="http://www.w3.org/1999/xlink" version="1.1" viewBox="0 0 184 49.82">
  <!-- Generator: Adobe Illustrator 29.0.1, SVG Export Plug-In . SVG Version: 2.1.0 Build 192)  -->
  <defs>
    <style>
      .st0 {
        fill: url(#linear-gradient);
      }

      .st1 {
        fill: #f2f2f2;
      }
    </style>
    <linearGradient id="linear-gradient" x1="118.35" y1="67.09" x2="184" y2="67.09" gradientTransform="translate(0 92) scale(1 -1)" gradientUnits="userSpaceOnUse">
      <stop offset="0" stop-color="#0b3768"/>
      <stop offset=".16" stop-color="#0a3d68"/>
      <stop offset=".37" stop-color="#094d6a"/>
      <stop offset=".61" stop-color="#06686c"/>
      <stop offset=".87" stop-color="#028d6f"/>
      <stop offset="1" stop-color="#00a371"/>
    </linearGradient>
  </defs>
  <path class="st0" d="M172.81.98l-2.09,7.36c-.09.35-.4.6-.77.6l-29.75-.13c-.52,0-.89-.48-.77-.98l2.03-6.93C141.59.37,142.07,0,142.61,0h29.43c.51,0,.89.48.77.98M162.61,41.87c.13-.5-.25-.98-.77-.98h-29.43c-.54,0-1.02.37-1.15.9l-2.03,6.93c-.13.5.25.98.77.98l29.75.13c.36,0,.68-.25.77-.6l2.09-7.35M159.16,14.64c.17-.13.07-.4-.14-.4h-33.42c-.74,0-1.49.6-1.68,1.34l-5.56,19.44c-.07.28.14.55.43.55l11.56-.03c1.72,0,3.38-.59,4.73-1.66l24.08-19.25ZM143.21,35.18c-.17.13-.07.4.14.4h33.42c.74,0,1.49-.6,1.68-1.34l5.54-19.44c.07-.28-.14-.55-.43-.55l-11.54.03c-1.72,0-3.38.59-4.73,1.66l-24.08,19.25Z"/>
  <path class="st1" d="M96.73,15.56l-25.02,19.98h6.5c1.34,0,2.63-.46,3.67-1.31l20.92-17.05-5.14,17.85c-.07.25.12.51.38.5h12.64c.53,0,1-.37,1.13-.89,2.16-8.58,3.33-11.18,5.26-18.88.19-.75-.37-1.48-1.15-1.48-3.54,0-11.75,0-15.58,0-1.32,0-2.59.45-3.62,1.27"/>
  <path class="st1" d="M41.56,34.23c-1.04.84-2.33,1.31-3.67,1.31h-6.5,0s-5.43,0-5.43,0c-.26,0-.45-.25-.38-.51l5.14-17.85-20.92,17.05c-1.03.84-2.33,1.31-3.67,1.31H.2c-.19,0-.27-.24-.12-.35L24.65,15.56c1.03-.82,2.3-1.27,3.62-1.27,3.83,0,12.04,0,15.58,0,.77,0,1.34.73,1.15,1.48-1.21,4.8-2.44,8.04-3.32,11.56l14.73-11.76c1.03-.82,2.3-1.27,3.62-1.27,3.83,0,12.48,0,16.02,0,.77,0,1.34.73,1.15,1.48-2,7.96-3.07,10.47-5.4,19.77h-14.07c-.26,0-.45-.25-.38-.5l5.14-17.85-20.92,17.05Z"/>
</svg>