<?xml version="1.0" encoding="utf-8"?>
<!-- Generator: Adobe Illustrator 27.5.0, SVG Export Plug-In . SVG Version: 6.00 Build 0)  -->
<svg version="1.1" xmlns="http://www.w3.org/2000/svg" xmlns:xlink="http://www.w3.org/1999/xlink" x="0px" y="0px"
	 viewBox="0 0 750 500" style="enable-background:new 0 0 750 500;" xml:space="preserve">
<g id="Background_Complete">
	<g>
		<g>
			<g>
				<g>
					<g>
						<g>
							<rect x="82.303" y="100.094" style="fill:#FFFFFF;" width="111.156" height="194.477"/>
						</g>
					</g>
				</g>
				<g>
					<g>
						<path style="fill:#F0F0F0;" d="M116.929,296.436c0,0-12.175-87.496-18.557-97.11c0,0,36.418-27.344,37.533-101.449H80.643
							v198.559H116.929z"/>
					</g>
				</g>
				<g>
					<g>
						<path style="fill:#F0F0F0;" d="M158.818,296.049c0,0,12.175-87.496,18.557-97.111c0,0-36.417-27.343-37.533-101.448h55.261
							v198.559H158.818z"/>
					</g>
				</g>
				<g>
					<g>
						<defs>
							<path id="SVGID_1_" d="M82.303,100.094"/>
						</defs>
						<use xlink:href="#SVGID_1_"  style="overflow:visible;fill:#455A64;"/>
						<clipPath id="SVGID_00000121995400397840415510000018167203890385920389_">
							<use xlink:href="#SVGID_1_"  style="overflow:visible;"/>
						</clipPath>
						<g style="clip-path:url(#SVGID_00000121995400397840415510000018167203890385920389_);">
							<g>
								<path style="fill:#455A64;" d="M82.303,100.094L82.303,100.094L82.303,100.094z"/>
							</g>
						</g>
						<g style="clip-path:url(#SVGID_00000121995400397840415510000018167203890385920389_);">
							<g>
								<path style="fill:#455A64;" d="M82.303,100.094L82.303,100.094L82.303,100.094z"/>
							</g>
						</g>
						<g style="clip-path:url(#SVGID_00000121995400397840415510000018167203890385920389_);">
							<g>
								<path style="fill:#455A64;" d="M82.303,100.094L82.303,100.094L82.303,100.094z"/>
							</g>
						</g>
						<g style="clip-path:url(#SVGID_00000121995400397840415510000018167203890385920389_);">
							<g>
								<path style="fill:#455A64;" d="M82.303,100.094L82.303,100.094L82.303,100.094z"/>
							</g>
						</g>
						<g style="clip-path:url(#SVGID_00000121995400397840415510000018167203890385920389_);">
							<g>
								<path style="fill:#455A64;" d="M82.303,100.094L82.303,100.094L82.303,100.094z"/>
							</g>
						</g>
						<g style="clip-path:url(#SVGID_00000121995400397840415510000018167203890385920389_);">
							<g>
								<path style="fill:#455A64;" d="M82.303,100.094L82.303,100.094L82.303,100.094z"/>
							</g>
						</g>
						<g style="clip-path:url(#SVGID_00000121995400397840415510000018167203890385920389_);">
							<g>
								<path style="fill:#455A64;" d="M82.303,100.094L82.303,100.094L82.303,100.094z"/>
							</g>
						</g>
						<g style="clip-path:url(#SVGID_00000121995400397840415510000018167203890385920389_);">
							<g>
								<path style="fill:#455A64;" d="M82.303,100.094L82.303,100.094L82.303,100.094z"/>
							</g>
						</g>
						<g style="clip-path:url(#SVGID_00000121995400397840415510000018167203890385920389_);">
							<g>
								<path style="fill:#455A64;" d="M82.303,100.094L82.303,100.094L82.303,100.094z"/>
							</g>
						</g>
						<g style="clip-path:url(#SVGID_00000121995400397840415510000018167203890385920389_);">
							<g>
								<path style="fill:#455A64;" d="M82.303,100.094L82.303,100.094L82.303,100.094z"/>
							</g>
						</g>
						<g style="clip-path:url(#SVGID_00000121995400397840415510000018167203890385920389_);">
							<g>
								<path style="fill:#455A64;" d="M82.303,100.094L82.303,100.094L82.303,100.094z"/>
							</g>
						</g>
						<g style="clip-path:url(#SVGID_00000121995400397840415510000018167203890385920389_);">
							<g>
								<path style="fill:#455A64;" d="M82.303,100.094L82.303,100.094L82.303,100.094z"/>
							</g>
						</g>
						<g style="clip-path:url(#SVGID_00000121995400397840415510000018167203890385920389_);">
							<g>
								<path style="fill:#455A64;" d="M82.303,100.094L82.303,100.094L82.303,100.094z"/>
							</g>
						</g>
						<g style="clip-path:url(#SVGID_00000121995400397840415510000018167203890385920389_);">
							<g>
								<path style="fill:#455A64;" d="M82.303,100.094L82.303,100.094L82.303,100.094z"/>
							</g>
						</g>
						<g style="clip-path:url(#SVGID_00000121995400397840415510000018167203890385920389_);">
							<g>
								<path style="fill:#455A64;" d="M82.303,100.094L82.303,100.094L82.303,100.094z"/>
							</g>
						</g>
						<g style="clip-path:url(#SVGID_00000121995400397840415510000018167203890385920389_);">
							<g>
								<path style="fill:#455A64;" d="M82.303,100.094L82.303,100.094L82.303,100.094z"/>
							</g>
						</g>
						<g style="clip-path:url(#SVGID_00000121995400397840415510000018167203890385920389_);">
							<g>
								<path style="fill:#455A64;" d="M82.303,100.094L82.303,100.094L82.303,100.094z"/>
							</g>
						</g>
						<g style="clip-path:url(#SVGID_00000121995400397840415510000018167203890385920389_);">
							<g>
								<path style="fill:#455A64;" d="M82.303,100.094L82.303,100.094L82.303,100.094z"/>
							</g>
						</g>
						<g style="clip-path:url(#SVGID_00000121995400397840415510000018167203890385920389_);">
							<g>
								<path style="fill:#455A64;" d="M82.303,100.094L82.303,100.094L82.303,100.094z"/>
							</g>
						</g>
						<g style="clip-path:url(#SVGID_00000121995400397840415510000018167203890385920389_);">
							<g>
								<path style="fill:#455A64;" d="M82.303,100.094L82.303,100.094L82.303,100.094z"/>
							</g>
						</g>
						<g style="clip-path:url(#SVGID_00000121995400397840415510000018167203890385920389_);">
							<g>
								<path style="fill:#455A64;" d="M82.303,100.094L82.303,100.094L82.303,100.094z"/>
							</g>
						</g>
						<g style="clip-path:url(#SVGID_00000121995400397840415510000018167203890385920389_);">
							<g>
								<path style="fill:#455A64;" d="M82.303,100.094L82.303,100.094L82.303,100.094z"/>
							</g>
						</g>
						<g style="clip-path:url(#SVGID_00000121995400397840415510000018167203890385920389_);">
							<g>
								<path style="fill:#455A64;" d="M82.303,100.094L82.303,100.094L82.303,100.094z"/>
							</g>
						</g>
						<g style="clip-path:url(#SVGID_00000121995400397840415510000018167203890385920389_);">
							<g>
								<path style="fill:#455A64;" d="M82.303,100.094L82.303,100.094L82.303,100.094z"/>
							</g>
						</g>
						<g style="clip-path:url(#SVGID_00000121995400397840415510000018167203890385920389_);">
							<g>
								<path style="fill:#455A64;" d="M82.303,100.094L82.303,100.094L82.303,100.094z"/>
							</g>
						</g>
						<g style="clip-path:url(#SVGID_00000121995400397840415510000018167203890385920389_);">
							<g>
								<path style="fill:#455A64;" d="M82.303,100.094L82.303,100.094L82.303,100.094z"/>
							</g>
						</g>
						<g style="clip-path:url(#SVGID_00000121995400397840415510000018167203890385920389_);">
							<g>
								<path style="fill:#455A64;" d="M82.303,100.094L82.303,100.094L82.303,100.094z"/>
							</g>
						</g>
						<g style="clip-path:url(#SVGID_00000121995400397840415510000018167203890385920389_);">
							<g>
								<path style="fill:#455A64;" d="M82.303,100.094L82.303,100.094L82.303,100.094z"/>
							</g>
						</g>
						<g style="clip-path:url(#SVGID_00000121995400397840415510000018167203890385920389_);">
							<g>
								<path style="fill:#455A64;" d="M82.303,100.094L82.303,100.094L82.303,100.094z"/>
							</g>
						</g>
						<g style="clip-path:url(#SVGID_00000121995400397840415510000018167203890385920389_);">
							<g>
								<path style="fill:#455A64;" d="M82.303,100.094L82.303,100.094L82.303,100.094z"/>
							</g>
						</g>
						<g style="clip-path:url(#SVGID_00000121995400397840415510000018167203890385920389_);">
							<g>
								<path style="fill:#455A64;" d="M82.303,100.094L82.303,100.094L82.303,100.094z"/>
							</g>
						</g>
						<g style="clip-path:url(#SVGID_00000121995400397840415510000018167203890385920389_);">
							<g>
								<path style="fill:#455A64;" d="M82.303,100.094L82.303,100.094L82.303,100.094z"/>
							</g>
						</g>
						<g style="clip-path:url(#SVGID_00000121995400397840415510000018167203890385920389_);">
							<g>
								<path style="fill:#455A64;" d="M82.303,100.094L82.303,100.094L82.303,100.094z"/>
							</g>
						</g>
						<g style="clip-path:url(#SVGID_00000121995400397840415510000018167203890385920389_);">
							<g>
								<path style="fill:#455A64;" d="M82.303,100.094L82.303,100.094L82.303,100.094z"/>
							</g>
						</g>
						<g style="clip-path:url(#SVGID_00000121995400397840415510000018167203890385920389_);">
							<g>
								<path style="fill:#455A64;" d="M82.303,100.094L82.303,100.094L82.303,100.094z"/>
							</g>
						</g>
						<g style="clip-path:url(#SVGID_00000121995400397840415510000018167203890385920389_);">
							<g>
								<path style="fill:#455A64;" d="M82.303,100.094L82.303,100.094L82.303,100.094z"/>
							</g>
						</g>
						<g style="clip-path:url(#SVGID_00000121995400397840415510000018167203890385920389_);">
							<g>
								<path style="fill:#455A64;" d="M82.303,100.094L82.303,100.094L82.303,100.094z"/>
							</g>
						</g>
					</g>
				</g>
			</g>
			<g>
				<g>
					<path style="fill:#E0E0E0;" d="M196.386,92.685h-5.152H71.999v3.059v4.35v194.495v3.207v3.206h129.54v-3.206v-3.207V92.685
						H196.386z M104.646,200.915v49.538H82.303v-49.538H104.646z M82.303,197.332v-51.27h22.342v51.27H82.303z M138.653,197.332
						v-51.27H166.6v51.27H138.653z M166.6,200.915v49.538h-27.947v-49.538H166.6z M105.64,197.332v-51.27h29.431v51.27H105.64z
						 M135.071,200.915v49.538H105.64v-49.538H135.071z M105.64,145.176v-45.082h29.431v45.082H105.64z M135.071,251.339v43.249
						H105.64v-43.249H135.071z M138.653,251.339H166.6v43.249h-27.947V251.339z M138.653,145.176v-45.082H166.6v45.082H138.653z
						 M167.594,200.915h23.64v49.538h-23.64V200.915z M167.594,197.332v-51.27h23.64v51.27H167.594z M191.233,145.176h-23.64
						v-45.082h23.64V145.176z M104.646,100.094v45.082H82.303v-45.082H104.646z M82.303,251.339h22.342v43.249H82.303V251.339z
						 M167.594,294.588v-43.249h23.64v43.249H167.594z"/>
				</g>
			</g>
		</g>
		<g>
			<g>
				<g>
					<g>
						<g>
							<rect x="573.212" y="98.641" style="fill:#FFFFFF;" width="111.156" height="194.477"/>
						</g>
					</g>
				</g>
				<g>
					<g>
						<path style="fill:#F0F0F0;" d="M607.837,294.983c0,0-12.175-87.496-18.557-97.11c0,0,36.417-27.344,37.533-101.449h-55.261
							v198.559H607.837z"/>
					</g>
				</g>
				<g>
					<g>
						<path style="fill:#F0F0F0;" d="M649.726,294.596c0,0,12.175-87.496,18.557-97.111c0,0-36.417-27.343-37.533-101.448h55.261
							v198.559H649.726z"/>
					</g>
				</g>
				<g>
					<g>
						<defs>
							<path id="SVGID_00000146463171287391635260000007848194003923047583_" d="M573.212,98.641"/>
						</defs>
						<use xlink:href="#SVGID_00000146463171287391635260000007848194003923047583_"  style="overflow:visible;fill:#455A64;"/>
						<clipPath id="SVGID_00000145049025217987312560000002697033792482851475_">
							<use xlink:href="#SVGID_00000146463171287391635260000007848194003923047583_"  style="overflow:visible;"/>
						</clipPath>
						<g style="clip-path:url(#SVGID_00000145049025217987312560000002697033792482851475_);">
							<g>
								<path style="fill:#455A64;" d="M573.212,98.641L573.212,98.641L573.212,98.641z"/>
							</g>
						</g>
						<g style="clip-path:url(#SVGID_00000145049025217987312560000002697033792482851475_);">
							<g>
								<path style="fill:#455A64;" d="M573.212,98.641L573.212,98.641L573.212,98.641z"/>
							</g>
						</g>
						<g style="clip-path:url(#SVGID_00000145049025217987312560000002697033792482851475_);">
							<g>
								<path style="fill:#455A64;" d="M573.212,98.641L573.212,98.641L573.212,98.641z"/>
							</g>
						</g>
						<g style="clip-path:url(#SVGID_00000145049025217987312560000002697033792482851475_);">
							<g>
								<path style="fill:#455A64;" d="M573.212,98.641L573.212,98.641L573.212,98.641z"/>
							</g>
						</g>
						<g style="clip-path:url(#SVGID_00000145049025217987312560000002697033792482851475_);">
							<g>
								<path style="fill:#455A64;" d="M573.212,98.641L573.212,98.641L573.212,98.641z"/>
							</g>
						</g>
						<g style="clip-path:url(#SVGID_00000145049025217987312560000002697033792482851475_);">
							<g>
								<path style="fill:#455A64;" d="M573.212,98.641L573.212,98.641L573.212,98.641z"/>
							</g>
						</g>
						<g style="clip-path:url(#SVGID_00000145049025217987312560000002697033792482851475_);">
							<g>
								<path style="fill:#455A64;" d="M573.212,98.641L573.212,98.641L573.212,98.641z"/>
							</g>
						</g>
						<g style="clip-path:url(#SVGID_00000145049025217987312560000002697033792482851475_);">
							<g>
								<path style="fill:#455A64;" d="M573.212,98.641L573.212,98.641L573.212,98.641z"/>
							</g>
						</g>
						<g style="clip-path:url(#SVGID_00000145049025217987312560000002697033792482851475_);">
							<g>
								<path style="fill:#455A64;" d="M573.212,98.641L573.212,98.641L573.212,98.641z"/>
							</g>
						</g>
						<g style="clip-path:url(#SVGID_00000145049025217987312560000002697033792482851475_);">
							<g>
								<path style="fill:#455A64;" d="M573.212,98.641L573.212,98.641L573.212,98.641z"/>
							</g>
						</g>
						<g style="clip-path:url(#SVGID_00000145049025217987312560000002697033792482851475_);">
							<g>
								<path style="fill:#455A64;" d="M573.212,98.641L573.212,98.641L573.212,98.641z"/>
							</g>
						</g>
						<g style="clip-path:url(#SVGID_00000145049025217987312560000002697033792482851475_);">
							<g>
								<path style="fill:#455A64;" d="M573.212,98.641L573.212,98.641L573.212,98.641z"/>
							</g>
						</g>
						<g style="clip-path:url(#SVGID_00000145049025217987312560000002697033792482851475_);">
							<g>
								<path style="fill:#455A64;" d="M573.212,98.641L573.212,98.641L573.212,98.641z"/>
							</g>
						</g>
						<g style="clip-path:url(#SVGID_00000145049025217987312560000002697033792482851475_);">
							<g>
								<path style="fill:#455A64;" d="M573.212,98.641L573.212,98.641L573.212,98.641z"/>
							</g>
						</g>
						<g style="clip-path:url(#SVGID_00000145049025217987312560000002697033792482851475_);">
							<g>
								<path style="fill:#455A64;" d="M573.212,98.641L573.212,98.641L573.212,98.641z"/>
							</g>
						</g>
						<g style="clip-path:url(#SVGID_00000145049025217987312560000002697033792482851475_);">
							<g>
								<path style="fill:#455A64;" d="M573.212,98.641L573.212,98.641L573.212,98.641z"/>
							</g>
						</g>
						<g style="clip-path:url(#SVGID_00000145049025217987312560000002697033792482851475_);">
							<g>
								<path style="fill:#455A64;" d="M573.212,98.641L573.212,98.641L573.212,98.641z"/>
							</g>
						</g>
						<g style="clip-path:url(#SVGID_00000145049025217987312560000002697033792482851475_);">
							<g>
								<path style="fill:#455A64;" d="M573.212,98.641L573.212,98.641L573.212,98.641z"/>
							</g>
						</g>
						<g style="clip-path:url(#SVGID_00000145049025217987312560000002697033792482851475_);">
							<g>
								<path style="fill:#455A64;" d="M573.212,98.641L573.212,98.641L573.212,98.641z"/>
							</g>
						</g>
						<g style="clip-path:url(#SVGID_00000145049025217987312560000002697033792482851475_);">
							<g>
								<path style="fill:#455A64;" d="M573.212,98.641L573.212,98.641L573.212,98.641z"/>
							</g>
						</g>
						<g style="clip-path:url(#SVGID_00000145049025217987312560000002697033792482851475_);">
							<g>
								<path style="fill:#455A64;" d="M573.212,98.641L573.212,98.641L573.212,98.641z"/>
							</g>
						</g>
						<g style="clip-path:url(#SVGID_00000145049025217987312560000002697033792482851475_);">
							<g>
								<path style="fill:#455A64;" d="M573.212,98.641L573.212,98.641L573.212,98.641z"/>
							</g>
						</g>
						<g style="clip-path:url(#SVGID_00000145049025217987312560000002697033792482851475_);">
							<g>
								<path style="fill:#455A64;" d="M573.212,98.641L573.212,98.641L573.212,98.641z"/>
							</g>
						</g>
						<g style="clip-path:url(#SVGID_00000145049025217987312560000002697033792482851475_);">
							<g>
								<path style="fill:#455A64;" d="M573.212,98.641L573.212,98.641L573.212,98.641z"/>
							</g>
						</g>
						<g style="clip-path:url(#SVGID_00000145049025217987312560000002697033792482851475_);">
							<g>
								<path style="fill:#455A64;" d="M573.212,98.641L573.212,98.641L573.212,98.641z"/>
							</g>
						</g>
						<g style="clip-path:url(#SVGID_00000145049025217987312560000002697033792482851475_);">
							<g>
								<path style="fill:#455A64;" d="M573.212,98.641L573.212,98.641L573.212,98.641z"/>
							</g>
						</g>
						<g style="clip-path:url(#SVGID_00000145049025217987312560000002697033792482851475_);">
							<g>
								<path style="fill:#455A64;" d="M573.212,98.641L573.212,98.641L573.212,98.641z"/>
							</g>
						</g>
						<g style="clip-path:url(#SVGID_00000145049025217987312560000002697033792482851475_);">
							<g>
								<path style="fill:#455A64;" d="M573.212,98.641L573.212,98.641L573.212,98.641z"/>
							</g>
						</g>
						<g style="clip-path:url(#SVGID_00000145049025217987312560000002697033792482851475_);">
							<g>
								<path style="fill:#455A64;" d="M573.212,98.641L573.212,98.641L573.212,98.641z"/>
							</g>
						</g>
						<g style="clip-path:url(#SVGID_00000145049025217987312560000002697033792482851475_);">
							<g>
								<path style="fill:#455A64;" d="M573.212,98.641L573.212,98.641L573.212,98.641z"/>
							</g>
						</g>
						<g style="clip-path:url(#SVGID_00000145049025217987312560000002697033792482851475_);">
							<g>
								<path style="fill:#455A64;" d="M573.212,98.641L573.212,98.641L573.212,98.641z"/>
							</g>
						</g>
						<g style="clip-path:url(#SVGID_00000145049025217987312560000002697033792482851475_);">
							<g>
								<path style="fill:#455A64;" d="M573.212,98.641L573.212,98.641L573.212,98.641z"/>
							</g>
						</g>
						<g style="clip-path:url(#SVGID_00000145049025217987312560000002697033792482851475_);">
							<g>
								<path style="fill:#455A64;" d="M573.212,98.641L573.212,98.641L573.212,98.641z"/>
							</g>
						</g>
						<g style="clip-path:url(#SVGID_00000145049025217987312560000002697033792482851475_);">
							<g>
								<path style="fill:#455A64;" d="M573.212,98.641L573.212,98.641L573.212,98.641z"/>
							</g>
						</g>
						<g style="clip-path:url(#SVGID_00000145049025217987312560000002697033792482851475_);">
							<g>
								<path style="fill:#455A64;" d="M573.212,98.641L573.212,98.641L573.212,98.641z"/>
							</g>
						</g>
						<g style="clip-path:url(#SVGID_00000145049025217987312560000002697033792482851475_);">
							<g>
								<path style="fill:#455A64;" d="M573.212,98.641L573.212,98.641L573.212,98.641z"/>
							</g>
						</g>
						<g style="clip-path:url(#SVGID_00000145049025217987312560000002697033792482851475_);">
							<g>
								<path style="fill:#455A64;" d="M573.212,98.641L573.212,98.641L573.212,98.641z"/>
							</g>
						</g>
					</g>
				</g>
			</g>
			<g>
				<g>
					<path style="fill:#E0E0E0;" d="M687.294,91.233h-5.152H562.907v3.059v4.35v194.495v3.207v3.206h129.539v-3.206v-3.207V91.233
						H687.294z M595.554,199.462V249h-22.342v-49.538H595.554z M573.212,195.88v-51.27h22.342v51.27H573.212z M629.561,195.88
						v-51.27h27.947v51.27H629.561z M657.508,199.462V249h-27.947v-49.538H657.508z M596.549,195.88v-51.27h29.431v51.27H596.549z
						 M625.98,199.462V249h-29.431v-49.538H625.98z M596.549,143.723V98.641h29.431v45.082H596.549z M625.98,249.887v43.249h-29.431
						v-43.249H625.98z M629.561,249.887h27.947v43.249h-27.947V249.887z M629.561,143.723V98.641h27.947v45.082H629.561z
						 M658.502,199.462h23.64V249h-23.64V199.462z M658.502,195.88v-51.27h23.64v51.27H658.502z M682.142,143.723h-23.64V98.641
						h23.64V143.723z M595.554,98.641v45.082h-22.342V98.641H595.554z M573.212,249.887h22.342v43.249h-22.342V249.887z
						 M658.502,293.135v-43.249h23.64v43.249H658.502z"/>
				</g>
			</g>
		</g>
	</g>
	<g>
		<g>
			<polygon style="fill:#E0E0E0;" points="406.919,92.77 415.835,115.579 410.293,115.553 405.85,101.536 			"/>
			<g>
				<g>
					<polygon style="fill:#F0F0F0;" points="376.473,71.695 373.408,115.398 405.049,116.059 408.61,71.695 					"/>
					<polygon style="fill:#FFFFFF;" points="379.639,75.214 377.087,111.591 400.609,112.693 403.895,74.999 					"/>
				</g>
				<polygon style="fill:#E0E0E0;" points="384.8,80.358 382.892,105.928 395.867,105.928 398.157,80.358 				"/>
			</g>
		</g>
		<g>
			<polygon style="fill:#F0F0F0;" points="345.267,115.672 345.267,93.791 361.29,93.791 361.29,115.655 			"/>
			<path style="fill:#E0E0E0;" d="M354.377,93.791c0,0,3.865-28.25,2.782-28.211c-1.083,0.039-3.802,25.757-3.802,25.757
				s-0.114-21.299-1.133-21.186c-1.02,0.114,0,22.546,0,22.546s-1.742-18.205-2.684-17.769c-0.942,0.435,0.404,18.864,0.404,18.864
				H354.377"/>
			<path style="fill:#F0F0F0;" d="M351.464,93.791c0,0,1.339-14.081,1.781-13.118c0.442,0.963,0,8.382,0,8.382
				s3.71-18.195,4.682-17.577c0.972,0.618-3.798,19.75-3.798,19.75s3.621-10.922,4.416-9.771c0.794,1.151-3.004,11.397-3.004,11.397
				s3.887-7.243,4.152-6.271c0.265,0.972-1.855,7.209-1.855,7.209H351.464z"/>
			<path style="fill:#F0F0F0;" d="M349.181,93.877c0,0-8.568-16.819-7.508-16.298c1.06,0.521,6.536,11.385,6.536,11.385
				s-3.624-10.487-2.828-10.808c0.796-0.321,4.771,11.78,4.771,11.78l0.892,3.941H349.181z"/>
			<polygon style="fill:#E0E0E0;" points="352.684,93.828 353.089,115.709 345.47,115.709 345.323,93.755 			"/>
			<polygon style="fill:#EBEBEB;" points="345.285,95.723 352.664,95.846 361.29,95.723 361.561,93.632 345.075,93.632 			"/>
		</g>
		<rect x="329.047" y="115.063" style="fill:#EBEBEB;" width="112.183" height="5.778"/>
	</g>
</g>
<g id="Background_Simple" style="display:none;">
	<path style="display:inline;fill:#F0F0F0;" d="M100.79,94.243c103.22-87.725,329.404,110.467,412.244,94.371
		c82.84-16.096,202.357,26.385,179.84,123.447c-25,107.762-314.707,108.945-441.293,71.85
		C124.995,346.817,3.432,176.986,100.79,94.243z"/>
</g>
<g id="Plants">
	<g>
		<g>
			<g>
				<g>
					<path style="fill:#E8505B;" d="M182.285,370.592c16.02-11.831,19.065-32.919,17.814-51.743
						c-0.209-3.144,0.035-6.471-1.57-9.182c-1.605-2.711-5.202-4.481-8.014-3.062c-2.331,1.177-3.276,3.928-4.529,6.219
						c-1.666,3.047-4.211,5.608-7.25,7.29c-1.996,1.107-4.487,1.824-6.525,0.799c-2.798-1.408-3.242-5.145-3.322-8.276
						c-0.15-5.833-0.3-11.666-0.45-17.498c-0.081-3.129-0.173-6.325-1.254-9.261c-1.081-2.938-3.348-5.625-6.391-6.36
						c-3.043-0.736-6.718,1.102-7.256,4.186c-0.224,1.282,0.081,2.597,0.035,3.899c-0.047,1.301-0.614,2.759-1.852,3.161
						c-1.253,0.408-2.55-0.438-3.527-1.322c-3.374-3.053-5.724-7.05-7.929-11.03c-2.205-3.978-4.351-8.056-7.431-11.405
						c-3.079-3.349-7.274-5.945-11.822-6.051c-4.548-0.105-9.297,2.818-10.303,7.255c-1.01,4.448,1.742,8.839,4.694,12.317
						c4.379,5.159,9.508,9.682,15.177,13.38c1.022,0.667,2.13,1.388,2.549,2.535c0.755,2.063-1.182,4.201-3.246,4.954
						c-2.339,0.854-4.91,0.695-7.373,1.064c-2.463,0.368-5.107,1.531-5.968,3.868c-1.195,3.241,1.622,6.504,4.359,8.612
						c5.48,4.223,11.689,7.496,18.268,9.636c2.359,0.766,4.837,1.425,6.769,2.981c1.932,1.556,3.157,4.331,2.092,6.571
						c-1.066,2.244-3.96,3.044-6.417,2.676c-2.457-0.367-4.686-1.604-7.041-2.395c-4.409-1.482-10.026-1.001-12.697,2.807
						c-1.756,2.502-1.808,5.909-0.788,8.791c1.021,2.88,2.982,5.327,5.054,7.575c7.241,7.857,16.389,14.074,26.606,17.203
						C162.964,373.915,172.358,374.544,182.285,370.592"/>
				</g>
			</g>
			<g>
				<g>
					<g>
						<path style="fill:#263238;" d="M115.152,263.77c-0.006,0.008,0.102,0.105,0.318,0.287c0.241,0.199,0.561,0.462,0.968,0.798
							c0.854,0.697,2.112,1.726,3.695,3.094c3.171,2.726,7.636,6.838,12.522,12.503c2.452,2.823,5.008,6.026,7.69,9.514
							c2.675,3.494,5.51,7.246,8.34,11.3c2.831,4.052,5.673,8.401,8.25,13.116c1.299,2.351,2.468,4.819,3.662,7.336
							c1.187,2.514,2.392,5.066,3.612,7.648c4.841,10.346,9.128,20.36,12.261,29.741c3.151,9.373,5.127,18.092,6.106,25.501
							c0.998,7.413,1.037,13.487,0.863,17.662c-0.099,2.088-0.209,3.71-0.323,4.805c-0.045,0.526-0.08,0.94-0.107,1.25
							c-0.021,0.281-0.027,0.426-0.017,0.427c0.01,0.001,0.036-0.141,0.076-0.421c0.041-0.309,0.095-0.72,0.164-1.244
							c0.152-1.093,0.299-2.715,0.433-4.807c0.244-4.182,0.268-10.28-0.681-17.727c-0.931-7.444-2.872-16.206-6.005-25.618
							c-3.116-9.419-7.398-19.463-12.243-29.817c-1.221-2.584-2.427-5.136-3.616-7.652c-1.193-2.509-2.375-4.997-3.684-7.36
							c-2.598-4.739-5.461-9.097-8.311-13.151c-2.85-4.055-5.703-7.802-8.397-11.287c-2.702-3.479-5.283-6.675-7.762-9.49
							c-4.941-5.648-9.465-9.729-12.686-12.405c-1.609-1.344-2.891-2.346-3.769-3.014c-0.423-0.316-0.755-0.566-1.004-0.753
							C115.278,263.844,115.158,263.762,115.152,263.77z"/>
					</g>
				</g>
			</g>
			<g>
				<g>
					<g>
						<path style="fill:#263238;" d="M157.267,314.092c0.04,0.005,0.133-0.474,0.268-1.344c0.139-0.871,0.297-2.135,0.47-3.701
							c0.349-3.131,0.68-7.468,1.028-12.253c0.347-4.787,0.74-9.108,1.137-12.224c0.193-1.558,0.363-2.818,0.491-3.688
							c0.123-0.87,0.173-1.356,0.133-1.363c-0.04-0.009-0.165,0.463-0.356,1.324c-0.197,0.859-0.43,2.113-0.676,3.67
							c-0.502,3.113-0.963,7.447-1.31,12.238c-0.33,4.722-0.629,8.994-0.857,12.258c-0.113,1.473-0.209,2.716-0.285,3.712
							C157.244,313.599,157.227,314.087,157.267,314.092z"/>
					</g>
				</g>
			</g>
			<g>
				<g>
					<g>
						<path style="fill:#263238;" d="M116.269,307.905c0,0.04,0.582,0.087,1.631,0.139c1.049,0.057,2.568,0.133,4.439,0.286
							c3.746,0.275,8.906,0.835,14.571,1.698c5.666,0.875,10.76,1.88,14.422,2.713c1.835,0.404,3.311,0.77,4.332,1.017
							c1.021,0.251,1.591,0.373,1.602,0.334c0.011-0.039-0.537-0.233-1.542-0.552c-1.005-0.314-2.469-0.742-4.296-1.199
							c-3.649-0.938-8.747-2.012-14.429-2.889c-5.683-0.866-10.87-1.363-14.634-1.534c-1.881-0.1-3.407-0.113-4.46-0.101
							C116.851,307.835,116.27,307.864,116.269,307.905z"/>
					</g>
				</g>
			</g>
			<g>
				<g>
					<g>
						<path style="fill:#263238;" d="M176.453,358.215c0.019,0.008,0.109-0.165,0.264-0.5c0.176-0.399,0.391-0.888,0.651-1.478
							c0.559-1.287,1.319-3.167,2.226-5.505c1.819-4.673,4.126-11.204,6.573-18.447c2.448-7.245,4.69-13.789,6.408-18.492
							c0.842-2.286,1.536-4.168,2.051-5.565c0.22-0.606,0.4-1.107,0.549-1.517c0.12-0.35,0.174-0.537,0.155-0.545
							c-0.019-0.008-0.109,0.164-0.263,0.5c-0.176,0.399-0.391,0.887-0.651,1.478c-0.559,1.287-1.319,3.168-2.226,5.505
							c-1.818,4.673-4.126,11.205-6.574,18.45c-2.447,7.242-4.689,13.785-6.407,18.489c-0.843,2.287-1.536,4.167-2.051,5.565
							c-0.219,0.606-0.4,1.107-0.549,1.517C176.488,358.02,176.435,358.207,176.453,358.215z"/>
					</g>
				</g>
			</g>
			<g>
				<g>
					<g>
						<path style="fill:#263238;" d="M121.741,342.754c-0.005,0.02,0.183,0.088,0.545,0.202c0.427,0.125,0.952,0.281,1.59,0.469
							c1.467,0.417,3.449,0.981,5.859,1.665c4.946,1.407,11.757,3.429,19.279,5.674c7.524,2.245,14.36,4.205,19.339,5.513
							c2.489,0.654,4.508,1.163,5.911,1.487c0.648,0.145,1.183,0.266,1.617,0.362c0.371,0.077,0.569,0.109,0.573,0.089
							c0.005-0.02-0.182-0.089-0.544-0.202c-0.427-0.126-0.952-0.281-1.589-0.469c-1.467-0.417-3.449-0.981-5.859-1.665
							c-4.947-1.408-11.758-3.429-19.282-5.675c-7.521-2.244-14.357-4.204-19.335-5.512c-2.489-0.655-4.509-1.163-5.911-1.487
							c-0.648-0.146-1.182-0.266-1.617-0.363C121.943,342.765,121.746,342.734,121.741,342.754z"/>
					</g>
				</g>
			</g>
		</g>
	</g>
	<g>
		<path style="fill:#E8505B;" d="M617.332,362.253c-2.4,0.105-4.642,1.428-6.21,3.248c-1.568,1.82-2.519,4.1-3.12,6.426
			c-1.163,4.5-0.379,9.792,0.94,14.249c4.846-1.779,7.798-6.989,9.13-9.725C620.178,372.125,621.356,363.028,617.332,362.253"/>
		<path style="fill:#E8505B;" d="M601.995,391.677c1.515-2.215,1.524-5.277,0.292-7.661c-1.233-2.384-3.577-4.09-6.149-4.856
			c-1.189-0.354-2.567-0.495-3.593,0.203c-0.959,0.652-1.365,1.92-1.231,3.072c0.134,1.152,0.728,2.202,1.425,3.13
			C595.13,388.745,598.027,391.383,601.995,391.677"/>
		<g>
			<path style="fill:#263238;" d="M601.954,407.113c0.035,0.005,0.12-0.332,0.239-0.947c0.12-0.615,0.276-1.508,0.435-2.618
				c0.305-2.212,0.67-5.337,0.227-8.773c-0.446-3.441-1.839-6.375-3.29-8.117c-0.717-0.88-1.403-1.499-1.913-1.871
				c-0.509-0.375-0.818-0.538-0.835-0.514c-0.067,0.082,1.133,0.833,2.457,2.61c1.336,1.751,2.629,4.609,3.065,7.961
				c0.433,3.355,0.134,6.445-0.077,8.66C602.033,405.725,601.877,407.103,601.954,407.113z"/>
		</g>
		<g>
			<path style="fill:#263238;" d="M615.823,369.1c-0.033-0.014-0.287,0.5-0.717,1.442c-0.432,0.942-1.033,2.314-1.758,4.018
				c-1.451,3.407-3.378,8.147-5.376,13.433c-1.998,5.288-3.688,10.118-4.854,13.633c-0.583,1.757-1.04,3.184-1.339,4.176
				c-0.3,0.991-0.45,1.544-0.416,1.556c0.034,0.011,0.249-0.52,0.608-1.491c0.384-1.059,0.888-2.446,1.495-4.12
				c1.254-3.482,2.997-8.287,4.993-13.569c1.997-5.28,3.867-10.036,5.23-13.477c0.652-1.657,1.192-3.031,1.604-4.079
				C615.666,369.655,615.857,369.114,615.823,369.1z"/>
		</g>
		<path style="fill:#E8505B;" d="M607.04,396.094c3.148-4.701,8.685-7.707,14.343-7.785c1.44-0.02,3.152,0.323,3.716,1.648
			c0.565,1.328-0.382,2.805-1.421,3.806c-4.325,4.165-11.293,5.297-16.713,2.714"/>
		<g>
			<path style="fill:#263238;" d="M618.905,391.843c-0.003-0.036-0.334-0.029-0.935,0.014c-0.302,0.016-0.669,0.05-1.089,0.134
				c-0.421,0.078-0.908,0.14-1.425,0.296c-1.051,0.25-2.268,0.689-3.563,1.298c-1.281,0.636-2.631,1.459-3.921,2.494
				c-1.277,1.052-2.359,2.205-3.244,3.329c-0.861,1.143-1.54,2.244-1.999,3.222c-0.258,0.475-0.418,0.939-0.581,1.335
				c-0.168,0.394-0.277,0.747-0.354,1.038c-0.165,0.58-0.239,0.903-0.205,0.913c0.097,0.032,0.465-1.249,1.467-3.117
				c0.492-0.938,1.188-1.994,2.049-3.094c0.885-1.081,1.949-2.195,3.195-3.222c1.259-1.009,2.567-1.823,3.806-2.468
				c1.253-0.618,2.428-1.083,3.448-1.373C617.587,392.043,618.916,391.945,618.905,391.843z"/>
		</g>
	</g>
</g>
<g id="Window">
	<g>
		<g>
			<g>
				<g>
					<path style="fill:#F0F0F0;" d="M598.325,381.645H183.289c-1.808,0-3.273-1.465-3.273-3.273V137.817
						c0-1.808,1.465-3.273,3.273-3.273h415.036c1.807,0,3.272,1.465,3.272,3.273v240.556
						C601.598,380.18,600.133,381.645,598.325,381.645z"/>
				</g>
			</g>
			<g>
				<g>
					<g>
						<path style="fill:#E0E0E0;" d="M212.925,143.735c0,1.77-1.435,3.205-3.205,3.205c-1.77,0-3.204-1.435-3.204-3.205
							c0-1.77,1.434-3.204,3.204-3.204C211.49,140.531,212.925,141.965,212.925,143.735z"/>
					</g>
				</g>
				<g>
					<g>
						<path style="fill:#E0E0E0;" d="M202.826,143.735c0,1.77-1.434,3.205-3.205,3.205c-1.77,0-3.205-1.435-3.205-3.205
							c0-1.77,1.435-3.204,3.205-3.204C201.392,140.531,202.826,141.965,202.826,143.735z"/>
					</g>
				</g>
				<g>
					<g>
						<path style="fill:#E0E0E0;" d="M193.123,143.735c0,1.77-1.434,3.205-3.205,3.205c-1.769,0-3.204-1.435-3.204-3.205
							c0-1.77,1.435-3.204,3.204-3.204C191.689,140.531,193.123,141.965,193.123,143.735z"/>
					</g>
				</g>
			</g>
		</g>
		<g>
			<g>
				<g>
					<rect x="180.017" y="152.649" style="fill:#FAFAFA;" width="421.581" height="256.665"/>
				</g>
			</g>
			<rect x="180.017" y="152.649" style="fill:#E0E0E0;" width="421.581" height="59.531"/>
			<g>
				<g>
					<g>
						<g>
							<g>
								<g>
									<path style="fill:#455A64;" d="M402.525,326.63c0,0.18-14.699,0.327-32.827,0.327c-18.135,0-32.831-0.146-32.831-0.327
										c0-0.181,14.697-0.328,32.831-0.328C387.826,326.302,402.525,326.448,402.525,326.63z"/>
								</g>
							</g>
						</g>
						<g>
							<g>
								<g>
									<path style="fill:#455A64;" d="M402.525,335.415c0,0.181-14.699,0.328-32.827,0.328c-18.135,0-32.831-0.146-32.831-0.328
										c0-0.18,14.697-0.327,32.831-0.327C387.826,335.089,402.525,335.235,402.525,335.415z"/>
								</g>
							</g>
						</g>
						<g>
							<g>
								<g>
									<path style="fill:#455A64;" d="M376.218,344.202c0,0.18-8.81,0.327-19.675,0.327c-10.868,0-19.677-0.146-19.677-0.327
										s8.808-0.327,19.677-0.327C367.408,343.875,376.218,344.022,376.218,344.202z"/>
								</g>
							</g>
						</g>
						<g>
							<g>
								<rect x="336.866" y="236.846" style="fill:#E8505B;" width="31.215" height="3.959"/>
							</g>
						</g>
						<g>
							<g>
								<g>
									<rect x="336.866" y="249.594" style="fill:#FAFAFA;" width="68.603" height="66.372"/>
								</g>
							</g>
							<g>
								<g>
									<polygon style="fill:#E8505B;" points="342.186,310.286 361.163,276.131 376.686,297.962 386.118,286.369 400.15,310.286 
																			"/>
								</g>
							</g>
							<g>
								<g>
									<path style="fill:#E8505B;" d="M383.298,269.489c0,2.727-2.21,4.937-4.937,4.937c-2.727,0-4.937-2.21-4.937-4.937
										c0-2.727,2.21-4.937,4.937-4.937C381.088,264.552,383.298,266.762,383.298,269.489z"/>
								</g>
							</g>
							<g>
								<g>
									<g>
										<path style="fill:#E0E0E0;" d="M400.15,310.471c-0.005-0.005-0.01-0.097-0.016-0.272
											c-0.003-0.199-0.009-0.452-0.015-0.774c-0.008-0.706-0.019-1.703-0.033-2.987c-0.017-2.632-0.042-6.439-0.073-11.272
											c-0.035-9.694-0.085-23.5-0.144-40.075l0.281,0.28c-16.788,0.014-36.688,0.029-57.959,0.047
											c-0.078,0.069,0.613-0.615,0.321-0.318v0.015v0.03v0.06v0.118v0.237v0.473v0.945v1.885c0,1.254-0.001,2.503-0.001,3.747
											c-0.001,2.487-0.001,4.951-0.002,7.39c-0.003,4.878-0.005,9.653-0.008,14.302c-0.011,9.295-0.022,18.084-0.031,26.168
											l-0.284-0.285c17.3,0.06,31.751,0.11,41.91,0.145c5.066,0.032,9.06,0.057,11.821,0.074
											c1.349,0.014,2.396,0.026,3.136,0.034c0.339,0.007,0.605,0.012,0.812,0.016
											C400.049,310.46,400.145,310.465,400.15,310.471c0.006,0.005-0.08,0.011-0.253,0.016c-0.2,0.004-0.455,0.01-0.782,0.016
											c-0.727,0.007-1.755,0.019-3.081,0.033c-2.746,0.018-6.719,0.043-11.757,0.075c-10.203,0.035-24.717,0.085-42.092,0.145
											l-0.285,0.001v-0.286c-0.01-8.084-0.02-16.873-0.031-26.168c-0.003-4.649-0.006-9.424-0.008-14.302
											c-0.001-2.439-0.001-4.903-0.002-7.39c-0.001-1.244-0.001-2.493-0.001-3.747v-1.885l-0.001-0.945v-0.473v-0.237v-0.118
											v-0.06v-0.03V255.1c-0.291,0.287,0.397-0.409,0.333-0.336c21.271,0.017,41.171,0.033,57.959,0.046l0.282,0.001
											l-0.001,0.281c-0.06,16.649-0.109,30.515-0.143,40.253c-0.031,4.806-0.056,8.592-0.073,11.208
											c-0.014,1.261-0.025,2.24-0.032,2.933c-0.007,0.31-0.012,0.553-0.016,0.744
											C400.161,310.395,400.156,310.476,400.15,310.471z"/>
									</g>
								</g>
							</g>
						</g>
					</g>
					<g>
						<g>
							<g>
								<g>
									<path style="fill:#455A64;" d="M486.157,326.63c0,0.18-14.699,0.327-32.828,0.327c-18.134,0-32.83-0.146-32.83-0.327
										c0-0.181,14.696-0.328,32.83-0.328C471.458,326.302,486.157,326.448,486.157,326.63z"/>
								</g>
							</g>
						</g>
						<g>
							<g>
								<g>
									<path style="fill:#455A64;" d="M486.157,335.415c0,0.181-14.699,0.328-32.828,0.328c-18.134,0-32.83-0.146-32.83-0.328
										c0-0.18,14.696-0.327,32.83-0.327C471.458,335.089,486.157,335.235,486.157,335.415z"/>
								</g>
							</g>
						</g>
						<g>
							<g>
								<g>
									<path style="fill:#455A64;" d="M459.849,344.202c0,0.18-8.809,0.327-19.674,0.327c-10.868,0-19.676-0.146-19.676-0.327
										s8.808-0.327,19.676-0.327C451.04,343.875,459.849,344.022,459.849,344.202z"/>
								</g>
							</g>
						</g>
						<g>
							<g>
								<rect x="420.499" y="236.846" style="fill:#E8505B;" width="31.215" height="3.959"/>
							</g>
						</g>
						<g>
							<g>
								<g>
									<rect x="420.499" y="249.594" style="fill:#FAFAFA;" width="68.602" height="66.372"/>
								</g>
							</g>
							<g>
								<g>
									<polygon style="fill:#E8505B;" points="425.817,310.286 444.795,276.131 460.317,297.962 469.749,286.369 483.782,310.286 
																			"/>
								</g>
							</g>
							<g>
								<g>
									<path style="fill:#E8505B;" d="M466.93,269.489c0,2.727-2.21,4.937-4.936,4.937c-2.727,0-4.938-2.21-4.938-4.937
										c0-2.727,2.211-4.937,4.938-4.937C464.72,264.552,466.93,266.762,466.93,269.489z"/>
								</g>
							</g>
							<g>
								<g>
									<g>
										<path style="fill:#E0E0E0;" d="M483.782,310.471c-0.004-0.005-0.01-0.097-0.016-0.272
											c-0.003-0.199-0.009-0.452-0.015-0.774c-0.008-0.706-0.019-1.703-0.033-2.987c-0.017-2.632-0.042-6.439-0.074-11.272
											c-0.034-9.694-0.084-23.5-0.143-40.075l0.28,0.28c-16.788,0.014-36.688,0.029-57.959,0.047
											c-0.078,0.069,0.613-0.615,0.321-0.318v0.015v0.03v0.06v0.118v0.237v0.473v0.945l0,1.885c0,1.254,0,2.503-0.001,3.747
											c0,2.487-0.001,4.951-0.002,7.39c-0.003,4.878-0.006,9.653-0.008,14.302c-0.011,9.295-0.022,18.084-0.031,26.168
											l-0.284-0.285c17.299,0.06,31.75,0.11,41.91,0.145c5.066,0.032,9.06,0.057,11.821,0.074
											c1.349,0.014,2.396,0.026,3.136,0.034c0.339,0.007,0.604,0.012,0.812,0.016
											C483.681,310.46,483.776,310.465,483.782,310.471c0.006,0.005-0.079,0.011-0.253,0.016
											c-0.201,0.004-0.456,0.01-0.782,0.016c-0.727,0.007-1.755,0.019-3.08,0.033c-2.746,0.018-6.719,0.043-11.756,0.075
											c-10.204,0.035-24.717,0.085-42.092,0.145l-0.285,0.001l-0.001-0.286c-0.01-8.084-0.02-16.873-0.031-26.168
											c-0.002-4.649-0.005-9.424-0.008-14.302c-0.001-2.439-0.002-4.903-0.002-7.39c0-1.244-0.001-2.493-0.001-3.747v-1.885
											v-0.945v-0.473v-0.237v-0.118v-0.06v-0.03V255.1c-0.292,0.287,0.396-0.409,0.332-0.336
											c21.271,0.017,41.171,0.033,57.959,0.046l0.282,0.001l-0.001,0.281c-0.06,16.649-0.109,30.515-0.144,40.253
											c-0.032,4.806-0.056,8.592-0.073,11.208c-0.015,1.261-0.025,2.24-0.033,2.933c-0.007,0.31-0.011,0.553-0.016,0.744
											C483.792,310.395,483.788,310.476,483.782,310.471z"/>
									</g>
								</g>
							</g>
						</g>
					</g>
					<g>
						<g>
							<g>
								<g>
									<path style="fill:#455A64;" d="M572.719,326.63c0,0.18-14.699,0.327-32.828,0.327c-18.134,0-32.83-0.146-32.83-0.327
										c0-0.181,14.696-0.328,32.83-0.328C558.02,326.302,572.719,326.448,572.719,326.63z"/>
								</g>
							</g>
						</g>
						<g>
							<g>
								<g>
									<path style="fill:#455A64;" d="M572.719,335.415c0,0.181-14.699,0.328-32.828,0.328c-18.134,0-32.83-0.146-32.83-0.328
										c0-0.18,14.696-0.327,32.83-0.327C558.02,335.089,572.719,335.235,572.719,335.415z"/>
								</g>
							</g>
						</g>
						<g>
							<g>
								<g>
									<path style="fill:#455A64;" d="M546.411,344.202c0,0.18-8.809,0.327-19.674,0.327c-10.868,0-19.676-0.146-19.676-0.327
										s8.808-0.327,19.676-0.327C537.602,343.875,546.411,344.022,546.411,344.202z"/>
								</g>
							</g>
						</g>
						<g>
							<g>
								<rect x="507.061" y="236.846" style="fill:#E8505B;" width="31.215" height="3.959"/>
							</g>
						</g>
						<g>
							<g>
								<g>
									<rect x="507.061" y="249.594" style="fill:#FAFAFA;" width="68.602" height="66.372"/>
								</g>
							</g>
							<g>
								<g>
									<polygon style="fill:#E8505B;" points="512.38,310.286 531.357,276.131 546.88,297.962 556.311,286.369 570.344,310.286 
																			"/>
								</g>
							</g>
							<g>
								<g>
									<path style="fill:#E8505B;" d="M553.492,269.489c0,2.727-2.21,4.937-4.936,4.937c-2.727,0-4.938-2.21-4.938-4.937
										c0-2.727,2.211-4.937,4.938-4.937C551.282,264.552,553.492,266.762,553.492,269.489z"/>
								</g>
							</g>
							<g>
								<g>
									<g>
										<path style="fill:#E0E0E0;" d="M570.344,310.471c-0.005-0.005-0.01-0.097-0.016-0.272
											c-0.003-0.199-0.009-0.452-0.015-0.774c-0.008-0.706-0.019-1.703-0.033-2.987c-0.017-2.632-0.042-6.439-0.074-11.272
											c-0.034-9.694-0.084-23.5-0.143-40.075l0.28,0.28c-16.788,0.014-36.688,0.029-57.959,0.047
											c-0.078,0.069,0.613-0.615,0.321-0.318v0.015v0.03v0.06v0.118v0.237v0.473v0.945l-0.001,1.885
											c0,1.254,0,2.503-0.001,3.747c0,2.487-0.001,4.951-0.002,7.39c-0.003,4.878-0.006,9.653-0.008,14.302
											c-0.011,9.295-0.022,18.084-0.031,26.168l-0.284-0.285c17.299,0.06,31.75,0.11,41.91,0.145
											c5.066,0.032,9.06,0.057,11.821,0.074c1.349,0.014,2.396,0.026,3.136,0.034c0.339,0.007,0.604,0.012,0.812,0.016
											C570.243,310.46,570.339,310.465,570.344,310.471c0.006,0.005-0.079,0.011-0.253,0.016
											c-0.201,0.004-0.456,0.01-0.782,0.016c-0.727,0.007-1.755,0.019-3.08,0.033c-2.746,0.018-6.719,0.043-11.756,0.075
											c-10.204,0.035-24.717,0.085-42.092,0.145l-0.285,0.001l0-0.286c-0.01-8.084-0.02-16.873-0.031-26.168
											c-0.002-4.649-0.005-9.424-0.008-14.302c-0.001-2.439-0.002-4.903-0.002-7.39c0-1.244-0.001-2.493-0.001-3.747v-1.885
											v-0.945v-0.473v-0.237v-0.118v-0.06v-0.03V255.1c-0.292,0.287,0.396-0.409,0.332-0.336
											c21.271,0.017,41.171,0.033,57.959,0.046l0.282,0.001l-0.001,0.281c-0.06,16.649-0.109,30.515-0.144,40.253
											c-0.032,4.806-0.056,8.592-0.073,11.208c-0.015,1.261-0.025,2.24-0.033,2.933c-0.007,0.31-0.011,0.553-0.016,0.744
											C570.354,310.395,570.35,310.476,570.344,310.471z"/>
									</g>
								</g>
							</g>
						</g>
					</g>
					<g>
						<rect x="339.064" y="356.446" style="fill:#E8505B;" width="31.215" height="3.959"/>
						<path style="fill:#FAFAFA;" d="M344.709,375.017v0.142v0.473v0.946v1.885c0,1.254,0,2.503,0,3.747
							c-0.001,2.486-0.001,4.951-0.002,7.39c-0.003,4.877-0.005,9.653-0.008,14.301c-0.002,1.827-0.004,3.628-0.006,5.414h11.12
							l7.548-13.584l9.659,13.584h12.572l2.723-3.347l1.964,3.347h11.912c-0.032-9.091-0.074-20.782-0.123-34.344
							C385.423,374.984,365.743,375,344.709,375.017z M380.558,394.025c-2.727,0-4.937-2.21-4.937-4.937
							c0-2.727,2.21-4.936,4.937-4.936c2.727,0,4.937,2.21,4.937,4.936C385.495,391.815,383.285,394.025,380.558,394.025z"/>
						<path style="fill:#FAFAFA;" d="M407.667,369.194h-68.603v40.121h5.01c-0.002-1.786-0.004-3.587-0.006-5.414
							c-0.003-4.648-0.006-9.424-0.009-14.301c-0.001-2.439-0.001-4.904-0.002-7.39c-0.001-1.244-0.001-2.493-0.001-3.747
							l-0.001-1.885v-0.946v-0.473v-0.237v-0.119v-0.059v-0.029v-0.015c-0.292,0.287,0.397-0.409,0.332-0.337
							c21.271,0.017,41.172,0.033,57.96,0.047h0.282l-0.001,0.281c-0.049,13.666-0.091,25.452-0.123,34.624h5.162V369.194z"/>
						<polygon style="fill:#E8505B;" points="385.592,409.315 390.279,409.315 388.315,405.968 						"/>
						<polygon style="fill:#E8505B;" points="355.813,409.315 373.02,409.315 363.361,395.731 						"/>
						<path style="fill:#E8505B;" d="M380.558,384.152c-2.727,0-4.937,2.21-4.937,4.936c0,2.727,2.21,4.937,4.937,4.937
							c2.727,0,4.937-2.21,4.937-4.937C385.495,386.361,383.285,384.152,380.558,384.152z"/>
						<path style="fill:#E0E0E0;" d="M402.629,374.409h-0.282c-16.788-0.014-36.688-0.03-57.96-0.047
							c0.065-0.073-0.624,0.624-0.332,0.337v0.015v0.029v0.059v0.119v0.237v0.473v0.946l0.001,1.885c0,1.254,0,2.503,0.001,3.747
							c0.001,2.486,0.001,4.951,0.002,7.39c0.003,4.877,0.006,9.653,0.009,14.301c0.002,1.827,0.004,3.628,0.006,5.414h0.619
							c0.002-1.786,0.004-3.587,0.006-5.414c0.003-4.648,0.005-9.424,0.008-14.301c0.001-2.439,0.002-4.904,0.002-7.39
							c0-1.244,0-2.493,0-3.747v-1.885v-0.946v-0.473v-0.142c21.033-0.017,40.714-0.033,57.359-0.046
							c0.049,13.562,0.091,25.253,0.123,34.344h0.314c0.033-9.172,0.074-20.959,0.123-34.624L402.629,374.409z"/>
						<rect x="422.755" y="356.446" style="fill:#E8505B;" width="31.214" height="3.959"/>
						<path style="fill:#FAFAFA;" d="M428.4,375.017v0.142v0.473v0.946v1.885c0,1.254,0,2.503-0.001,3.747
							c0,2.486-0.001,4.951-0.002,7.39c-0.002,4.877-0.005,9.653-0.008,14.301c-0.002,1.827-0.004,3.628-0.006,5.414h11.12
							l7.548-13.584l9.659,13.584h12.572l2.723-3.347l1.964,3.347h11.913c-0.032-9.091-0.074-20.782-0.122-34.344
							C469.114,374.984,449.432,375,428.4,375.017z M464.249,394.025c-2.727,0-4.938-2.21-4.938-4.937
							c0-2.727,2.211-4.936,4.938-4.936c2.727,0,4.936,2.21,4.936,4.936C469.186,391.815,466.976,394.025,464.249,394.025z"/>
						<path style="fill:#FAFAFA;" d="M491.357,369.194h-68.602v40.121h5.009c-0.002-1.786-0.004-3.587-0.006-5.414
							c-0.003-4.648-0.006-9.424-0.008-14.301c-0.001-2.439-0.002-4.904-0.002-7.39c-0.001-1.244-0.001-2.493-0.001-3.747v-1.885
							l-0.001-0.946v-0.473v-0.237v-0.119v-0.059v-0.029v-0.015c-0.291,0.287,0.397-0.409,0.333-0.337
							c21.27,0.017,41.171,0.033,57.959,0.047h0.281l-0.001,0.281c-0.048,13.666-0.09,25.452-0.123,34.624h5.161V369.194z"/>
						<polygon style="fill:#E8505B;" points="439.503,409.315 456.71,409.315 447.051,395.731 						"/>
						<polygon style="fill:#E8505B;" points="469.283,409.315 473.969,409.315 472.005,405.968 						"/>
						<path style="fill:#E8505B;" d="M464.249,384.152c-2.727,0-4.938,2.21-4.938,4.936c0,2.727,2.211,4.937,4.938,4.937
							c2.727,0,4.936-2.21,4.936-4.937C469.186,386.361,466.976,384.152,464.249,384.152z"/>
						<path style="fill:#E0E0E0;" d="M486.319,374.409h-0.281c-16.788-0.014-36.689-0.03-57.959-0.047
							c0.064-0.073-0.624,0.624-0.333,0.337v0.015v0.029v0.059v0.119v0.237v0.473l0.001,0.946v1.885c0,1.254,0,2.503,0.001,3.747
							c0.001,2.486,0.001,4.951,0.002,7.39c0.002,4.877,0.005,9.653,0.008,14.301c0.002,1.827,0.004,3.628,0.006,5.414h0.619
							c0.002-1.786,0.004-3.587,0.006-5.414c0.003-4.648,0.006-9.424,0.008-14.301c0.001-2.439,0.002-4.904,0.002-7.39
							c0.001-1.244,0.001-2.493,0.001-3.747v-1.885v-0.946v-0.473v-0.142c21.033-0.017,40.714-0.033,57.359-0.046
							c0.048,13.562,0.09,25.253,0.122,34.344h0.314c0.033-9.172,0.074-20.959,0.123-34.624L486.319,374.409z"/>
						<rect x="508.732" y="356.446" style="fill:#E8505B;" width="31.214" height="3.959"/>
						<path style="fill:#FAFAFA;" d="M508.732,409.315h5.009c-0.002-1.786-0.004-3.587-0.006-5.414
							c-0.003-4.648-0.006-9.424-0.008-14.301c-0.001-2.439-0.002-4.904-0.002-7.39c-0.001-1.244-0.001-2.493-0.001-3.747v-1.885
							l0-0.946v-0.473v-0.237v-0.119v-0.059v-0.029v-0.015c-0.292,0.287,0.397-0.409,0.333-0.337
							c21.27,0.017,41.171,0.033,57.959,0.047h0.281l-0.001,0.281c-0.048,13.666-0.09,25.452-0.123,34.624h5.161v-40.121h-68.602
							V409.315z"/>
						<path style="fill:#FAFAFA;" d="M514.378,375.017v0.142v0.473v0.946v1.885c0,1.254,0,2.503-0.001,3.747
							c-0.001,2.486-0.001,4.951-0.002,7.39c-0.002,4.877-0.005,9.653-0.008,14.301c-0.002,1.827-0.004,3.628-0.006,5.414h11.12
							l7.548-13.584l9.659,13.584h12.572l2.723-3.347l1.964,3.347h11.913c-0.032-9.091-0.074-20.782-0.123-34.344
							C555.092,374.984,535.41,375,514.378,375.017z M550.227,394.025c-2.727,0-4.938-2.21-4.938-4.937
							c0-2.727,2.211-4.936,4.938-4.936c2.726,0,4.936,2.21,4.936,4.936C555.163,391.815,552.953,394.025,550.227,394.025z"/>
						<polygon style="fill:#E8505B;" points="555.26,409.315 559.947,409.315 557.983,405.968 						"/>
						<polygon style="fill:#E8505B;" points="525.481,409.315 542.688,409.315 533.029,395.731 						"/>
						<path style="fill:#E8505B;" d="M550.227,384.152c-2.727,0-4.938,2.21-4.938,4.936c0,2.727,2.211,4.937,4.938,4.937
							c2.726,0,4.936-2.21,4.936-4.937C555.163,386.361,552.953,384.152,550.227,384.152z"/>
						<path style="fill:#E0E0E0;" d="M572.297,374.409h-0.281c-16.788-0.014-36.689-0.03-57.959-0.047
							c0.064-0.073-0.624,0.624-0.333,0.337v0.015v0.029v0.059v0.119v0.237v0.473l0,0.946v1.885c0,1.254,0,2.503,0.001,3.747
							c0.001,2.486,0.001,4.951,0.002,7.39c0.002,4.877,0.005,9.653,0.008,14.301c0.002,1.827,0.004,3.628,0.006,5.414h0.619
							c0.002-1.786,0.004-3.587,0.006-5.414c0.003-4.648,0.006-9.424,0.008-14.301c0.001-2.439,0.002-4.904,0.002-7.39
							c0.001-1.244,0.001-2.493,0.001-3.747v-1.885v-0.946v-0.473v-0.142c21.032-0.017,40.714-0.033,57.359-0.046
							c0.048,13.562,0.09,25.253,0.123,34.344h0.314c0.033-9.172,0.074-20.959,0.123-34.624L572.297,374.409z"/>
					</g>
				</g>
				<g>
					<g>
						<g>
							<path style="fill:#455A64;" d="M601.598,409.315c-0.001-1.685-0.081-107.068-0.207-274.771l0.207,0.207
								c-115.548,0.015-262.311,0.033-421.548,0.054h-0.033l0.26-0.26c-0.007,97.663-0.015,190.624-0.021,274.771l-0.239-0.239
								C428.044,409.216,599.452,409.313,601.598,409.315c-2.145,0.001-173.554,0.098-421.581,0.239l-0.239,0v-0.239
								c-0.007-84.147-0.014-177.108-0.021-274.771v-0.26h0.26h0.033c159.237,0.02,306,0.039,421.548,0.054h0.207l0,0.207
								C601.678,302.247,601.599,407.631,601.598,409.315z"/>
						</g>
					</g>
				</g>
			</g>
			<g>
				<g>
					<g>
						<g>
							<path style="fill:#E8505B;" d="M300.087,346.438c0,0.194-18.583,0.351-41.502,0.351c-22.926,0-41.506-0.157-41.506-0.351
								c0-0.194,18.58-0.351,41.506-0.351C281.504,346.086,300.087,346.243,300.087,346.438z"/>
						</g>
					</g>
				</g>
				<g>
					<g>
						<g>
							<path style="fill:#E8505B;" d="M300.087,355.62c0,0.194-18.583,0.351-41.502,0.351c-22.926,0-41.506-0.157-41.506-0.351
								c0-0.194,18.58-0.351,41.506-0.351C281.504,355.269,300.087,355.426,300.087,355.62z"/>
						</g>
					</g>
				</g>
				<g>
					<g>
						<g>
							<path style="fill:#E8505B;" d="M300.087,364.802c0,0.194-18.583,0.351-41.502,0.351c-22.926,0-41.506-0.157-41.506-0.351
								c0-0.195,18.58-0.352,41.506-0.352C281.504,364.45,300.087,364.607,300.087,364.802z"/>
						</g>
					</g>
				</g>
				<g>
					<g>
						<g>
							<path style="fill:#E8505B;" d="M264.769,374.18c0,0.194-10.776,0.351-24.066,0.351c-13.294,0-24.068-0.157-24.068-0.351
								c0-0.194,10.774-0.351,24.068-0.351C253.993,373.829,264.769,373.986,264.769,374.18z"/>
						</g>
					</g>
				</g>
				<g>
					<g>
						
							<rect x="217.079" y="327.705" transform="matrix(-1 -1.224647e-16 1.224647e-16 -1 491.349 659.591)" style="fill:#E8505B;" width="57.191" height="4.18"/>
					</g>
				</g>
				<g>
					<g>
						<rect x="217.079" y="388.511" style="fill:#E0E0E0;" width="32.062" height="3.902"/>
					</g>
				</g>
			</g>
			<g>
				<g>
					
						<rect x="336.866" y="210.236" transform="matrix(-1 -1.224647e-16 1.224647e-16 -1 726.9059 424.3596)" style="fill:#455A64;" width="53.173" height="3.887"/>
				</g>
			</g>
			<g>
				<rect x="555.163" y="207.522" style="fill:#455A64;" width="4.094" height="4.094"/>
				<rect x="555.163" y="213.143" style="fill:#455A64;" width="4.094" height="4.094"/>
				<rect x="561.645" y="207.522" style="fill:#455A64;" width="4.094" height="4.094"/>
				<rect x="561.645" y="213.143" style="fill:#455A64;" width="4.094" height="4.094"/>
				<rect x="575.458" y="206.946" style="fill:#455A64;" width="4.094" height="4.094"/>
				<rect x="575.458" y="213.143" style="fill:#455A64;" width="4.094" height="4.094"/>
			</g>
			<g>
				<g>
					<path style="fill:#263238;" d="M533.89,190.177c0,0-0.215,0.113-0.646,0.309c-0.43,0.199-1.077,0.477-1.928,0.833
						c-1.707,0.7-4.248,1.683-7.6,2.696c-1.676,0.505-3.555,1.011-5.63,1.482c-2.083,0.446-4.329,0.961-6.821,1.205
						c-1.237,0.082-2.605,0.02-3.827-0.634c-1.23-0.64-2.096-1.907-2.444-3.298c-0.382-1.395-0.263-2.928,0.169-4.362
						c0.424-1.446,1.122-2.819,1.836-4.198l0.266,0.258c-8.269,4.657-18.134,9.672-29.246,14.399l-0.622,0.265l0.319-0.597
						c3.482-6.531,7.154-13.418,10.97-20.575c0.418-0.902,0.772-1.852,0.843-2.823c0.083-0.965-0.229-1.943-0.925-2.608
						c-0.693-0.66-1.685-0.962-2.683-1.024c-1.005-0.069-2.034,0.057-3.042,0.271c-4.062,0.953-8.09,2.387-11.985,4.197
						c-8.818,4.144-16.359,10.241-21.985,17.181l-1.354,1.67l0.928-1.938c2.891-6.037,5.689-11.879,8.372-17.481
						c1.342-2.8,2.655-5.541,3.937-8.215c0.323-0.672,0.646-1.32,0.85-2c0.204-0.671,0.309-1.387,0.096-2.005
						c-0.207-0.616-0.745-1.087-1.384-1.212c-0.641-0.138-1.336-0.04-1.99,0.144c-0.662,0.18-1.284,0.46-1.912,0.761
						c-0.627,0.293-1.249,0.584-1.867,0.873c-1.236,0.576-2.423,1.207-3.607,1.793c-2.337,1.236-4.571,2.483-6.678,3.766
						c-4.218,2.56-7.961,5.187-11.243,7.725c-6.571,5.079-11.258,9.807-14.379,13.117c-1.537,1.68-2.716,2.987-3.48,3.899
						c-0.382,0.439-0.676,0.777-0.887,1.02c-0.201,0.228-0.313,0.337-0.313,0.337s1.495-1.986,4.551-5.375
						c3.085-3.352,7.746-8.127,14.308-13.255c3.277-2.563,7.02-5.215,11.241-7.8c2.109-1.296,4.346-2.554,6.688-3.803
						c1.187-0.592,2.376-1.229,3.615-1.811c0.619-0.292,1.243-0.585,1.871-0.882c0.62-0.299,1.277-0.598,1.974-0.79
						c0.692-0.195,1.444-0.315,2.206-0.155c0.767,0.146,1.46,0.736,1.712,1.499c0.261,0.768,0.128,1.569-0.085,2.284
						c-0.217,0.725-0.554,1.403-0.871,2.067c-1.276,2.677-2.584,5.42-3.92,8.223c-2.675,5.606-5.464,11.452-8.347,17.493
						l-0.426-0.268c5.666-7.005,13.266-13.156,22.158-17.334c3.932-1.826,7.98-3.268,12.098-4.232
						c1.043-0.22,2.111-0.354,3.188-0.279c1.063,0.067,2.186,0.389,3.004,1.169c0.817,0.773,1.176,1.942,1.078,3.013
						c-0.081,1.079-0.461,2.073-0.892,3.005c-3.797,7.203-7.517,14.048-11.01,20.584l-0.304-0.333
						c11.103-4.698,20.966-9.678,29.243-14.297l0.567-0.316l-0.3,0.574c-0.719,1.375-1.41,2.724-1.826,4.124
						c-0.424,1.391-0.54,2.842-0.184,4.17c0.327,1.323,1.128,2.497,2.263,3.096c1.131,0.614,2.439,0.69,3.65,0.616
						c2.442-0.224,4.713-0.726,6.784-1.154c2.072-0.454,3.95-0.944,5.626-1.431c3.352-0.979,5.901-1.928,7.619-2.593
						c0.843-0.338,1.491-0.598,1.947-0.781C533.66,190.256,533.89,190.177,533.89,190.177z"/>
				</g>
				<g>
					<path style="fill:#263238;" d="M522.668,202.522c0,0.144-8.643,0.26-19.302,0.26c-10.663,0-19.304-0.117-19.304-0.26
						s8.641-0.26,19.304-0.26C514.025,202.262,522.668,202.378,522.668,202.522z"/>
				</g>
			</g>
		</g>
	</g>
</g>
<g id="Character_1_">
	<g>
		<g>
			<g>
				<path style="fill:#FAFAFA;" d="M309.903,251.735c0,31.534-25.563,57.097-57.095,57.097c-31.533,0-57.095-25.563-57.095-57.097
					c0-31.533,25.563-57.095,57.095-57.095C284.341,194.64,309.903,220.202,309.903,251.735z"/>
			</g>
		</g>
		<g>
			<g>
				<path style="fill:none;" d="M317.209,191.972c0.316,0.551,0.763,1.203,1.293,2.09c-0.072-1.236-0.358-2.539-0.957-3.765
					c-0.765-1.603-1.932-2.899-2.881-4.162c-0.112-0.143-0.21-0.287-0.315-0.431c0.066,0.186,0.125,0.361,0.198,0.556
					C315.167,187.931,316.043,189.981,317.209,191.972z"/>
				<polygon style="fill:none;" points="313.624,213.225 313.662,213.211 313.597,213.233 				"/>
				<path style="fill:none;" d="M274.697,279.267l-0.122,0.311c0.229-0.055,0.637-0.139,1.168-0.289
					C275.099,279.325,274.697,279.267,274.697,279.267z"/>
				<polygon style="fill:none;" points="313.548,214.656 313.548,214.646 313.547,214.606 313.547,214.6 313.548,214.662 				"/>
				<path style="fill:none;" d="M273.177,186.274c0-0.002,0.001-0.004,0.002-0.006l0,0c0.389-1.311,0.774-2.473,1.128-3.331
					c0.284-0.688,0.647-1.684,1.108-2.842c-0.645,0.967-1.277,1.994-1.864,3.093c-2.017,3.773-2.938,7.607-3.101,10.466
					c0.796-1.683,1.617-3.658,2.303-5.901C272.894,187.246,273.036,186.749,273.177,186.274z"/>
				<path style="fill:#E5BAAB;" d="M296.636,271.201c2.878-1.039,5.466-2.032,7.338-2.754c0.599-0.231,1.116-0.43,1.556-0.596
					l-0.053-0.345l-11.584,4.667C294.77,271.867,295.687,271.543,296.636,271.201z"/>
				<path style="fill:#E5BAAB;" d="M348.706,251.723c-1.629-0.616-5.202,8.145-5.526,5.816s5.615-10.207,3.886-10.781
					c-2.254-0.748-5.826,8.492-6.186,9.252c-0.35,0.738-1.47,0.265-1.109-0.403c0.52-0.961,5.734-11.189,3.527-11.945
					c-1.223-0.419-1.772,1.847-1.772,1.847s-4.173,9.928-5.203,9.537c-1.045-0.398,1.208-6.309,2.109-8.249
					c0.89-1.917,0.34-3.119-0.836-2.809c-0.802,0.212-3.702,6.087-4.548,8.026c-0.846,1.939-3.072,7.298-4.124,3.764
					c-1.052-3.535-3.193-5.855-4.208-6.08c-1.016-0.225-1.699,1.107-0.943,1.967c0.611,0.695,1.269,2.17,1.718,3.298
					c0.37,0.93,0.588,1.916,0.625,2.916c0.086,2.277-0.017,3.943-0.116,4.94l-17.877,21.905l-2.553-16.601
					c-0.414,0.194-0.897,0.414-1.458,0.661c-1.84,0.812-4.415,1.861-7.302,2.904c-2.752,0.992-5.281,1.794-7.188,2.344
					c1.199,4.631,2.676,10.594,4.447,18.184c5.78,24.768,24.055,3.226,24.055,3.226l19.764-26.236
					c3.111-3.89,7.354-9.349,9.065-12.266C349.734,252.208,349.313,251.953,348.706,251.723z"/>
				<path style="fill:#E5BAAB;" d="M204.287,234.066c-0.848-0.077-2.432-1.935-4.218-4.468c-3.147,7.071-4.912,14.893-4.92,23.13
					c0.402,0.336,0.778,0.563,1.115,0.635c2.537,0.538,16.527-3.763,29.049-7.9l-9.856-15.16
					C210.001,232.463,205.318,234.16,204.287,234.066z"/>
				<path style="fill:#455A64;" d="M276.91,230.42c0.229,0.188,0.445,0.378,0.679,0.565c5.874,4.692,12.157,7.604,16.923,8.793
					c2.38,0.616,4.358,0.904,5.729,1.02c0.393,0.035,0.73,0.061,1.02,0.083c-3.774-12.599-15.591-18.169-15.591-18.169l-1.677-0.695
					c-0.497,1.074-1.011,2.191-1.516,3.301C281.346,227.802,279.294,229.572,276.91,230.42z M282.713,229.727
					c-0.63,0.445-1.664,0.003-1.779-0.76c-0.115-0.763,0.743-1.489,1.477-1.25l0.184,0.079
					C283.275,228.161,283.344,229.283,282.713,229.727z"/>
				<path style="fill:#455A64;" d="M281.875,276.196c-1.099,1.134-2.327,1.947-3.448,2.478
					C279.523,278.228,280.731,277.461,281.875,276.196z"/>
				<path style="fill:#455A64;" d="M263.748,303.695c-1.433,0.018-3.528-0.204-5.983-0.979c-2.451-0.779-5.227-2.138-8.021-4.064
					c-2.804-1.919-5.588-4.401-8.481-7.001c-2.893-2.6-5.682-5.044-8.479-6.898c-2.789-1.861-5.554-3.141-7.982-3.856
					c-2.432-0.711-4.497-0.886-5.913-0.856c-0.693,0.012-1.231,0.055-1.603,0.089l-6.339,12.059
					c10.397,10.893,25.048,17.691,41.295,17.691c4.412,0,8.703-0.509,12.827-1.456l0.342-4.836
					c-0.007,0.001-0.011,0.001-0.018,0.002C265.022,303.649,264.467,303.68,263.748,303.695z M237.737,302.243
					c-0.63,0.444-1.664,0.003-1.779-0.76c-0.115-0.763,0.743-1.489,1.477-1.25l0.184,0.079
					C238.298,300.677,238.367,301.799,237.737,302.243z"/>
				<path style="fill:#455A64;" d="M286.17,274.879c-0.021-0.072,1.156-0.474,3.058-1.113c1.276-0.429,2.88-0.971,4.665-1.594
					l11.584-4.667l1.461-0.589c0,0-2.707-12.269-5.107-23.81c-0.149-0.715-0.33-1.404-0.527-2.078
					c-0.302,0.004-0.658,0.004-1.077-0.029c-1.385-0.055-3.389-0.288-5.805-0.865c-4.839-1.109-11.229-4.006-17.156-8.742
					c-0.324-0.258-0.626-0.523-0.941-0.784c-2.132,0.61-4.482,0.5-6.659-0.49h0c-4.484-2.038-6.667-7.077-5.237-11.674
					c-0.235-0.281-0.478-0.571-0.699-0.839c-1.569-1.912-2.804-3.484-3.649-4.579c-0.388-0.513-0.706-0.932-0.961-1.269
					c-0.215-0.294-0.321-0.453-0.307-0.465c0.014-0.011,0.148,0.126,0.389,0.399c0.275,0.32,0.618,0.719,1.037,1.207
					c0.939,1.111,2.216,2.624,3.773,4.469c0.18,0.209,0.378,0.438,0.566,0.655c0.072-0.198,0.139-0.396,0.224-0.591l1.27-2.906
					c-0.982-0.734-5.679-3.953-12.906-4.469c0.373,0.293,0.845,0.702,1.423,1.228c1.374,1.265,3.209,3.282,5.073,6.064
					c1.86,2.783,3.704,6.335,5.361,10.43c1.672,4.091,3.152,8.713,4.854,13.497c1.706,4.776,3.554,9.26,5.802,13.026
					c2.235,3.77,4.817,6.812,7.307,8.994c0.44,0.384,0.874,0.733,1.302,1.066c-0.055-0.241-0.086-0.382-0.055-0.392
					c0.025-0.009,0.128,0.189,0.266,0.555c1.922,1.466,3.69,2.444,5.037,3.036c1.697,0.753,2.704,1.001,2.684,1.064
					c-0.005,0.017-0.255-0.044-0.729-0.178c-0.479-0.117-1.164-0.358-2.036-0.7c-1.288-0.516-2.951-1.372-4.77-2.665
					c0.145,0.493,0.286,1.137,0.365,1.92c0.13,1.177,0.058,2.698-0.382,4.29c0.469-1.429,0.646-2.732,0.674-3.818l0.862,7.795
					l2.252-0.908C287.046,274.747,286.186,274.935,286.17,274.879z M293.292,250.688l0.184,0.078
					c0.68,0.364,0.749,1.486,0.118,1.931c-0.63,0.444-1.664,0.003-1.779-0.76C291.701,251.175,292.559,250.449,293.292,250.688z"/>
				<path style="fill:#455A64;" d="M274.575,279.578l0.122-0.311c0,0,0.402,0.058,1.046,0.023c0.188-0.053,0.392-0.117,0.61-0.189
					c-0.221-0.274-0.545-0.679-0.975-1.187c-0.86-1.016-2.224-2.392-4.117-3.831c-1.889-1.444-4.336-2.902-7.208-4.195
					c-2.862-1.316-6.141-2.465-9.623-3.538c-3.483-1.076-6.845-1.987-9.852-3.004c-3.005-1.018-5.657-2.137-7.74-3.347
					c-2.088-1.199-3.641-2.391-4.634-3.295c-0.514-0.432-0.861-0.825-1.115-1.07c-0.247-0.253-0.37-0.391-0.357-0.404
					c0.032-0.034,0.575,0.472,1.604,1.319c1.026,0.85,2.596,1.983,4.682,3.127c2.082,1.155,4.718,2.227,7.712,3.214
					c2.997,0.986,6.358,1.882,9.854,2.962c3.493,1.076,6.791,2.247,9.67,3.599c2.888,1.33,5.348,2.839,7.232,4.34
					c1.889,1.496,3.229,2.929,4.048,3.994c0.432,0.515,0.696,0.97,0.902,1.256c0.008,0.012,0.01,0.015,0.017,0.027
					c0.27-0.092,0.552-0.194,0.859-0.322c1.743-0.711,4.032-2.216,5.579-4.667c1.54-2.455,1.906-5.169,1.793-7.048
					c-0.048-0.91-0.175-1.637-0.284-2.157c-0.542-0.396-1.094-0.823-1.656-1.299c-2.552-2.173-5.196-5.228-7.478-9.026
					c-2.296-3.795-4.17-8.307-5.881-13.097c-1.707-4.797-3.17-9.414-4.809-13.493c-1.624-4.083-3.419-7.622-5.224-10.407
					c-1.809-2.783-3.584-4.818-4.906-6.12c-0.615-0.609-1.116-1.064-1.479-1.388c-5.934-0.38-13.54,1.071-22.191,7.196l-5.327,3.472
					c0.063,0.105,0.177,0.316,0.345,0.643c0.129,0.254,0.279,0.55,0.452,0.891c0.204,0.348,0.433,0.739,0.689,1.175
					c1.063,1.745,2.789,4.188,5.458,6.702c2.639,2.541,6.172,5.139,10.321,7.651c4.142,2.528,8.933,4.914,13.763,7.801
					c4.826,2.87,9.223,6.062,12.503,9.714c3.324,3.621,5.337,7.648,6.609,11.097c1.286,3.462,2.001,6.363,2.499,8.358
					c0.225,0.965,0.405,1.734,0.539,2.308c0.116,0.529,0.168,0.809,0.15,0.814c-0.017,0.004-0.104-0.267-0.252-0.788
					c-0.158-0.568-0.369-1.328-0.634-2.282c-0.557-1.977-1.326-4.857-2.646-8.277c-1.309-3.411-3.325-7.355-6.62-10.906
					c-3.253-3.583-7.61-6.732-12.415-9.589c-4.807-2.873-9.596-5.275-13.746-7.838c-4.155-2.546-7.696-5.198-10.327-7.796
					c-2.661-2.571-4.361-5.075-5.377-6.864c-0.246-0.454-0.472-0.852-0.651-1.206c-0.157-0.351-0.292-0.656-0.409-0.917
					c-0.146-0.333-0.237-0.552-0.279-0.668l-11.369,7.411l1.406,2.162l9.856,15.16l2.395,3.684l7.356-4.388
					c-1.883,0.903-3.159,1.537-3.21,1.447c-0.07-0.118,2.466-1.716,5.824-3.248c3.353-1.54,6.221-2.415,6.264-2.285
					c0.051,0.142-2.719,1.23-6.047,2.758c-0.22,0.1-0.436,0.199-0.649,0.298l-8.893,15.35l-11.004,20.934
					c0.367-0.071,0.878-0.127,1.535-0.175c1.43-0.093,3.536,0.027,6.021,0.705c2.48,0.681,5.306,1.947,8.145,3.81
					c2.849,1.857,5.667,4.309,8.562,6.91c2.893,2.601,5.652,5.078,8.406,6.995c2.747,1.924,5.464,3.297,7.863,4.108
					c2.402,0.808,4.455,1.082,5.871,1.127c0.733,0.025,1.293,0.009,1.668-0.005l0.046-0.656l9.067-23.147
					c-0.107-0.001-0.174-0.009-0.175-0.022C274.354,279.637,274.431,279.613,274.575,279.578z M246.991,224.414
					c-0.63,0.444-1.664,0.003-1.779-0.76c-0.115-0.763,0.743-1.489,1.477-1.25l0.184,0.078
					C247.553,222.848,247.622,223.97,246.991,224.414z M247.796,252.193l0.184,0.078c0.68,0.364,0.749,1.486,0.119,1.931
					c-0.63,0.445-1.664,0.003-1.779-0.76C246.205,252.68,247.063,251.954,247.796,252.193z M257.497,277.952l0.184,0.079
					c0.68,0.364,0.749,1.486,0.118,1.931c-0.63,0.444-1.664,0.003-1.779-0.76C255.906,278.439,256.764,277.712,257.497,277.952z
					 M227.525,279.626c-0.63,0.444-1.664,0.003-1.779-0.76c-0.115-0.763,0.743-1.489,1.477-1.25l0.184,0.079
					C228.087,278.06,228.155,279.182,227.525,279.626z M272.398,283.424c-0.324,0.18-0.799,0.454-1.449,0.73
					c-1.28,0.585-3.216,1.293-5.705,1.742c-2.483,0.462-5.517,0.638-8.844,0.331c-3.329-0.288-6.94-1.075-10.596-2.266
					c-3.66-1.185-7.037-2.601-10.091-3.903c-3.052-1.31-5.788-2.514-8.109-3.457c-1.156-0.469-2.231-0.812-3.205-0.927
					c-0.971-0.123-1.824-0.016-2.481,0.186c-1.329,0.421-1.817,1.113-1.852,1.059c-0.01-0.008,0.098-0.175,0.373-0.431
					c0.277-0.249,0.739-0.579,1.416-0.821c0.673-0.24,1.561-0.382,2.576-0.282c1.015,0.091,2.131,0.422,3.307,0.874
					c2.349,0.904,5.102,2.074,8.162,3.358c3.061,1.277,6.431,2.674,10.064,3.85c3.631,1.183,7.193,1.973,10.48,2.284
					c3.284,0.329,6.278,0.194,8.737-0.216c2.465-0.397,4.394-1.042,5.688-1.565c1.3-0.516,1.982-0.893,2.008-0.843
					C272.887,283.14,272.722,283.243,272.398,283.424z"/>
				<path style="fill:#FFFFFF;" d="M264.011,217.368c-1.558-1.845-2.835-3.358-3.773-4.469c-0.419-0.488-0.762-0.887-1.037-1.207
					c-0.241-0.273-0.375-0.41-0.389-0.399c-0.014,0.011,0.092,0.171,0.307,0.465c0.255,0.337,0.573,0.756,0.961,1.269
					c0.845,1.094,2.08,2.667,3.649,4.579c0.221,0.268,0.465,0.558,0.699,0.839c0.044-0.141,0.098-0.28,0.149-0.42
					C264.389,217.806,264.191,217.577,264.011,217.368z"/>
				<path style="fill:#FFFFFF;" d="M294.512,239.778c-4.766-1.189-11.049-4.101-16.923-8.793c-0.233-0.186-0.45-0.377-0.679-0.565
					c-0.193,0.069-0.389,0.132-0.586,0.188c0.315,0.261,0.617,0.526,0.941,0.784c5.927,4.736,12.318,7.634,17.156,8.742
					c2.416,0.577,4.42,0.81,5.805,0.865c0.419,0.033,0.775,0.033,1.077,0.029c0.197-0.002,0.375-0.006,0.518-0.004
					c0.365-0.006,0.556-0.017,0.556-0.035c0-0.033-0.395-0.055-1.117-0.109c-0.29-0.022-0.627-0.048-1.02-0.083
					C298.87,240.681,296.892,240.394,294.512,239.778z"/>
				<path style="fill:#FFFFFF;" d="M284.686,265.082c1.819,1.293,3.482,2.149,4.77,2.665c0.872,0.341,1.556,0.582,2.036,0.7
					c0.474,0.134,0.724,0.195,0.729,0.178c0.02-0.063-0.987-0.311-2.684-1.064c-1.347-0.593-3.114-1.57-5.037-3.036
					c0.026,0.07,0.052,0.135,0.08,0.217C284.615,264.843,284.651,264.962,284.686,265.082z"/>
				<path style="fill:#FFFFFF;" d="M259.353,217.551c1.805,2.785,3.6,6.324,5.224,10.407c1.639,4.078,3.102,8.696,4.809,13.493
					c1.711,4.79,3.584,9.302,5.881,13.097c2.282,3.798,4.926,6.853,7.478,9.026c0.562,0.476,1.114,0.903,1.656,1.299
					c-0.043-0.206-0.081-0.374-0.113-0.511c-0.429-0.333-0.862-0.682-1.302-1.066c-2.489-2.182-5.072-5.224-7.307-8.994
					c-2.249-3.766-4.096-8.25-5.802-13.026c-1.703-4.784-3.182-9.405-4.854-13.497c-1.657-4.095-3.501-7.647-5.361-10.43
					c-1.865-2.782-3.699-4.799-5.073-6.064c-0.578-0.526-1.05-0.935-1.423-1.228c-0.074-0.058-0.149-0.118-0.215-0.166
					c-0.388-0.301-0.597-0.453-0.608-0.439c-0.02,0.024,0.211,0.22,0.627,0.591c0.362,0.324,0.863,0.779,1.479,1.388
					C255.77,212.733,257.544,214.768,259.353,217.551z"/>
				<path style="fill:#FFFFFF;" d="M226.11,222.316c0.179,0.354,0.405,0.753,0.651,1.206c1.016,1.789,2.716,4.293,5.377,6.864
					c2.631,2.599,6.172,5.25,10.327,7.796c4.15,2.564,8.939,4.965,13.746,7.838c4.805,2.858,9.162,6.006,12.415,9.589
					c3.295,3.551,5.311,7.495,6.62,10.906c1.32,3.42,2.089,6.3,2.646,8.277c0.265,0.954,0.476,1.715,0.634,2.282
					c0.148,0.521,0.235,0.792,0.252,0.788c0.017-0.004-0.035-0.284-0.15-0.814c-0.134-0.574-0.314-1.342-0.539-2.308
					c-0.498-1.995-1.213-4.895-2.499-8.358c-1.272-3.449-3.285-7.476-6.609-11.097c-3.279-3.652-7.677-6.843-12.503-9.714
					c-4.831-2.886-9.622-5.273-13.763-7.801c-4.149-2.512-7.682-5.111-10.321-7.651c-2.669-2.514-4.396-4.957-5.458-6.702
					c-0.255-0.436-0.485-0.828-0.689-1.175c-0.173-0.341-0.323-0.637-0.452-0.891c-0.168-0.327-0.282-0.537-0.345-0.643
					c-0.03-0.05-0.052-0.083-0.057-0.081c-0.005,0.002,0.007,0.043,0.028,0.1c0.042,0.116,0.133,0.335,0.279,0.668
					C225.817,221.661,225.953,221.965,226.11,222.316z"/>
				<path style="fill:#FFFFFF;" d="M276.712,279.503c0.008-0.006-0.024-0.065-0.08-0.157c-0.022,0.006-0.042,0.011-0.064,0.017
					C276.65,279.459,276.701,279.512,276.712,279.503z"/>
				<path style="fill:#FFFFFF;" d="M275.534,277.784c-0.819-1.065-2.159-2.498-4.048-3.994c-1.884-1.501-4.344-3.01-7.232-4.34
					c-2.878-1.352-6.176-2.523-9.67-3.599c-3.496-1.08-6.857-1.975-9.854-2.962c-2.995-0.987-5.631-2.059-7.712-3.214
					c-2.086-1.145-3.656-2.278-4.682-3.127c-1.029-0.847-1.572-1.353-1.604-1.319c-0.013,0.013,0.111,0.151,0.357,0.404
					c0.254,0.244,0.602,0.637,1.115,1.07c0.993,0.903,2.547,2.095,4.634,3.295c2.083,1.21,4.735,2.33,7.74,3.347
					c3.007,1.017,6.37,1.928,9.852,3.004c3.482,1.073,6.761,2.222,9.623,3.538c2.872,1.293,5.319,2.751,7.208,4.195
					c1.893,1.439,3.256,2.815,4.117,3.831c0.43,0.509,0.754,0.913,0.975,1.187c0.033-0.011,0.066-0.022,0.1-0.034
					c-0.007-0.011-0.009-0.015-0.017-0.027C276.23,278.754,275.966,278.299,275.534,277.784z"/>
				<path style="fill:#FFFFFF;" d="M265.182,285.533c-2.459,0.41-5.453,0.545-8.737,0.216c-3.287-0.311-6.85-1.101-10.48-2.284
					c-3.633-1.176-7.003-2.572-10.064-3.85c-3.06-1.284-5.813-2.454-8.162-3.358c-1.176-0.451-2.293-0.783-3.307-0.874
					c-1.015-0.1-1.903,0.043-2.576,0.282c-0.677,0.241-1.139,0.572-1.416,0.821c-0.275,0.256-0.383,0.423-0.373,0.431
					c0.036,0.054,0.523-0.638,1.852-1.059c0.657-0.201,1.51-0.308,2.481-0.186c0.974,0.115,2.049,0.458,3.205,0.927
					c2.321,0.943,5.057,2.147,8.109,3.457c3.054,1.303,6.431,2.719,10.091,3.903c3.656,1.191,7.267,1.978,10.596,2.266
					c3.326,0.307,6.361,0.131,8.844-0.331c2.49-0.449,4.425-1.157,5.705-1.742c0.649-0.277,1.125-0.55,1.449-0.73
					c0.323-0.181,0.488-0.284,0.48-0.299c-0.026-0.05-0.708,0.327-2.008,0.843C269.576,284.491,267.647,285.136,265.182,285.533z"/>
				<path style="fill:#FFFFFF;" d="M263.752,303.492c-1.416-0.044-3.469-0.319-5.871-1.127c-2.399-0.811-5.116-2.184-7.863-4.108
					c-2.755-1.917-5.513-4.393-8.406-6.995c-2.895-2.602-5.713-5.054-8.562-6.91c-2.839-1.863-5.665-3.129-8.145-3.81
					c-2.485-0.677-4.591-0.797-6.021-0.705c-0.656,0.048-1.168,0.104-1.535,0.175c-0.034,0.007-0.073,0.012-0.104,0.019
					c-0.371,0.067-0.564,0.111-0.561,0.128c0.005,0.03,0.213,0.005,0.604-0.031c0.372-0.034,0.91-0.077,1.603-0.089
					c1.416-0.03,3.481,0.145,5.913,0.856c2.428,0.715,5.193,1.995,7.982,3.856c2.797,1.854,5.586,4.298,8.479,6.898
					c2.892,2.6,5.677,5.082,8.481,7.001c2.794,1.926,5.57,3.285,8.021,4.064c2.455,0.776,4.55,0.997,5.983,0.979
					c0.718-0.014,1.273-0.046,1.647-0.105c0.007-0.001,0.011-0.001,0.018-0.002c0.362-0.045,0.551-0.077,0.549-0.095
					c-0.003-0.028-0.191-0.018-0.542-0.005C265.045,303.501,264.485,303.517,263.752,303.492z"/>
				<path style="fill:#263238;" d="M304.114,268.786c0.561-0.247,1.044-0.467,1.458-0.661c0.944-0.442,1.486-0.731,1.466-0.775
					c-0.02-0.047-0.574,0.147-1.509,0.5c-0.44,0.166-0.957,0.365-1.556,0.596c-1.872,0.723-4.46,1.715-7.338,2.754
					c-0.949,0.342-1.866,0.666-2.743,0.972c-1.784,0.623-3.389,1.165-4.665,1.594c-1.902,0.639-3.079,1.041-3.058,1.113
					c0.016,0.056,0.876-0.132,2.288-0.517c0.275-0.075,0.564-0.155,0.88-0.245c0.092-0.026,0.192-0.056,0.287-0.083
					c1.907-0.55,4.436-1.352,7.188-2.344C299.699,270.648,302.274,269.598,304.114,268.786z"/>
				<path style="fill:#263238;" d="M285.051,267.003c-0.08-0.783-0.22-1.428-0.365-1.92c-0.035-0.121-0.071-0.239-0.107-0.34
					c-0.029-0.082-0.054-0.148-0.08-0.217c-0.138-0.366-0.242-0.564-0.266-0.555c-0.032,0.009-0.001,0.151,0.055,0.392
					c0.031,0.137,0.07,0.305,0.113,0.511c0.109,0.52,0.236,1.247,0.284,2.157c0.113,1.879-0.253,4.594-1.793,7.048
					c-1.547,2.451-3.836,3.957-5.579,4.667c-0.307,0.128-0.589,0.23-0.859,0.322c-0.034,0.011-0.067,0.023-0.1,0.034
					c-0.218,0.073-0.422,0.136-0.61,0.189c-0.531,0.15-0.939,0.234-1.168,0.289c-0.144,0.034-0.221,0.059-0.217,0.084
					c0.001,0.014,0.068,0.021,0.175,0.022c0.142,0.002,0.362-0.009,0.671-0.044c0.358-0.04,0.827-0.129,1.364-0.277
					c0.022-0.006,0.042-0.011,0.064-0.017c0.257-0.072,0.526-0.154,0.814-0.258c0.311-0.109,0.642-0.253,0.98-0.413
					c1.12-0.531,2.349-1.344,3.448-2.478c0.525-0.542,1.022-1.151,1.457-1.841c0.629-1.003,1.057-2.047,1.337-3.063
					C285.109,269.701,285.181,268.18,285.051,267.003z"/>
				<path style="fill:#263238;" d="M243.942,240.672c-0.044-0.13-2.911,0.745-6.264,2.285c-3.358,1.532-5.894,3.131-5.824,3.248
					c0.051,0.091,1.327-0.544,3.21-1.447c0.661-0.317,1.397-0.667,2.182-1.03c0.213-0.099,0.429-0.198,0.649-0.298
					C241.223,241.902,243.992,240.814,243.942,240.672z"/>
				<path style="fill:#E8505B;" d="M246.873,222.483l-0.184-0.078c-0.733-0.239-1.591,0.487-1.477,1.25
					c0.115,0.763,1.149,1.204,1.779,0.76C247.622,223.97,247.553,222.848,246.873,222.483z"/>
				<path style="fill:#E8505B;" d="M293.594,252.697c0.63-0.445,0.561-1.567-0.118-1.931l-0.184-0.078
					c-0.733-0.239-1.591,0.487-1.477,1.25C291.93,252.7,292.964,253.141,293.594,252.697z"/>
				<path style="fill:#E8505B;" d="M248.099,254.202c0.63-0.444,0.561-1.567-0.119-1.931l-0.184-0.078
					c-0.733-0.239-1.591,0.487-1.477,1.249C246.434,254.205,247.468,254.647,248.099,254.202z"/>
				<path style="fill:#E8505B;" d="M257.8,279.961c0.63-0.445,0.561-1.567-0.118-1.931l-0.184-0.079
					c-0.733-0.239-1.591,0.487-1.477,1.25C256.136,279.964,257.17,280.405,257.8,279.961z"/>
				<path style="fill:#E8505B;" d="M237.619,300.312l-0.184-0.079c-0.733-0.239-1.591,0.487-1.477,1.25
					c0.115,0.763,1.149,1.204,1.779,0.76C238.367,301.799,238.298,300.677,237.619,300.312z"/>
				<path style="fill:#E8505B;" d="M227.407,277.696l-0.184-0.079c-0.733-0.239-1.591,0.487-1.477,1.25
					c0.115,0.763,1.149,1.204,1.779,0.76C228.155,279.182,228.087,278.06,227.407,277.696z"/>
				<path style="fill:#E8505B;" d="M280.934,228.968c0.115,0.763,1.149,1.204,1.779,0.76c0.63-0.444,0.561-1.567-0.118-1.931
					l-0.184-0.079C281.678,227.479,280.82,228.205,280.934,228.968z"/>
				<path style="fill:#E5BAAB;" d="M291.321,175.733c-0.041,0.137-0.086,0.279-0.133,0.426c0.117,1.162,0.394,2.843,1.227,4.586
					c0.704,1.588,1.794,2.753,2.872,2.982c0.005,0.001,0.01,0.002,0.015,0.003C293.62,181.19,292.198,178.39,291.321,175.733z"/>
				<path style="fill:#E5BAAB;" d="M264.577,218.023c-0.051,0.14-0.105,0.279-0.149,0.42c-1.43,4.598,0.753,9.637,5.237,11.674h0
					c2.177,0.99,4.527,1.1,6.659,0.49c0.197-0.056,0.393-0.12,0.586-0.188c2.383-0.848,4.435-2.618,5.567-5.102
					c0.505-1.109,1.019-2.227,1.516-3.301c0.716-1.547,1.391-2.992,1.946-4.176c0.833-1.775,1.395-2.957,1.395-2.957l-1.024,1.976
					c-8.307-3.024-8.218-10.167-8.218-10.167c3.734,5.99,9.242,8.191,9.242,8.191s6.577,1.838,11.719-6.144
					c2.193-3.403,4.863-9.185,7.148-14.539c-0.019-0.087-0.042-0.175-0.06-0.262c-0.194-0.069-0.382-0.165-0.56-0.265
					c-0.13-0.073-0.255-0.158-0.381-0.24c0.001,0.002,0.003,0.004,0.004,0.006c0.211,0.442,0.207,0.757,0.116,0.791
					c-0.191,0.083-0.683-0.906-1.78-1.431c-1.088-0.541-2.167-0.319-2.22-0.521c-0.029-0.092,0.216-0.29,0.691-0.397
					c0.381-0.088,0.92-0.084,1.474,0.095c-2.094-2.222-3.635-5.528-4.751-8.106c0.175,1.293,2.396,5.354,2.57,6.647
					c-1.926-1.491-3.906-3.725-5.646-6.259c-0.147,0.001-0.304-0.008-0.472-0.032c-0.625-0.087-1.354-0.427-1.947-1.006
					c-0.603-0.573-1.084-1.34-1.474-2.167c-0.618-1.299-0.903-2.598-1.003-3.675c-1.318,3.468-4.091,8.434-9.583,10.769
					c-0.761-0.538-1.647-0.919-2.576-0.99c-0.954-0.073-1.951,0.198-2.671,0.828c-0.722,0.632-1.123,1.58-1.209,2.536
					c-0.087,0.956,0.117,1.919,0.452,2.819c0.216,0.582,0.504,1.149,0.929,1.597c-0.643,0.693-1.338,1.366-2.071,1.993
					c0.264,0.354,0.653,0.629,1.138,0.704c0.687,0.124,1.32-0.179,1.675-0.674c0.368-0.493,0.472-1.077,0.427-1.559
					c-0.102-0.985-0.555-1.531-0.455-1.596c0.042-0.059,0.683,0.366,0.959,1.521c0.125,0.565,0.067,1.339-0.388,2.016
					c-0.42,0.69-1.393,1.192-2.339,1.003c-0.627-0.092-1.156-0.454-1.51-0.907l-3.741,8.562l-3.726,8.527l-1.27,2.906
					C264.716,217.627,264.649,217.826,264.577,218.023z M301.027,193.808c0.244-0.591,0.908-0.877,1.483-0.64
					c0.576,0.238,0.845,0.909,0.601,1.5c-0.244,0.591-0.908,0.876-1.484,0.638C301.053,195.07,300.783,194.399,301.027,193.808z
					 M294.853,201.002c0.294,0.103,0.586,0.171,0.726-0.013c0.165-0.187,0.195-0.57,0.219-0.987c0.068-0.859,0.14-1.759,0.215-2.703
					c0.335-3.835,0.723-6.934,0.867-6.924c0.145,0.01-0.009,3.127-0.344,6.962c-0.089,0.942-0.173,1.841-0.256,2.701
					c-0.05,0.395-0.044,0.873-0.392,1.258c-0.177,0.19-0.457,0.255-0.66,0.221c-0.206-0.027-0.365-0.1-0.507-0.157
					c-1.139-0.47-1.831-0.797-1.805-0.866C292.943,200.422,293.681,200.623,294.853,201.002z M292.768,188.306
					c0.21,0.442,0.207,0.757,0.116,0.791c-0.191,0.083-0.684-0.907-1.78-1.431c-1.088-0.541-2.167-0.319-2.221-0.521
					c-0.029-0.092,0.215-0.29,0.691-0.397c0.469-0.109,1.177-0.092,1.858,0.239C292.113,187.321,292.564,187.869,292.768,188.306z
					 M290.992,189.418c-0.244,0.591-0.908,0.876-1.484,0.639c-0.575-0.237-0.844-0.908-0.6-1.499
					c0.244-0.591,0.908-0.877,1.483-0.64C290.967,188.156,291.236,188.828,290.992,189.418z M289.086,200.523
					c0.025-0.252,0.068-0.488,0.136-0.677c0.198-0.56,0.474-0.815,0.552-0.768c0.123,0.05-0.093,0.656-0.066,1.472
					c0.353,0.088,0.684,0.28,0.94,0.542c0.543,0.556,0.777,1.396,0.601,2.153l0.001,0.07c-0.004,0.021-0.025,0.034-0.033,0.054
					c0.374,0.288,0.662,0.444,0.628,0.532c-0.02,0.089-0.395,0.114-0.937-0.128c-0.074-0.033-0.155-0.086-0.234-0.13
					c-0.092-0.006-0.185-0.021-0.276-0.038c-0.596-0.116-1.208-0.252-1.702-0.604c-0.494-0.353-0.842-0.98-0.688-1.567
					C288.135,200.949,288.592,200.605,289.086,200.523z M277.154,192.98c-0.329-0.274-0.541-0.774-0.571-1.289
					c-0.028-0.522,0.041-1.048,0.235-1.611c0.194-0.557,0.579-1.065,1.06-1.332c0.471-0.28,1.04-0.31,1.428-0.139
					c0.809,0.356,0.799,1.026,0.701,1c-0.094,0.035-0.272-0.396-0.855-0.515c-0.546-0.142-1.362,0.32-1.655,1.231
					c-0.314,0.921-0.351,1.88,0.022,2.298c0.37,0.474,0.824,0.414,0.845,0.51C278.445,193.21,277.835,193.553,277.154,192.98z"/>
				<path style="fill:#263238;" d="M301.628,195.307c0.576,0.238,1.24-0.048,1.484-0.638c0.244-0.591-0.025-1.262-0.601-1.5
					c-0.575-0.237-1.239,0.049-1.483,0.64C300.783,194.399,301.053,195.07,301.628,195.307z"/>
				<path style="fill:#263238;" d="M288.909,188.558c-0.244,0.591,0.026,1.261,0.6,1.499c0.576,0.238,1.24-0.048,1.484-0.639
					c0.244-0.591-0.025-1.262-0.601-1.5C289.817,187.681,289.152,187.967,288.909,188.558z"/>
				<path style="fill:#263238;" d="M289.575,186.749c-0.476,0.107-0.72,0.304-0.691,0.397c0.053,0.203,1.133-0.02,2.221,0.521
					c1.096,0.524,1.589,1.514,1.78,1.431c0.091-0.034,0.094-0.35-0.116-0.791c-0.204-0.437-0.655-0.986-1.336-1.319
					C290.752,186.656,290.043,186.64,289.575,186.749z"/>
				<path style="fill:#263238;" d="M294.722,201.358c0.142,0.058,0.301,0.13,0.507,0.157c0.203,0.034,0.482-0.031,0.66-0.221
					c0.348-0.385,0.342-0.863,0.392-1.258c0.082-0.859,0.166-1.758,0.256-2.701c0.335-3.835,0.488-6.952,0.344-6.962
					c-0.145-0.01-0.533,3.089-0.867,6.924c-0.075,0.944-0.146,1.844-0.215,2.703c-0.024,0.418-0.054,0.8-0.219,0.987
					c-0.14,0.184-0.432,0.116-0.726,0.013c-1.172-0.379-1.911-0.58-1.936-0.51C292.891,200.561,293.582,200.888,294.722,201.358z"/>
				<path style="fill:#D78776;" d="M278.092,206.693c0,0-0.088,7.143,8.218,10.167l1.024-1.976
					C287.334,214.884,281.827,212.683,278.092,206.693z"/>
				<path style="fill:#D78776;" d="M288.696,202.999c0.494,0.353,1.106,0.488,1.702,0.604c0.091,0.018,0.183,0.032,0.276,0.038
					c-0.488-0.277-1.035-0.774-1.353-1.513c-0.241-0.564-0.283-1.125-0.235-1.606c-0.494,0.082-0.951,0.426-1.078,0.909
					C287.854,202.019,288.202,202.647,288.696,202.999z"/>
				<path style="fill:#D78776;" d="M291.217,203.368c0.008-0.02,0.029-0.032,0.033-0.054l-0.001-0.07
					c0.176-0.757-0.058-1.596-0.601-2.153c-0.256-0.262-0.587-0.454-0.94-0.542c0.013,0.395,0.078,0.836,0.275,1.294
					C290.297,202.579,290.809,203.053,291.217,203.368z"/>
				<path style="fill:#263238;" d="M289.321,202.129c0.319,0.739,0.866,1.236,1.353,1.513c0.079,0.045,0.16,0.098,0.234,0.13
					c0.542,0.242,0.917,0.217,0.937,0.128c0.034-0.088-0.254-0.244-0.628-0.532c-0.409-0.315-0.92-0.789-1.234-1.524
					c-0.197-0.458-0.262-0.899-0.275-1.294c-0.026-0.816,0.19-1.422,0.066-1.472c-0.078-0.047-0.355,0.208-0.552,0.768
					c-0.068,0.188-0.111,0.425-0.136,0.677C289.038,201.003,289.08,201.565,289.321,202.129z"/>
				<path style="fill:#D78776;" d="M278.363,193.133c-0.021-0.095-0.475-0.036-0.845-0.51c-0.373-0.418-0.336-1.377-0.022-2.298
					c0.293-0.911,1.11-1.373,1.655-1.231c0.583,0.119,0.761,0.55,0.855,0.515c0.098,0.026,0.109-0.645-0.701-1
					c-0.387-0.171-0.957-0.141-1.428,0.139c-0.481,0.266-0.865,0.775-1.06,1.332c-0.194,0.563-0.263,1.089-0.235,1.611
					c0.03,0.516,0.242,1.016,0.571,1.289C277.835,193.553,278.445,193.21,278.363,193.133z"/>
				<path style="fill:#263238;" d="M275.048,198.344c0.946,0.189,1.919-0.313,2.339-1.003c0.455-0.677,0.513-1.451,0.388-2.016
					c-0.276-1.154-0.917-1.579-0.959-1.521c-0.101,0.065,0.352,0.61,0.455,1.596c0.045,0.483-0.059,1.066-0.427,1.559
					c-0.355,0.496-0.988,0.799-1.675,0.674c-0.485-0.075-0.873-0.35-1.138-0.704c0.733-0.627,1.429-1.3,2.071-1.993
					c-0.425-0.448-0.713-1.015-0.929-1.597c-0.335-0.9-0.539-1.863-0.452-2.819c0.087-0.956,0.487-1.904,1.209-2.536
					c0.721-0.63,1.717-0.901,2.671-0.828c0.929,0.071,1.815,0.452,2.576,0.99c5.493-2.335,8.266-7.301,9.583-10.769
					c0.099,1.077,0.385,2.376,1.003,3.675c0.391,0.827,0.871,1.594,1.474,2.167c0.593,0.579,1.322,0.919,1.947,1.006
					c0.169,0.024,0.326,0.033,0.472,0.032c1.74,2.534,3.72,4.768,5.646,6.259c-0.175-1.293-2.396-5.354-2.57-6.647
					c1.116,2.578,2.658,5.884,4.751,8.106c-0.554-0.179-1.093-0.183-1.474-0.095c-0.475,0.107-0.72,0.304-0.691,0.397
					c0.053,0.203,1.133-0.02,2.22,0.521c1.097,0.525,1.589,1.514,1.78,1.431c0.091-0.034,0.095-0.349-0.116-0.791
					c-0.001-0.002-0.003-0.004-0.004-0.006c0.126,0.082,0.252,0.167,0.381,0.24c0.178,0.1,0.366,0.197,0.56,0.265
					c0.018,0.087,0.041,0.175,0.06,0.262c-2.284,5.355-4.955,11.136-7.148,14.539c-5.142,7.982-11.719,6.144-11.719,6.144
					s-0.562,1.183-1.395,2.957c0.489,0.248,1.007,0.435,1.564,0.522c2.568,0.404,5.134-1.258,7.699-0.833
					c4.439,0.736,6.031,6.959,10.345,8.239c2.395,0.711,4.975-0.348,7.007-1.802c0.87-0.623,1.708-1.406,2.275-2.305
					c0.684-0.235,1.27-0.555,1.754-0.911c1.37-1.018,2.026-2.286,2.264-3.36c0.238-1.084,0.027-1.969-0.32-2.473
					c-0.347-0.514-0.794-0.676-1.207-0.652c-0.843,0.084-1.65,0.667-2.54,0.615c-0.422-0.004-0.872-0.087-1.138-0.334
					c-0.046-0.045-0.072-0.098-0.098-0.151l-0.003-0.216l0-0.012l0.001-0.042l0.013-0.115c0.012-0.085,0.049-0.231,0.086-0.325
					c0.047-0.133,0.089-0.263,0.14-0.381c0.03-0.064,0.055-0.115,0.097-0.165c0.001-0.001,0.002-0.002,0.003-0.003l0.267-0.089
					l0.036-0.013c0.055-0.021,0.09-0.032,0.141-0.062c0.091-0.051,0.181-0.142,0.295-0.253c0.109-0.11,0.247-0.233,0.373-0.315
					c0.333-0.303,0.674-0.612,1.02-0.927c0.53-0.492,1.25-1.131,2.095-2.105c0.833-0.976,1.844-2.381,2.433-4.28
					c0.598-1.857,0.601-3.873,0.283-5.418c-0.307-1.571-0.819-2.769-1.292-3.744c-0.185-0.368-0.363-0.698-0.537-1.012
					c0.057-1.539-0.2-3.253-0.98-4.851c-0.812-1.694-2.015-2.997-2.971-4.23c-0.464-0.577-0.871-1.144-1.219-1.699
					c-0.238-0.767-0.435-1.46-0.622-2.088c-0.024-1.031-0.216-2.196-0.576-3.299c0.014-0.078,0.022-0.134,0.007-0.139
					c-0.005-0.002-0.021,0.019-0.039,0.049c-0.295-0.878-0.695-1.711-1.226-2.392c-1.355-2.49-3.879-4.219-6.424-5.551
					c-2.356-1.233-4.896-2.27-7.554-2.332c-1.366-0.032-2.769,0.241-4.009,0.812c-9.402-4.8-14.418,2.848-17.086,8.804
					c-1.108,1.452-2.219,3.095-3.205,4.938c-2.125,3.972-3.011,8.057-3.031,10.998c-0.003,0.179,0.003,0.341,0.004,0.511
					c-1.258,2.551-2.373,4.327-2.648,5.176c-0.511,1.576-0.493,3.411,0.445,4.776c0.504,0.732,1.171,1.229,1.935,1.594l3.741-8.562
					C273.892,197.89,274.421,198.252,275.048,198.344z M295.287,183.727c-1.078-0.229-2.169-1.394-2.872-2.982
					c-0.833-1.743-1.109-3.424-1.227-4.586c0.047-0.147,0.092-0.289,0.133-0.426c0.876,2.657,2.299,5.458,3.981,7.997
					C295.297,183.729,295.292,183.729,295.287,183.727z M313.547,214.606l0.001,0.04l0,0.01l0,0.005l-0.001-0.062
					C313.547,214.601,313.547,214.604,313.547,214.606z M313.624,213.225l-0.028,0.008l0.065-0.021L313.624,213.225z
					 M314.663,186.135c0.949,1.263,2.117,2.559,2.881,4.162c0.599,1.225,0.885,2.529,0.957,3.765
					c-0.53-0.887-0.976-1.539-1.293-2.09c-1.166-1.991-2.042-4.041-2.663-5.712c-0.073-0.195-0.132-0.37-0.198-0.556
					C314.454,185.848,314.552,185.992,314.663,186.135z M273.551,183.188c0.587-1.099,1.219-2.126,1.864-3.093
					c-0.461,1.158-0.824,2.154-1.108,2.842c-0.355,0.859-0.739,2.02-1.128,3.331l0,0c0,0.002-0.001,0.004-0.002,0.006
					c-0.141,0.475-0.283,0.972-0.424,1.48c-0.686,2.243-1.508,4.218-2.303,5.901C270.612,190.795,271.534,186.961,273.551,183.188z"
					/>
			</g>
			<g>
				<g>
					<path style="fill:#E8505B;" d="M373.809,184.584c-1.863,10.735-12.075,17.927-22.81,16.064
						c-5.523-0.958-10.104-4.13-13.001-8.444l-9.347,1.449l6.33-8.799c-0.424-2.255-0.462-4.623-0.046-7.017
						c1.862-10.734,12.075-17.927,22.81-16.064C368.48,163.637,375.672,173.849,373.809,184.584z"/>
				</g>
				<g>
					<path style="fill:#FFFFFF;" d="M354.945,175.175l-0.119,12.102l-2.248-0.022l0.051-5.187l-6.258-0.061l-0.051,5.187
						l-2.247-0.023l0.119-12.102l2.248,0.022l-0.049,4.996l6.258,0.061l0.049-4.996L354.945,175.175z"/>
					<path style="fill:#FFFFFF;" d="M357.696,175.254c0.007-0.726,0.601-1.29,1.396-1.282c0.795,0.007,1.378,0.549,1.371,1.257
						c-0.007,0.761-0.583,1.344-1.396,1.336C358.271,176.557,357.689,175.98,357.696,175.254z M357.962,178.075l2.161,0.021
						l-0.091,9.231l-2.161-0.02L357.962,178.075z"/>
					<path style="fill:#FFFFFF;" d="M362.483,186.124c0.007-0.743,0.601-1.325,1.414-1.317c0.795,0.008,1.36,0.601,1.353,1.344
						c-0.007,0.743-0.583,1.344-1.379,1.336C363.058,187.479,362.476,186.867,362.483,186.124z M362.71,175.251l2.559,0.025
						l-0.511,8.086l-1.711-0.017L362.71,175.251z"/>
				</g>
			</g>
		</g>
	</g>
</g>
</svg>
