<?xml version="1.0" encoding="utf-8"?>
<!-- Generator: Adobe Illustrator 27.5.0, SVG Export Plug-In . SVG Version: 6.00 Build 0)  -->
<svg version="1.1" xmlns="http://www.w3.org/2000/svg" xmlns:xlink="http://www.w3.org/1999/xlink" x="0px" y="0px"
	 viewBox="0 0 500 500" style="enable-background:new 0 0 500 500;" xml:space="preserve">
<g id="Background_Complete">
	<g>
		<path style="fill:#F5F5F5;" d="M237.303,59.278c0.749-5.442-6.931-9.918-12.701-10.383c-2.752-0.222-5.61,0.199-8.217-0.71
			c-5.648-1.969-7.905-9.266-13.416-11.591c-4.12-1.738-8.864-0.191-12.859,1.82c-3.995,2.01-7.942,4.541-12.405,4.826
			c-3.882,0.248-8.098-1.191-11.494,0.705c-2.531,1.413-3.857,4.329-6.189,6.05c-2.282,1.683-5.259,2.04-8.091,2.194
			c-2.832,0.154-5.763,0.183-8.341,1.363c-2.578,1.181-4.711,3.907-4.176,6.692L237.303,59.278z"/>
	</g>
	<g>
		<path style="fill:#F5F5F5;" d="M104.865,163.076c0.589-4.277-5.448-7.796-9.984-8.162c-2.163-0.174-4.41,0.156-6.46-0.558
			c-4.44-1.548-6.214-7.284-10.546-9.111c-3.239-1.366-6.968-0.15-10.108,1.43c-3.14,1.58-6.243,3.569-9.751,3.794
			c-3.051,0.195-6.365-0.936-9.035,0.554c-1.99,1.111-3.032,3.403-4.865,4.756c-1.794,1.323-4.134,1.603-6.36,1.724
			s-4.53,0.143-6.557,1.072c-2.027,0.928-3.704,3.071-3.283,5.26L104.865,163.076z"/>
	</g>
	<g>
		<path style="fill:#F5F5F5;" d="M292.073,271.883c0.589-4.277-5.448-7.796-9.984-8.162c-2.163-0.174-4.41,0.156-6.46-0.558
			c-4.44-1.548-6.214-7.284-10.546-9.111c-3.239-1.366-6.968-0.15-10.108,1.43c-3.14,1.58-6.243,3.569-9.751,3.794
			c-3.051,0.195-6.365-0.936-9.035,0.554c-1.99,1.111-3.032,3.403-4.865,4.756c-1.794,1.323-4.134,1.603-6.36,1.724
			c-2.226,0.121-4.53,0.143-6.557,1.072c-2.027,0.928-3.704,3.071-3.283,5.26L292.073,271.883z"/>
	</g>
	<g>
		<g>
			<rect x="295.035" y="326.433" style="fill:#E0E0E0;" width="0.63" height="33.576"/>
		</g>
		<g>
			<rect x="284.357" y="326.949" style="fill:#E0E0E0;" width="0.63" height="33.575"/>
		</g>
		<g>
			<rect x="273.681" y="326.342" style="fill:#E0E0E0;" width="0.63" height="33.575"/>
		</g>
		<g>
			<rect x="263.003" y="326.949" style="fill:#E0E0E0;" width="0.63" height="33.575"/>
		</g>
		<g>
			<g>
				<g>
					<rect x="262.612" y="353.032" style="fill:#EBEBEB;" width="76.578" height="127.26"/>
				</g>
				<g>
					<rect x="303.284" y="353.032" style="fill:#E0E0E0;" width="35.906" height="127.26"/>
				</g>
			</g>
			<g>
				<g>
					<rect x="278.669" y="366.707" style="fill:#F5F5F5;" width="6.885" height="16.728"/>
				</g>
				<g>
					<rect x="278.669" y="432.178" style="fill:#F5F5F5;" width="6.885" height="16.728"/>
				</g>
				<g>
					<g>
						<path style="fill:#F5F5F5;" d="M303.284,390c0,0.188-9.105,0.34-20.335,0.34c-11.234,0-20.337-0.152-20.337-0.34
							c0-0.188,9.103-0.34,20.337-0.34C294.179,389.66,303.284,389.812,303.284,390z"/>
					</g>
				</g>
			</g>
			<g>
				<g>
					<rect x="278.669" y="399.69" style="fill:#F5F5F5;" width="6.885" height="16.728"/>
				</g>
				<g>
					<g>
						<path style="fill:#F5F5F5;" d="M303.284,422.984c0,0.188-9.105,0.34-20.335,0.34c-11.234,0-20.337-0.152-20.337-0.34
							c0-0.188,9.103-0.34,20.337-0.34C294.179,422.644,303.284,422.796,303.284,422.984z"/>
					</g>
				</g>
			</g>
			<g>
				<rect x="310.909" y="366.707" style="fill:#F5F5F5;" width="6.885" height="16.728"/>
			</g>
			<g>
				<rect x="325.847" y="366.707" style="fill:#F5F5F5;" width="6.885" height="16.728"/>
			</g>
			<g>
				<rect x="310.909" y="398.449" style="fill:#F5F5F5;" width="6.885" height="16.728"/>
			</g>
			<g>
				<rect x="325.847" y="398.449" style="fill:#F5F5F5;" width="6.885" height="16.728"/>
			</g>
			<g>
				<rect x="310.909" y="430.192" style="fill:#F5F5F5;" width="6.885" height="16.728"/>
			</g>
			<g>
				<rect x="325.847" y="430.192" style="fill:#F5F5F5;" width="6.885" height="16.728"/>
			</g>
		</g>
		<g>
			<polygon style="fill:#E0E0E0;" points="303.284,354.762 303.284,345.658 310.909,345.658 310.909,340.66 321.237,340.66 
				321.237,336.198 339.19,336.198 339.19,354.048 			"/>
		</g>
		<g>
			<rect x="302.942" y="321.375" style="fill:#E0E0E0;" width="0.63" height="33.575"/>
		</g>
		<g>
			<rect x="310.594" y="321.375" style="fill:#E0E0E0;" width="0.63" height="33.575"/>
		</g>
		<g>
			<rect x="320.922" y="316.646" style="fill:#E0E0E0;" width="0.63" height="33.575"/>
		</g>
		<g>
			<rect x="338.345" y="316.646" style="fill:#E0E0E0;" width="0.63" height="33.575"/>
		</g>
		<g>
			<rect x="329.633" y="316.646" style="fill:#E0E0E0;" width="0.63" height="33.575"/>
		</g>
		<g>
			<rect x="263.605" y="344.074" style="fill:#E0E0E0;" width="39.679" height="0.63"/>
		</g>
		<g>
			<rect x="263.687" y="335.883" style="fill:#E0E0E0;" width="57.632" height="0.63"/>
		</g>
	</g>
	<g>
		<g>
			<rect x="398.662" y="255.67" style="fill:#E0E0E0;" width="0.921" height="49.06"/>
		</g>
		<g>
			<rect x="383.061" y="256.424" style="fill:#E0E0E0;" width="0.921" height="49.059"/>
		</g>
		<g>
			<rect x="367.46" y="255.538" style="fill:#E0E0E0;" width="0.921" height="49.059"/>
		</g>
		<g>
			<rect x="351.859" y="256.424" style="fill:#E0E0E0;" width="0.921" height="49.059"/>
		</g>
		<g>
			<g>
				<g>
					<rect x="351.287" y="294.535" style="fill:#EBEBEB;" width="111.893" height="185.756"/>
				</g>
				<g>
					<rect x="410.716" y="294.535" style="fill:#E0E0E0;" width="52.464" height="185.756"/>
				</g>
			</g>
			<g>
				<g>
					<rect x="374.748" y="314.517" style="fill:#F5F5F5;" width="10.061" height="24.443"/>
				</g>
				<g>
					<rect x="374.748" y="410.181" style="fill:#F5F5F5;" width="10.061" height="24.443"/>
				</g>
				<g>
					<g>
						<path style="fill:#F5F5F5;" d="M410.716,348.553c0,0.275-13.304,0.497-29.713,0.497c-16.414,0-29.716-0.223-29.716-0.497
							c0-0.275,13.302-0.497,29.716-0.497C397.411,348.055,410.716,348.278,410.716,348.553z"/>
					</g>
				</g>
			</g>
			<g>
				<g>
					<rect x="374.748" y="362.712" style="fill:#F5F5F5;" width="10.061" height="24.443"/>
				</g>
				<g>
					<g>
						<path style="fill:#F5F5F5;" d="M410.716,396.748c0,0.275-13.304,0.497-29.713,0.497c-16.414,0-29.716-0.223-29.716-0.497
							c0-0.274,13.302-0.497,29.716-0.497C397.411,396.251,410.716,396.474,410.716,396.748z"/>
					</g>
				</g>
				<g>
					<g>
						<path style="fill:#F5F5F5;" d="M410.716,447.526c0,0.275-13.304,0.497-29.713,0.497c-16.414,0-29.716-0.223-29.716-0.497
							c0-0.274,13.302-0.497,29.716-0.497C397.411,447.028,410.716,447.251,410.716,447.526z"/>
					</g>
				</g>
			</g>
			<g>
				<rect x="421.857" y="314.517" style="fill:#F5F5F5;" width="10.06" height="24.443"/>
			</g>
			<g>
				<rect x="443.683" y="314.517" style="fill:#F5F5F5;" width="10.061" height="24.443"/>
			</g>
			<g>
				<rect x="421.857" y="360.898" style="fill:#F5F5F5;" width="10.06" height="24.443"/>
			</g>
			<g>
				<rect x="443.683" y="360.898" style="fill:#F5F5F5;" width="10.061" height="24.443"/>
			</g>
			<g>
				<rect x="421.857" y="407.279" style="fill:#F5F5F5;" width="10.06" height="24.443"/>
			</g>
			<g>
				<rect x="443.683" y="407.279" style="fill:#F5F5F5;" width="10.061" height="24.443"/>
			</g>
		</g>
		<g>
			<polygon style="fill:#E0E0E0;" points="410.716,297.063 410.716,283.762 421.857,283.762 421.857,276.459 436.948,276.459 
				436.948,269.938 463.18,269.938 463.18,296.02 			"/>
		</g>
		<g>
			<rect x="410.216" y="248.28" style="fill:#E0E0E0;" width="0.921" height="49.059"/>
		</g>
		<g>
			<rect x="421.396" y="248.28" style="fill:#E0E0E0;" width="0.921" height="49.059"/>
		</g>
		<g>
			<rect x="436.488" y="241.37" style="fill:#E0E0E0;" width="0.921" height="49.059"/>
		</g>
		<g>
			<rect x="461.946" y="241.37" style="fill:#E0E0E0;" width="0.921" height="49.059"/>
		</g>
		<g>
			<rect x="449.216" y="241.37" style="fill:#E0E0E0;" width="0.921" height="49.059"/>
		</g>
		<g>
			<rect x="352.737" y="281.446" style="fill:#E0E0E0;" width="57.978" height="0.921"/>
		</g>
		<g>
			<rect x="352.858" y="269.478" style="fill:#E0E0E0;" width="84.211" height="0.921"/>
		</g>
	</g>
	<g>
		<g>
			<rect x="65.583" y="318.715" style="fill:#E0E0E0;" width="0.794" height="42.319"/>
		</g>
		<g>
			<rect x="52.125" y="319.365" style="fill:#E0E0E0;" width="0.794" height="42.319"/>
		</g>
		<g>
			<rect x="38.668" y="318.601" style="fill:#E0E0E0;" width="0.794" height="42.319"/>
		</g>
		<g>
			<rect x="25.21" y="319.365" style="fill:#E0E0E0;" width="0.794" height="42.319"/>
		</g>
		<g>
			<g>
				<g>
					<rect x="24.716" y="352.241" style="fill:#EBEBEB;" width="96.52" height="127.307"/>
				</g>
				<g>
					<rect x="75.98" y="352.241" style="fill:#E0E0E0;" width="45.256" height="127.307"/>
				</g>
			</g>
			<g>
				<g>
					<rect x="44.955" y="369.477" style="fill:#F5F5F5;" width="8.678" height="21.085"/>
				</g>
				<g>
					<rect x="44.955" y="451.998" style="fill:#F5F5F5;" width="8.678" height="21.085"/>
				</g>
				<g>
					<g>
						<path style="fill:#F5F5F5;" d="M75.98,398.836c0,0.237-11.477,0.429-25.631,0.429c-14.159,0-25.633-0.192-25.633-0.429
							c0-0.237,11.474-0.429,25.633-0.429C64.504,398.408,75.98,398.6,75.98,398.836z"/>
					</g>
				</g>
			</g>
			<g>
				<g>
					<rect x="44.955" y="411.05" style="fill:#F5F5F5;" width="8.678" height="21.085"/>
				</g>
				<g>
					<g>
						<path style="fill:#F5F5F5;" d="M75.98,440.41c0,0.237-11.477,0.429-25.631,0.429c-14.159,0-25.633-0.192-25.633-0.429
							c0-0.237,11.474-0.429,25.633-0.429C64.504,439.981,75.98,440.173,75.98,440.41z"/>
					</g>
				</g>
			</g>
			<g>
				<rect x="85.591" y="369.477" style="fill:#F5F5F5;" width="8.678" height="21.085"/>
			</g>
			<g>
				<rect x="104.419" y="369.477" style="fill:#F5F5F5;" width="8.679" height="21.085"/>
			</g>
			<g>
				<rect x="85.591" y="409.486" style="fill:#F5F5F5;" width="8.678" height="21.084"/>
			</g>
			<g>
				<rect x="104.419" y="409.486" style="fill:#F5F5F5;" width="8.679" height="21.084"/>
			</g>
			<g>
				<rect x="85.591" y="449.495" style="fill:#F5F5F5;" width="8.678" height="21.085"/>
			</g>
			<g>
				<rect x="104.419" y="449.495" style="fill:#F5F5F5;" width="8.679" height="21.085"/>
			</g>
		</g>
		<g>
			<polygon style="fill:#E0E0E0;" points="75.98,354.421 75.98,342.947 85.591,342.947 85.591,336.647 98.609,336.647 
				98.609,331.023 121.237,331.023 121.237,353.521 			"/>
		</g>
		<g>
			<rect x="75.55" y="312.34" style="fill:#E0E0E0;" width="0.794" height="42.319"/>
		</g>
		<g>
			<rect x="85.194" y="312.34" style="fill:#E0E0E0;" width="0.794" height="42.319"/>
		</g>
		<g>
			<rect x="98.212" y="306.379" style="fill:#E0E0E0;" width="0.794" height="42.319"/>
		</g>
		<g>
			<rect x="120.172" y="306.379" style="fill:#E0E0E0;" width="0.795" height="42.319"/>
		</g>
		<g>
			<rect x="109.192" y="306.379" style="fill:#E0E0E0;" width="0.794" height="42.319"/>
		</g>
		<g>
			<rect x="25.968" y="340.95" style="fill:#E0E0E0;" width="50.012" height="0.794"/>
		</g>
		<g>
			<rect x="26.072" y="330.625" style="fill:#E0E0E0;" width="72.641" height="0.794"/>
		</g>
	</g>
	<path style="fill:#EBEBEB;" d="M345.906,23.689c-61.693,0-111.705,50.012-111.705,111.705c0,32.584,13.954,61.905,36.209,82.325
		l-3.298,19.643l21.053-6.327c16.85,10.195,36.61,16.064,57.741,16.064c61.693,0,111.705-50.012,111.705-111.705
		S407.599,23.689,345.906,23.689z"/>
</g>
<g id="Background_Simple" style="display:none;">
	<path style="display:inline;fill:#F5F5F5;" d="M448.782,67.744l-1.435-2.364c-12.094-19.931-33.962-31.945-57.017-30.487
		c-2.964,0.187-5.914,0.589-8.826,1.212c-20.962,4.487-39.201,20.339-46.761,40.64c-4.446,11.939-5.688,25.686-14.126,35.163
		c-10.981,12.334-29.624,12.721-46.015,12.21c-16.391-0.511-35.046-0.075-45.974,12.307c-6.844,7.755-9.019,18.783-8.467,29.168
		c1.461,27.496,20.621,52.081,44.987,64.301c24.366,12.22,53.055,13.315,79.722,7.939c37.358-7.531,72.884-28.212,94.239-60.154
		C460.463,145.738,465.867,102.22,448.782,67.744z"/>
	
		<ellipse transform="matrix(0.1615 -0.9869 0.9869 0.1615 59.2919 615.6451)" style="display:inline;fill:#F5F5F5;" cx="391.932" cy="272.931" rx="25.931" ry="25.931"/>
</g>
<g id="Desk">
	<g>
		<path style="fill:#263238;" d="M476.154,480.292c0,0.144-101.708,0.26-227.143,0.26c-125.478,0-227.165-0.117-227.165-0.26
			c0-0.144,101.687-0.26,227.165-0.26C374.446,480.031,476.154,480.148,476.154,480.292z"/>
	</g>
</g>
<g id="Fence">
	<g>
		<g>
			<g>
				<g>
					<g>
						<rect x="299.331" y="369.077" style="fill:#263238;" width="6.705" height="111.726"/>
					</g>
				</g>
				<g>
					<path style="fill:#455A64;" d="M309.46,364.859c0,3.732-3.025,6.757-6.758,6.757c-3.732,0-6.758-3.025-6.758-6.757
						c0-3.732,3.025-6.758,6.758-6.758C306.434,358.102,309.46,361.127,309.46,364.859z"/>
				</g>
			</g>
			<g>
				<g>
					<g>
						<rect x="432.57" y="369.077" style="fill:#263238;" width="6.705" height="111.726"/>
					</g>
				</g>
				<g>
					<path style="fill:#455A64;" d="M442.698,364.859c0,3.732-3.025,6.757-6.757,6.757c-3.732,0-6.758-3.025-6.758-6.757
						c0-3.732,3.025-6.758,6.758-6.758C439.673,358.102,442.698,361.127,442.698,364.859z"/>
				</g>
			</g>
			<g>
				<g>
					<rect x="280.192" y="380.971" style="fill:#FF725E;" width="171.778" height="30.735"/>
				</g>
				<g>
					<polygon style="fill:#F5F5F5;" points="299.629,380.971 299.331,381.48 281.683,411.706 280.192,411.706 280.192,380.971 					
						"/>
				</g>
				<g>
					<polygon style="fill:#F5F5F5;" points="343.047,380.971 325.083,411.706 301.612,411.706 308.751,399.496 319.575,380.971 
											"/>
				</g>
				<g>
					<polygon style="fill:#F5F5F5;" points="386.448,380.971 368.484,411.706 345.012,411.706 362.976,380.971 					"/>
				</g>
				<g>
					<polygon style="fill:#F5F5F5;" points="429.846,380.978 411.878,411.706 388.41,411.706 406.378,380.978 					"/>
				</g>
				<g>
					<polygon style="fill:#F5F5F5;" points="451.971,380.978 451.971,411.706 431.811,411.706 449.779,380.978 					"/>
				</g>
			</g>
			<g>
				<g>
					<rect x="280.192" y="428.453" style="fill:#FF725E;" width="171.778" height="30.735"/>
				</g>
				<g>
					<polygon style="fill:#F5F5F5;" points="299.629,428.453 299.331,428.961 281.683,459.187 280.192,459.187 280.192,428.453 
											"/>
				</g>
				<g>
					<polygon style="fill:#F5F5F5;" points="343.047,428.453 325.083,459.187 301.612,459.187 308.751,446.978 319.575,428.453 
											"/>
				</g>
				<g>
					<polygon style="fill:#F5F5F5;" points="386.448,428.453 368.484,459.187 345.012,459.187 362.976,428.453 					"/>
				</g>
				<g>
					<polygon style="fill:#F5F5F5;" points="429.846,428.459 411.878,459.188 388.41,459.188 406.378,428.459 					"/>
				</g>
				<g>
					<polygon style="fill:#F5F5F5;" points="451.971,428.459 451.971,459.188 431.811,459.188 449.779,428.459 					"/>
				</g>
			</g>
		</g>
		<g>
			<g>
				<path style="fill:#263238;" d="M451.971,411.706c0,0-0.012-0.184-0.017-0.531c-0.004-0.363-0.01-0.872-0.018-1.537
					c-0.01-1.369-0.024-3.367-0.042-5.973c-0.023-5.232-0.057-12.891-0.1-22.694l0.178,0.178
					c-35.218,0.033-99.012,0.093-171.769,0.161h-0.01l0.34-0.34c-0.001,10.528-0.003,20.869-0.004,30.734l-0.336-0.335
					c48.637,0.059,91.534,0.111,122.291,0.148c15.389,0.042,27.738,0.075,36.262,0.098c4.25,0.02,7.542,0.035,9.796,0.046
					c1.107,0.01,1.956,0.017,2.549,0.022C451.665,411.691,451.971,411.706,451.971,411.706s-0.276,0.015-0.837,0.022
					c-0.583,0.005-1.417,0.013-2.506,0.022c-2.236,0.01-5.503,0.026-9.721,0.045c-8.506,0.023-20.828,0.056-36.185,0.098
					c-30.818,0.037-73.797,0.089-122.53,0.148l-0.336,0.001l0-0.337c-0.001-9.866-0.002-20.206-0.004-30.734v-0.34h0.34h0.01
					c72.757,0.068,136.552,0.128,171.769,0.161h0.18l-0.001,0.179c-0.043,9.848-0.077,17.543-0.1,22.799
					c-0.019,2.59-0.033,4.574-0.043,5.933c-0.008,0.652-0.014,1.15-0.018,1.506C451.982,411.545,451.971,411.706,451.971,411.706z"
					/>
			</g>
		</g>
		<g>
			<g>
				<path style="fill:#263238;" d="M451.971,459.187c0,0-0.012-0.184-0.017-0.53c-0.004-0.363-0.01-0.872-0.018-1.537
					c-0.01-1.369-0.024-3.366-0.042-5.973c-0.023-5.232-0.057-12.891-0.1-22.694l0.178,0.178
					c-35.218,0.033-99.012,0.093-171.769,0.161h-0.01l0.34-0.34c-0.001,10.528-0.003,20.869-0.004,30.734l-0.336-0.335
					c48.637,0.059,91.534,0.111,122.291,0.148c15.389,0.042,27.738,0.075,36.262,0.098c4.25,0.02,7.542,0.035,9.796,0.045
					c1.107,0.01,1.956,0.017,2.549,0.022C451.665,459.172,451.971,459.187,451.971,459.187s-0.276,0.015-0.837,0.023
					c-0.583,0.005-1.417,0.013-2.506,0.022c-2.236,0.01-5.503,0.026-9.721,0.045c-8.506,0.023-20.828,0.056-36.185,0.097
					c-30.818,0.037-73.797,0.089-122.53,0.148l-0.336,0l0-0.336c-0.001-9.866-0.002-20.206-0.004-30.734v-0.34h0.34h0.01
					c72.757,0.068,136.552,0.128,171.769,0.161h0.18l-0.001,0.179c-0.043,9.848-0.077,17.543-0.1,22.799
					c-0.019,2.589-0.033,4.574-0.043,5.933c-0.008,0.652-0.014,1.15-0.018,1.506C451.982,459.026,451.971,459.187,451.971,459.187z"
					/>
			</g>
		</g>
	</g>
</g>
<g id="Speech_Bubble">
	<g>
		<g>
			<g>
				<g>
					<g>
						<g>
							<g>
								<g>
									<g>
										<g>
											<path style="fill:#FFFFFF;" d="M97.359,106.892l-4.317-9.362c2.701-5.224,4.038-11.235,3.565-17.53
												C95.248,61.898,79.472,48.325,61.37,49.683c-18.102,1.358-31.676,17.135-30.317,35.237
												c1.359,18.102,17.135,31.675,35.237,30.317c7.559-0.567,14.322-3.655,19.544-8.37l-0.01,0.016L97.359,106.892z"/>
										</g>
									</g>
								</g>
							</g>
							<g>
								<g>
									<g>
										<g>
											<g>
												<path style="fill:#263238;" d="M97.359,106.892c0,0-0.266-0.01-0.767-0.016c-0.514-0.006-1.251-0.014-2.218-0.024
													c-1.952-0.017-4.82-0.04-8.549-0.071l0.086,0.159l0.01-0.015c0.032-0.047,0.018-0.111-0.029-0.142
													c-0.039-0.026-0.092-0.02-0.125,0.01c-3.2,2.851-7.975,5.996-14.356,7.491c-1.586,0.373-3.262,0.649-5.009,0.777
													c-1.75,0.045-3.562,0.155-5.419-0.067c-3.709-0.327-7.6-1.314-11.332-3.126c-3.729-1.804-7.292-4.429-10.273-7.814
													c-2.982-3.377-5.372-7.516-6.775-12.13c-2.887-9.187-1.341-20.38,5.026-28.876c3.242-4.304,7.414-7.833,12.126-10.01
													c4.682-2.229,9.765-3.275,14.677-3.208c4.923,0.047,9.64,1.315,13.752,3.327c4.121,2.021,7.636,4.827,10.382,8.007
													c2.754,3.181,4.736,6.731,6.015,10.27c0.152,0.446,0.303,0.889,0.452,1.327c0.158,0.437,0.3,0.874,0.386,1.323
													c0.206,0.889,0.409,1.763,0.608,2.623c0.209,1.751,0.502,3.434,0.508,5.075c0.157,6.578-1.668,11.968-3.581,15.703
													c-0.015,0.027-0.014,0.06-0.002,0.086c1.417,3.01,2.508,5.328,3.253,6.909c0.37,0.78,0.653,1.376,0.851,1.794
													C97.25,106.679,97.359,106.892,97.359,106.892s-0.079-0.195-0.257-0.593c-0.187-0.416-0.452-1.009-0.8-1.786
													c-0.726-1.607-1.79-3.964-3.172-7.023l-0.002,0.085c1.96-3.738,3.836-9.159,3.712-15.799
													c0.002-1.656-0.285-3.356-0.49-5.125c-0.198-0.869-0.399-1.753-0.603-2.652c-0.086-0.454-0.228-0.897-0.385-1.339
													c-0.15-0.444-0.3-0.892-0.452-1.343c-1.279-3.582-3.272-7.179-6.049-10.406c-2.77-3.225-6.322-6.075-10.491-8.13
													c-4.161-2.046-8.941-3.339-13.93-3.393c-4.978-0.074-10.133,0.98-14.883,3.238c-4.78,2.205-9.013,5.781-12.3,10.147
													c-0.433,0.513-0.779,1.085-1.137,1.648l-1.067,1.686l-0.901,1.77c-0.306,0.586-0.606,1.172-0.824,1.794
													c-0.24,0.612-0.479,1.223-0.718,1.832c-0.256,0.603-0.378,1.25-0.572,1.87c-0.167,0.629-0.377,1.245-0.506,1.879
													c-0.114,0.637-0.227,1.273-0.34,1.906c-0.835,5.079-0.464,10.23,0.987,14.895c1.428,4.675,3.857,8.867,6.884,12.281
													c3.026,3.422,6.639,6.072,10.419,7.887c3.782,1.823,7.721,2.809,11.472,3.126c1.878,0.217,3.709,0.1,5.476,0.046
													c1.764-0.137,3.455-0.423,5.054-0.807c6.435-1.541,11.229-4.743,14.423-7.64l-0.155-0.132l-0.01,0.015
													c-0.031,0.047-0.018,0.111,0.028,0.142c0.017,0.012,0.038,0.017,0.057,0.017c3.762-0.025,6.654-0.044,8.623-0.057
													c0.954-0.009,1.681-0.016,2.188-0.021C97.123,106.902,97.359,106.892,97.359,106.892z"/>
											</g>
										</g>
									</g>
								</g>
							</g>
						</g>
					</g>
				</g>
			</g>
		</g>
		<g>
			<g>
				<g>
					<g>
						<g>
							<g>
								<polygon style="fill:#FF725E;" points="48.001,83.348 52.592,78.271 62.331,86.088 76.797,69.475 81.529,74.083 
									62.11,95.445 								"/>
							</g>
						</g>
					</g>
				</g>
			</g>
		</g>
	</g>
</g>
<g id="Construction_Hat">
	<g>
		<g>
			<path style="fill:#455A64;" d="M375.372,173.958c0.321-0.41,28.928-7.374,33.321-8.445c4.393-1.071,6.857-2.357,9.964,0
				c3.107,2.357,16.463,21.428,18.41,21.107c1.947-0.321,6.661-1.179,7.09-7.393c0.429-6.214,1.286-21.321,1.286-21.321
				l-8.375-5.357c0,0-45.839,6.857-46.16,6.964c-0.321,0.107-15.536,11.143-15.536,11.143V173.958z"/>
			<g>
				<path style="fill:#FF725E;" d="M398.787,158.374l-11.142,2.202c0,0,0.35,13.393,7.1,13.324
					c6.751-0.07,7.169-15.206,7.169-15.206L398.787,158.374z M395.772,170.952c-0.903,0-1.635-0.877-1.635-1.959
					c0-1.082,0.732-1.959,1.635-1.959c0.903,0,1.635,0.877,1.635,1.959C397.407,170.075,396.675,170.952,395.772,170.952z"/>
				<path style="opacity:0.3;" d="M398.751,158.359l-11.142,2.202c0,0,0.35,13.393,7.1,13.324c6.751-0.07,7.169-15.206,7.169-15.206
					L398.751,158.359z M395.736,170.937c-0.903,0-1.635-0.877-1.635-1.959c0-1.082,0.732-1.959,1.635-1.959
					c0.903,0,1.635,0.877,1.635,1.959C397.371,170.06,396.639,170.937,395.736,170.937z"/>
				<path style="fill:#FF725E;" d="M400.261,158.359l-11.142,2.202c0,0,0.35,13.393,7.1,13.324
					c6.751-0.07,7.169-15.206,7.169-15.206L400.261,158.359z M397.246,170.937c-0.903,0-1.635-0.877-1.635-1.959
					c0-1.082,0.732-1.959,1.635-1.959s1.635,0.877,1.635,1.959C398.881,170.06,398.149,170.937,397.246,170.937z"/>
			</g>
			<path style="fill:#FF725E;" d="M217.485,178.775c0,0-3.428,6.8,18.546,15.455c21.864,8.612,40.626,14.963,86.039,6.403
				c45.413-8.56,50.676-25.662,68.746-36.361c0,0,44.938-8.322,47.315-7.609c2.378,0.713,6.657,11.175,15.217,10.937
				c8.559-0.238,11.888-3.566,13.315-8.56c1.427-4.993-6.657-10.462-6.657-10.462s0-9.748-5.231-11.413
				c-5.231-1.664-5.231-1.664-5.231-1.664s-4.042-30.672-13.79-47.553c-9.748-16.881-14.979-27.581-39.944-38.28
				c0,0-24.728-19.734-59.679-10.699c-34.951,9.035-56.35,35.427-56.35,35.427s-21.286,26.486-25.565,67.382
				c0,0-6.729-0.831-7.533,1.657c-0.667,2.067-0.911,4.353-1.119,8.426l-0.258,4.565
				C245.303,156.425,216.164,172.862,217.485,178.775z"/>
			<path style="opacity:0.3;fill:#FFFFFF;" d="M291.962,70.044c0,0,7.389,0.487,9.419,3.329c0,0,4.339-15.722-1.624-15.753
				C295.128,57.597,291.962,70.044,291.962,70.044z"/>
			<g>
				<path style="fill:#263238;" d="M395.368,49.051c-0.005,0.008-0.087-0.032-0.248-0.109c-0.187-0.091-0.421-0.204-0.712-0.344
					c-0.631-0.291-1.562-0.718-2.792-1.194c-2.457-0.952-6.092-2.162-10.714-3.099c-4.611-0.961-10.209-1.683-16.434-1.792
					c-6.223-0.048-13.073,0.88-19.965,2.915c-6.898,2.029-13.172,4.917-18.497,8.138c-2.658,1.61-5.012,3.424-7.2,5.126
					c-2.182,1.713-4.174,3.364-5.976,4.889c-3.601,3.054-6.445,5.609-8.384,7.402c-0.969,0.897-1.711,1.604-2.202,2.095
					c-0.245,0.246-0.428,0.437-0.545,0.57c-0.121,0.134-0.147,0.206-0.157,0.213c-0.119-0.077,0.866-1.191,2.764-3.025
					c1.899-1.84,4.708-4.44,8.284-7.535c1.789-1.546,3.77-3.215,5.947-4.948c2.184-1.722,4.535-3.556,7.217-5.197
					c5.349-3.265,11.655-6.185,18.601-8.228c6.94-2.049,13.846-2.97,20.117-2.895c6.27,0.136,11.879,0.899,16.506,1.911
					c4.635,0.988,8.27,2.258,10.714,3.272c1.224,0.507,2.145,0.967,2.763,1.289c0.306,0.167,0.539,0.295,0.69,0.391
					C395.299,48.989,395.373,49.044,395.368,49.051z"/>
			</g>
			<g>
				<path style="fill:#263238;" d="M430.833,79.599c0,0-0.118-0.144-0.325-0.44c-0.216-0.313-0.519-0.752-0.91-1.318
					c-0.405-0.575-0.939-1.264-1.551-2.09c-0.656-0.793-1.378-1.735-2.28-2.721c-3.519-3.988-9.32-9.306-17.817-13.711
					c-4.216-2.228-9.11-4.173-14.593-5.358c-5.472-1.206-11.514-1.631-17.789-1.054c-6.27,0.656-12.821,1.88-19.281,4.192
					c-6.459,2.292-12.777,5.708-18.504,10.192c-5.758,4.461-10.57,9.774-14.77,15.199c-4.192,5.443-7.798,11.026-11.044,16.445
					c-3.259,5.41-5.816,10.858-7.958,16.045c-2.145,5.192-3.747,10.185-5.001,14.793c-2.543,9.219-3.608,16.908-4.33,22.203
					c-0.191,1.325-0.322,2.504-0.574,3.52c-0.291,0.973-0.34,1.873-0.072,2.514c0.255,0.65,0.74,0.965,1.049,1.119
					c0.323,0.155,0.509,0.183,0.506,0.193c0,0-0.191-0.003-0.529-0.145c-0.322-0.142-0.839-0.452-1.124-1.127
					c-0.298-0.666-0.26-1.604,0.02-2.597c0.229-0.99,0.347-2.18,0.521-3.503c0.66-5.303,1.671-13.017,4.175-22.273
					c1.235-4.627,2.822-9.642,4.956-14.859c2.131-5.212,4.684-10.688,7.946-16.128c3.241-5.438,6.847-11.039,11.052-16.511
					c4.212-5.452,9.05-10.801,14.852-15.296c5.769-4.518,12.144-7.961,18.654-10.263c6.512-2.323,13.105-3.543,19.409-4.189
					c6.327-0.569,12.416-0.123,17.925,1.11c5.52,1.211,10.447,3.193,14.672,5.453c4.246,2.236,7.835,4.711,10.792,7.11
					c2.944,2.421,5.253,4.768,7.006,6.793c0.894,1,1.606,1.955,2.251,2.76c0.6,0.839,1.122,1.539,1.514,2.125
					c0.373,0.579,0.662,1.028,0.868,1.349C430.746,79.435,430.833,79.599,430.833,79.599z"/>
			</g>
			<path style="opacity:0.3;" d="M427.976,76.084c-6.902-10.873-16.718-17.581-25.145-21.63c-9.427-4.53-19.915-6.284-30.326-5.286
				c-32.694,3.136-48.75,21.526-63.221,45.466c-16.307,26.978-17.113,53.955-18.119,57.378c-1.007,3.423,2.624,5.282,2.624,5.282
				s3.342-20.747,3.729-22.388c0.388-1.641,5.476-19.42,9.068-26.399c3.592-6.978,15.252-27.547,23.978-35.133
				c8.726-7.585,17.583-15.212,35.15-19.234c17.567-4.022,26.268-1.488,32.5,0.882c6.232,2.37,17.397,8.287,21.021,11.535
				C422.86,69.804,427.976,76.084,427.976,76.084z"/>
			<g>
				<path style="fill:#FF725E;" d="M377.727,140.456c0,0-0.006-2.388,3.648-3.072c3.653-0.684,49.611-7.298,51.436-7.184
					c1.825,0.114,3.763,1.939,4.105,3.991c0.342,2.053,0,14.711,0,14.711l-0.128,0.602c-0.603,2.842-2.869,5.034-5.731,5.537
					c-11.976,2.109-42.69,7.433-44.889,6.975c-2.737-0.57-4.794-2.052-4.794-2.052L377.727,140.456z"/>
				<g>
					<path style="fill:#263238;" d="M377.727,140.456c0.008-0.001,0.038,0.112,0.087,0.334c0.052,0.246,0.121,0.573,0.209,0.989
						c0.179,0.899,0.434,2.183,0.763,3.833c0.649,3.371,1.586,8.234,2.758,14.321l-0.068-0.108c0.715,0.485,1.527,0.91,2.38,1.269
						c0.852,0.328,1.784,0.705,2.721,0.742c1.922-0.047,4.015-0.397,6.156-0.675c4.299-0.618,8.949-1.368,13.885-2.184
						c4.933-0.839,10.154-1.727,15.593-2.651c2.718-0.475,5.491-0.96,8.309-1.453c1.403-0.182,2.717-0.723,3.782-1.651
						c1.061-0.913,1.838-2.168,2.176-3.547c0.073-0.268,0.126-0.567,0.185-0.827l-0.006,0.047c0.069-2.692,0.119-5.354,0.144-7.975
						c0.011-1.311,0.015-2.611-0.002-3.899c-0.01-0.643-0.021-1.286-0.058-1.917c-0.023-0.64-0.101-1.227-0.345-1.782
						c-0.462-1.108-1.356-2.042-2.412-2.548c-0.537-0.245-1.094-0.387-1.689-0.29c-0.586,0.037-1.212,0.126-1.812,0.185
						c-2.42,0.308-4.79,0.609-7.101,0.904c-9.231,1.273-17.54,2.418-24.525,3.381c-6.95,0.998-12.58,1.806-16.502,2.368
						c-0.973,0.141-1.826,0.303-2.509,0.613c-0.687,0.296-1.188,0.706-1.5,1.108C377.716,139.864,377.756,140.474,377.727,140.456
						c0,0-0.022-0.139,0.034-0.402c0.056-0.26,0.188-0.649,0.501-1.074c0.308-0.426,0.818-0.865,1.518-1.185
						c0.695-0.335,1.572-0.517,2.54-0.672c3.884-0.647,9.515-1.5,16.482-2.532c6.969-1.024,15.272-2.235,24.514-3.492
						c2.314-0.3,4.685-0.608,7.107-0.922c0.615-0.062,1.205-0.15,1.85-0.192c0.635-0.105,1.332,0.057,1.921,0.333
						c1.186,0.57,2.149,1.576,2.669,2.808c0.273,0.612,0.365,1.31,0.387,1.948c0.038,0.647,0.05,1.292,0.061,1.939
						c0.018,1.295,0.016,2.598,0.006,3.911c-0.023,2.626-0.072,5.289-0.141,7.985l-0.001,0.025l-0.005,0.022
						c-0.06,0.266-0.108,0.546-0.189,0.845c-0.364,1.483-1.2,2.833-2.342,3.815c-1.129,0.995-2.598,1.586-4.031,1.767
						c-2.819,0.49-5.593,0.972-8.312,1.444c-5.443,0.913-10.667,1.789-15.603,2.617c-4.94,0.801-9.595,1.533-13.904,2.131
						c-2.167,0.267-4.199,0.607-6.242,0.643c-1.044-0.058-1.947-0.443-2.834-0.788c-0.876-0.377-1.69-0.808-2.44-1.325l-0.056-0.039
						l-0.013-0.069c-1.107-6.105-1.992-10.982-2.605-14.363c-0.29-1.655-0.515-2.943-0.673-3.845
						c-0.068-0.418-0.122-0.747-0.162-0.994C377.732,140.572,377.718,140.457,377.727,140.456z"/>
				</g>
			</g>
			<g style="opacity:0.3;">
				<path style="fill:#FFFFFF;" d="M381.469,137.601c14.98-2.396,29.342-4.145,44.31-6.569c2.006-0.325,4.258-0.683,6.285-0.834
					c0.873-0.065,1.459-0.026,2.223,0.477c0.459,0.303,1.176,0.631,1.156,1.18c-0.043,1.208-1.603,1.385-2.793,1.57
					c-15.373,2.384-30.964,4.351-46.336,6.734c-1.294,0.201-1.955-0.051-3.247-0.269c-0.97-0.163-2.693-0.596-4.171-0.945
					C378.896,138.946,379.896,137.853,381.469,137.601z"/>
			</g>
			<g>
				<path style="fill:#263238;" d="M386.458,161.164c-0.036,0.003-0.106-0.365-0.202-1.033c-0.101-0.784-0.222-1.729-0.365-2.834
					c-0.287-2.526-0.656-5.772-1.064-9.361c-0.216-1.818-0.421-3.549-0.611-5.145c-0.054-0.393-0.101-0.779-0.164-1.146
					c-0.065-0.361-0.1-0.75-0.238-0.977c-0.327-0.468-1.032-0.682-1.567-0.857c-2.299-0.61-3.822-0.632-3.807-0.732
					c0.001-0.035,0.377-0.056,1.054-0.023c0.676,0.04,1.658,0.106,2.852,0.4c0.298,0.076,0.61,0.166,0.926,0.309
					c0.312,0.135,0.655,0.313,0.907,0.671c0.227,0.38,0.241,0.759,0.324,1.129c0.074,0.376,0.127,0.761,0.189,1.157
					c0.234,1.583,0.445,3.324,0.653,5.154c0.409,3.659,0.719,6.977,0.913,9.382c0.097,1.202,0.165,2.177,0.2,2.851
					C386.492,160.786,386.493,161.161,386.458,161.164z"/>
			</g>
			<g>
				<path style="fill:#263238;" d="M301.122,158.793c0-0.008,0.087-0.014,0.259-0.016c0.198,0,0.448,0,0.761,0
					c0.704,0.011,1.686,0.026,2.937,0.045c2.593,0.061,6.298,0.148,10.899,0.257c2.318,0.062,4.86,0.129,7.599,0.202
					c1.371,0.046,2.787,0.053,4.265,0.156c0.737,0.062,1.494,0.135,2.251,0.395c0.189,0.064,0.376,0.152,0.557,0.261
					c0.198,0.127,0.361,0.332,0.443,0.522c0.187,0.387,0.265,0.783,0.328,1.179c0.119,0.789,0.121,1.598,0.11,2.395
					c0.002,0.797,0.003,1.605,0.005,2.421c0.003,1.634,0.006,3.306,0.009,5.012c0.003,3.413,0.007,6.962,0.011,10.619l0,0.021
					l-0.002,0.011c-0.286,1.539-1.437,2.796-2.866,3.397c-0.687,0.315-1.514,0.482-2.265,0.477c-0.764,0.046-1.52,0.029-2.284,0.026
					c-8.378-0.222-16.311-0.927-23.534-1.507c-0.902-0.077-1.793-0.154-2.673-0.229c-0.44-0.039-0.876-0.077-1.31-0.115
					c-0.419-0.028-0.909-0.086-1.33-0.256c-0.859-0.325-1.562-0.988-1.944-1.789c-0.193-0.4-0.307-0.833-0.339-1.268
					c-0.022-0.447,0.004-0.837,0.008-1.243c0.071-3.217,0.137-6.215,0.198-8.956c0.065-2.733,0.124-5.208,0.175-7.389
					c0.008-0.54,0.048-1.097,0.225-1.593c0.17-0.502,0.465-0.924,0.768-1.284c0.308-0.349,0.603-0.684,0.886-1.003l0.201-0.24
					c0.057-0.081,0.207-0.177,0.297-0.199c0.206-0.076,0.402-0.107,0.595-0.141c1.534-0.203,2.725-0.185,3.532-0.2
					c0.38,0.004,0.683,0.007,0.918,0.01C301.016,158.776,301.122,158.784,301.122,158.793c0,0.009-0.106,0.018-0.312,0.029
					c-0.235,0.011-0.537,0.024-0.916,0.042c-0.801,0.049-2,0.065-3.5,0.295c-0.184,0.035-0.378,0.072-0.55,0.14
					c-0.1,0.042-0.135,0.053-0.204,0.137l-0.199,0.247c-0.276,0.324-0.565,0.662-0.867,1.016c-0.289,0.356-0.554,0.75-0.703,1.213
					c-0.156,0.463-0.189,0.969-0.19,1.513c-0.029,2.182-0.062,4.659-0.098,7.393c-0.041,2.742-0.086,5.742-0.134,8.961
					c-0.018,0.82-0.074,1.593,0.3,2.301c0.337,0.7,0.956,1.276,1.706,1.555c0.38,0.147,0.76,0.192,1.207,0.222
					c0.434,0.036,0.87,0.073,1.31,0.11c0.879,0.072,1.77,0.145,2.672,0.219c7.217,0.554,15.162,1.243,23.501,1.464
					c0.755,0.003,1.513,0.02,2.249-0.025c0.756,0.001,1.42-0.139,2.085-0.432c1.302-0.533,2.321-1.704,2.563-2.985l-0.002,0.032
					c0.004-3.658,0.008-7.21,0.011-10.625c0.003-1.707,0.006-3.379,0.008-5.014c0.002-0.817,0.003-1.625,0.005-2.423
					c0.015-0.797,0.015-1.568-0.094-2.319c-0.055-0.37-0.133-0.74-0.28-1.045c-0.073-0.161-0.16-0.262-0.279-0.344
					c-0.144-0.088-0.301-0.165-0.47-0.222c-0.674-0.237-1.414-0.319-2.134-0.382c-1.448-0.11-2.875-0.126-4.242-0.182
					c-2.736-0.095-5.277-0.184-7.593-0.265c-4.599-0.174-8.302-0.315-10.894-0.413c-1.251-0.058-2.232-0.103-2.936-0.135
					c-0.312-0.019-0.563-0.035-0.761-0.047C301.209,158.812,301.122,158.801,301.122,158.793z"/>
			</g>
			<g>
				<path style="fill:#263238;" d="M328.192,185.364c-0.018,0-0.035-0.195-0.051-0.564c-0.012-0.428-0.026-0.962-0.044-1.617
					c-0.016-1.476-0.038-3.489-0.064-5.943c-0.008-2.531-0.018-5.513-0.029-8.812c0.01-0.833-0.026-1.668,0.024-2.563
					c0.023-0.426,0.028-0.844-0.128-1.171c-0.158-0.321-0.484-0.56-0.873-0.679c-0.785-0.236-1.745-0.195-2.668-0.278
					c-0.931-0.061-1.875-0.123-2.83-0.185c-3.821-0.257-7.459-0.498-10.77-0.611c-3.312-0.135-6.292-0.065-8.804-0.086
					c-2.456-0.019-4.469-0.035-5.945-0.047c-0.654-0.016-1.189-0.029-1.617-0.039c-0.37-0.015-0.564-0.031-0.564-0.049
					c0-0.018,0.193-0.037,0.563-0.056c0.427-0.016,0.961-0.035,1.615-0.059c1.476-0.029,3.487-0.07,5.942-0.119
					c2.506-0.027,5.503-0.135,8.826-0.026c3.323,0.087,6.969,0.314,10.79,0.571c0.955,0.063,1.898,0.126,2.828,0.188
					c0.927,0.091,1.838,0.031,2.794,0.311c0.467,0.145,0.935,0.46,1.169,0.945c0.224,0.488,0.192,0.984,0.17,1.416
					c-0.053,0.839-0.024,1.706-0.04,2.531c-0.031,3.302-0.059,6.286-0.083,8.819c-0.042,2.455-0.076,4.468-0.101,5.945
					c-0.022,0.654-0.04,1.188-0.054,1.616C328.228,185.17,328.21,185.364,328.192,185.364z"/>
			</g>
			<path style="opacity:0.3;" d="M327.988,164.357l2.581-4.053c0,0,0.867,0.715,0.728,4.053c-0.097,2.326,0.314,17.93,0,18.384
				c-0.314,0.454-1.518,2.672-3,2.812c0,0-0.189-14.671,0-15.838C328.487,168.535,328.435,164.363,327.988,164.357z"/>
			<g>
				<path style="fill:#FFFFFF;" d="M295.014,178.357c-0.069,0.006-0.21-0.767-0.34-2.028c-0.131-1.261-0.241-3.01-0.256-4.944
					c-0.014-1.935,0.071-3.686,0.182-4.948c0.111-1.263,0.24-2.038,0.31-2.032c0.151,0.012-0.005,3.131,0.029,6.977
					C294.962,175.226,295.164,178.343,295.014,178.357z"/>
			</g>
			<g style="opacity:0.3;">
				<path style="fill:#FFFFFF;" d="M328.914,160.455c-0.451-0.813-1.551-0.913-2.48-0.957c-9.297-0.432-18.358-0.78-27.793-0.607
					c-0.956,0.017-1.857-0.069-2.741,0.294c-0.885,0.363-1.92,2.079-2.227,3.039l0.107,0.132c9.762,0.345,19.523,0.69,29.284,1.035
					c1.062,0.038,2.128,0.075,3.184-0.048c0.772-0.09,1.569-0.283,2.154-0.794C328.989,162.038,329.291,161.135,328.914,160.455z"/>
			</g>
			<g>
				<path style="fill:#FF725E;" d="M331.417,162.205c0,0,13.633-0.477,14.612-0.869c0.979-0.392,20.365-15.568,25.065-17.917
					c4.7-2.35,7.522-3.114,7.522-3.114s1.629-0.074,2.048,2.379c0.348,2.036,2.579,18.285,2.677,18.481
					s-27.128,19.362-30.555,19.852c-3.427,0.49-21.488,1.223-21.488,1.223L331.417,162.205z"/>
				<g>
					<path style="fill:#263238;" d="M331.417,162.205c0.006,0.006,0.011,0.129,0.016,0.364c0.003,0.258,0.007,0.601,0.013,1.037
						c0.005,0.933,0.011,2.262,0.019,3.969c0.001,3.459,0.004,8.443,0.006,14.665l-0.182-0.175
						c3.464-0.171,7.329-0.362,11.532-0.569c2.102-0.115,4.288-0.24,6.547-0.4c1.124-0.091,2.287-0.156,3.42-0.319
						c1.036-0.273,2.103-0.92,3.142-1.484c4.166-2.404,8.411-5.237,12.815-8.19c4.391-2.973,8.941-6.097,13.51-9.418l0.607-0.455
						l0.143-0.114l0.071-0.057c0.061-0.047-0.046,0.011-0.023,0.131c0.058,0.141,0.053,0.053,0.034,0.015l-0.029-0.125l-0.037-0.212
						l-0.227-1.508c-0.144-1.001-0.286-1.996-0.429-2.986c-0.279-1.979-0.556-3.935-0.828-5.862
						c-0.274-1.926-0.543-3.823-0.808-5.687c-0.153-0.915-0.228-1.892-0.465-2.713c-0.129-0.413-0.329-0.795-0.612-1.085
						c-0.278-0.279-0.681-0.469-1.027-0.476l0.053-0.008c-1.836,0.549-3.61,1.289-5.31,2.054c-0.847,0.39-1.696,0.777-2.492,1.212
						c-0.797,0.423-1.556,0.927-2.309,1.409c-2.989,1.984-5.763,4.009-8.382,5.919c-5.241,3.825-9.775,7.316-13.665,10.074
						l-0.405,0.245c-0.144,0.055-0.315,0.086-0.459,0.109c-0.291,0.037-0.579,0.074-0.86,0.095
						c-0.564,0.054-1.111,0.087-1.643,0.124c-1.062,0.057-2.06,0.11-2.992,0.16c-1.855,0.072-3.445,0.134-4.751,0.185
						c-1.274,0.034-2.266,0.06-2.969,0.078c-0.319,0.003-0.571,0.005-0.766,0.007C331.505,162.217,331.427,162.208,331.417,162.205
						c-0.01-0.004,0.087-0.018,0.259-0.031c0.195-0.013,0.447-0.029,0.765-0.049c0.702-0.038,1.693-0.091,2.966-0.159
						c1.303-0.071,2.892-0.158,4.745-0.26c0.93-0.061,1.927-0.126,2.986-0.195c0.529-0.042,1.076-0.081,1.633-0.14
						c0.281-0.024,0.559-0.063,0.842-0.101c0.139-0.025,0.262-0.047,0.387-0.093l0.349-0.22c3.842-2.778,8.366-6.309,13.588-10.158
						c2.612-1.926,5.379-3.962,8.377-5.967c0.759-0.49,1.516-0.997,2.342-1.439c0.816-0.448,1.658-0.835,2.514-1.232
						c1.718-0.778,3.483-1.523,5.381-2.095l0.03-0.009l0.024,0.001c1.133,0.025,1.876,0.987,2.139,1.904
						c0.272,0.955,0.328,1.854,0.489,2.793c0.267,1.863,0.539,3.761,0.816,5.688c0.274,1.927,0.551,3.882,0.832,5.861
						c0.142,0.989,0.285,1.984,0.429,2.984l0.226,1.499l0.027,0.164l0.008,0.062c-0.004,0.026,0.013,0.003,0.004,0.183
						c-0.021,0.165-0.169,0.273-0.16,0.263l-0.078,0.063l-0.155,0.124l-0.616,0.462c-4.585,3.332-9.133,6.45-13.535,9.421
						c-4.414,2.951-8.665,5.774-12.866,8.181c-0.529,0.295-1.057,0.584-1.595,0.853c-0.549,0.258-1.061,0.537-1.706,0.674
						c-1.185,0.165-2.328,0.223-3.463,0.311c-2.265,0.151-4.453,0.266-6.556,0.371c-4.205,0.181-8.073,0.348-11.54,0.498
						l-0.184,0.008l0.002-0.184c0.078-6.265,0.14-11.283,0.183-14.766c0.029-1.691,0.051-3.007,0.067-3.931
						c0.01-0.423,0.019-0.756,0.025-1.006C331.404,162.311,331.411,162.199,331.417,162.205z"/>
				</g>
			</g>
			<g>
				<path style="fill:none;" d="M217.313,180.792l0.044-0.045c0,0-0.922,2.704,17.618,11.395c6.026,2.824,13.35,4.862,20.492,6.326
					c15.522,3.181,31.452,3.811,47.213,2.189c5.356-0.552,11.01-1.279,15.643-2.207c11.961-2.397,21.022-3.884,32.307-8.331
					c11.733-4.624,13.597-7.373,20.543-13.262c5.373-4.555,9.651-8.843,17.491-11.521c0.658-0.428,1.33-0.849,2.023-1.259
					c0,0,40.931-7.58,46.731-7.651c0.51-0.029,0.944-0.035,1.288-0.014c4.983,0.302,7.312,6.832,13.893,8.458
					c7.036,1.739,11.126-1.294,12.921-3.223c0.513-0.899,0.907-1.88,1.207-2.93c1.427-4.993-6.657-10.462-6.657-10.462
					s-0.192-9.62-5.423-11.284s-5.231-1.664-5.231-1.664s-4.042-30.672-13.79-47.553c-9.748-16.881-14.979-27.58-39.944-38.28
					c0,0-24.727-19.734-59.679-10.699c-34.951,9.035-56.35,35.427-56.35,35.427s-21.286,26.486-25.565,67.382
					c0,0-6.729-0.831-7.533,1.657c-0.667,2.067-0.911,4.353-1.119,8.426l-0.258,4.565c0,0-29.139,16.437-27.818,22.35
					C217.357,178.58,216.952,179.384,217.313,180.792z"/>
				<path style="opacity:0.3;" d="M452.598,164.87c-6.581-1.626-8.91-8.156-13.893-8.458c-0.343-0.021-0.777-0.015-1.288,0.014
					c0.277-0.003,0.476,0.01,0.585,0.042c2.378,0.713,6.657,11.175,15.217,10.937c6.759-0.188,10.375-2.384,12.3-5.758
					C463.724,163.576,459.634,166.609,452.598,164.87z"/>
				<path style="opacity:0.3;" d="M350.63,190.118c-11.284,4.447-20.345,5.934-32.307,8.331c-4.633,0.928-10.287,1.655-15.643,2.207
					c-15.761,1.623-31.692,0.993-47.213-2.189c-7.142-1.464-14.466-3.501-20.492-6.326c-18.54-8.691-17.618-11.395-17.618-11.395
					l-0.044,0.045c0.69,2.685,4.172,7.565,18.589,13.243c21.864,8.612,40.626,14.963,86.039,6.403
					c43.672-8.231,50.215-24.362,66.723-35.102c-7.84,2.678-12.118,6.965-17.491,11.521
					C364.227,182.745,362.362,185.494,350.63,190.118z"/>
			</g>
			<g>
				<path style="fill:#263238;" d="M433.196,133.155c0.003,0.018-0.162,0.06-0.478,0.124c-0.377,0.07-0.835,0.154-1.389,0.257
					c-1.29,0.214-3.021,0.5-5.123,0.848c-4.33,0.693-10.318,1.616-16.937,2.603c-6.621,0.988-12.618,1.853-16.963,2.453
					c-2.113,0.281-3.852,0.512-5.148,0.684c-0.559,0.064-1.022,0.117-1.403,0.16c-0.322,0.031-0.492,0.038-0.494,0.021
					c-0.003-0.018,0.163-0.06,0.48-0.125c0.377-0.07,0.836-0.154,1.39-0.257c1.29-0.213,3.021-0.5,5.124-0.848
					c4.33-0.693,10.317-1.616,16.936-2.603c6.616-0.987,12.611-1.852,16.956-2.452c2.113-0.281,3.853-0.512,5.15-0.684
					c0.56-0.064,1.023-0.117,1.405-0.16C433.022,133.145,433.193,133.137,433.196,133.155z"/>
			</g>
			<g>
				<path style="fill:#263238;" d="M292.688,179.441c-0.001,0.036-0.634,0.046-1.781,0.033c-1.147-0.003-2.806-0.085-4.85-0.256
					c-4.087-0.338-9.719-1.187-15.753-2.891c-3.013-0.863-5.833-1.85-8.359-2.844c-2.515-1.021-4.744-2.028-6.568-2.967
					c-1.829-0.929-3.282-1.734-4.257-2.336c-0.981-0.594-1.514-0.937-1.495-0.968c0.018-0.031,0.586,0.253,1.595,0.791
					c1.004,0.547,2.479,1.3,4.32,2.182c1.838,0.893,4.071,1.86,6.582,2.851c2.522,0.965,5.329,1.932,8.325,2.79
					c5.998,1.694,11.585,2.595,15.647,3.025c2.031,0.217,3.681,0.355,4.823,0.42C292.056,179.346,292.688,179.405,292.688,179.441z"
					/>
			</g>
			<g>
				<path style="fill:#263238;" d="M244.863,155.303c0.018,0.002,0.02,0.171,0.006,0.492c-0.023,0.381-0.05,0.843-0.084,1.401
					c-0.102,1.296-0.238,3.035-0.404,5.146c-0.094,1.094-0.195,2.282-0.304,3.552c-0.053,0.631-0.107,1.283-0.164,1.953
					c-0.026,0.531,0.711,0.798,1.369,0.882c1.369,0.163,2.905-0.007,4.354-0.434c0.179-0.057,0.356-0.122,0.518-0.2
					c0.153-0.061,0.338-0.205,0.327-0.218c0.059-0.294,0.115-0.753,0.165-1.133c0.093-0.803,0.188-1.617,0.284-2.441
					c0.355-3.302,0.692-6.444,1-9.317c0.159-1.429,0.311-2.789,0.453-4.068c0.185-1.272,0.419-2.442,0.603-3.518
					c0.384-2.084,0.7-3.8,0.936-5.079c0.112-0.548,0.204-1.002,0.28-1.376c0.07-0.314,0.115-0.476,0.133-0.473
					c0.018,0.003,0.007,0.172-0.029,0.491c-0.05,0.378-0.111,0.837-0.184,1.391c-0.194,1.284-0.455,3.006-0.771,5.097
					c-0.16,1.075-0.373,2.251-0.539,3.516c-0.127,1.279-0.263,2.639-0.405,4.067c-0.296,2.875-0.62,6.021-0.96,9.326
					c-0.097,0.826-0.193,1.643-0.287,2.449c-0.061,0.42-0.086,0.764-0.195,1.246c-0.186,0.354-0.399,0.389-0.589,0.502
					c-0.195,0.092-0.389,0.162-0.583,0.223c-1.553,0.445-3.091,0.609-4.58,0.423c-0.371-0.059-0.743-0.146-1.095-0.332
					c-0.343-0.176-0.693-0.577-0.662-1.023c0.053-0.731,0.131-1.352,0.192-2c0.131-1.267,0.254-2.452,0.367-3.543
					c0.233-2.104,0.425-3.836,0.568-5.128c0.072-0.555,0.132-1.014,0.181-1.392C244.812,155.468,244.845,155.302,244.863,155.303z"
					/>
			</g>
			<g>
				<path style="fill:#263238;" d="M243.98,159.827c0.033,0.07-1.271,0.741-3.363,1.85c-2.092,1.108-4.963,2.673-8.067,4.517
					c-3.104,1.847-5.85,3.621-7.823,4.929c-1.974,1.308-3.186,2.132-3.232,2.07c-0.021-0.029,0.256-0.271,0.775-0.686
					c0.518-0.416,1.285-0.993,2.248-1.688c1.925-1.39,4.651-3.22,7.766-5.074c3.116-1.851,6.026-3.371,8.167-4.398
					c1.07-0.514,1.944-0.912,2.557-1.169C243.62,159.922,243.965,159.795,243.98,159.827z"/>
			</g>
			<g>
				<path style="fill:#263238;" d="M246.081,148.411c0.009-0.119,1.525-0.21,3.409-0.212c1.883,0.001,3.409,0.108,3.41,0.252
					c0.001,0.143-1.525,0.27-3.41,0.268C247.608,148.722,246.07,148.58,246.081,148.411z"/>
			</g>
			<g>
				<path style="fill:#263238;" d="M454.819,159.962c-0.036,0.001-0.094-0.539-0.167-1.516c-0.068-1.073-0.157-2.465-0.263-4.141
					c-0.094-1.78-0.203-3.855-0.323-6.143c-0.058-1.161-0.119-2.375-0.181-3.632c-0.038-0.606-0.153-1.219-0.546-1.609
					c-0.378-0.393-1.032-0.514-1.631-0.475c-0.529,0.05-0.977,0.56-1.399,1.039c-0.231,0.238-0.415,0.515-0.818,0.704
					c-0.101,0.045-0.235,0.068-0.366,0.048c-0.138-0.04-0.276-0.114-0.325-0.172c-0.154-0.123-0.253-0.248-0.367-0.371
					c-0.818-0.998-1.51-1.974-2.257-2.856c-1.468-1.77-2.998-3.184-4.44-4.145c-1.449-0.965-2.682-1.671-3.539-2.135
					c-0.859-0.466-1.359-0.667-1.349-0.698c0.011-0.038,0.545,0.102,1.439,0.516c0.895,0.414,2.156,1.071,3.65,2.008
					c1.503,0.944,3.095,2.364,4.605,4.144c0.762,0.879,1.49,1.882,2.275,2.831c0.1,0.108,0.203,0.23,0.3,0.303
					c0.058,0.078,0.081,0.007,0.078,0.101c0.033-0.067,0.058-0.016,0.104-0.053c0.186-0.077,0.414-0.337,0.621-0.57
					c0.425-0.458,0.89-1.102,1.739-1.214c0.708-0.044,1.493,0.076,2.046,0.628c0.544,0.555,0.647,1.312,0.688,1.94
					c0.052,1.257,0.103,2.47,0.151,3.631c0.079,2.293,0.151,4.373,0.212,6.158c0.04,1.681,0.073,3.077,0.098,4.153
					C454.865,159.418,454.855,159.961,454.819,159.962z"/>
			</g>
			<g>
				<path style="fill:#263238;" d="M448.546,143.595c-0.124-0.075,0.892-1.746,1.006-4.116c0.152-2.343-0.117-4.281,0.056-4.3
					c0.11-0.022,0.619,1.892,0.464,4.34c-0.087,1.219-0.404,2.307-0.769,3.024C448.943,143.265,448.596,143.63,448.546,143.595z"/>
			</g>
			<g>
				<path style="fill:#263238;" d="M459.553,161.066c-0.144,0-0.26-2.935-0.26-6.554c0-3.621,0.117-6.555,0.26-6.555
					c0.144,0,0.26,2.934,0.26,6.555C459.813,158.131,459.696,161.066,459.553,161.066z"/>
			</g>
			<g>
				<path style="fill:#263238;" d="M463.449,157.66c-0.079,0.004-0.138-0.361-0.351-0.894c-0.208-0.533-0.601-1.226-1.188-1.88
					c-1.184-1.305-2.465-2.097-2.358-2.248c0.04-0.058,0.384,0.088,0.904,0.394c0.519,0.305,1.218,0.804,1.842,1.508
					c0.634,0.705,1.019,1.507,1.15,2.117C463.587,157.271,463.513,157.66,463.449,157.66z"/>
			</g>
			<g>
				<path style="fill:#263238;" d="M261.025,109.884c-0.017-0.007,0.036-0.179,0.151-0.503c0.141-0.377,0.315-0.841,0.527-1.406
					c0.229-0.611,0.523-1.352,0.905-2.196c0.377-0.846,0.78-1.822,1.309-2.862c0.998-2.109,2.32-4.556,3.911-7.2
					c1.618-2.627,3.521-5.442,5.704-8.257c2.203-2.802,4.472-5.332,6.629-7.539c2.18-2.185,4.234-4.061,6.037-5.541
					c0.881-0.765,1.73-1.393,2.459-1.964c0.726-0.575,1.374-1.041,1.911-1.411c0.496-0.342,0.904-0.624,1.236-0.852
					c0.286-0.19,0.441-0.283,0.451-0.268c0.01,0.015-0.124,0.136-0.39,0.353c-0.315,0.249-0.704,0.556-1.176,0.929
					c-0.517,0.394-1.145,0.882-1.852,1.477c-0.71,0.591-1.539,1.236-2.401,2.016c-1.766,1.51-3.783,3.405-5.932,5.596
					c-2.126,2.214-4.371,4.738-6.561,7.524c-2.171,2.799-4.074,5.589-5.706,8.188c-1.605,2.617-2.953,5.033-3.99,7.112
					c-0.547,1.025-0.972,1.987-1.373,2.819c-0.406,0.83-0.727,1.557-0.984,2.155c-0.247,0.549-0.451,1-0.616,1.366
					C261.127,109.73,261.042,109.89,261.025,109.884z"/>
			</g>
			<path style="opacity:0.3;" d="M244.761,168.868c0,0,1.081-20.235,1.887-20.416c0.806-0.182,6.247-0.277,6.253,0
				c0.028,1.488-1.843,19.069-2.161,19.477C249.862,169.055,244.761,168.868,244.761,168.868z"/>
			<g>
				<path style="fill:#FFFFFF;" d="M346.467,43.041c0.007,0.035-0.49,0.181-1.394,0.414c-0.906,0.224-2.207,0.586-3.799,1.075
					c-3.185,0.972-7.508,2.594-11.997,4.977c-4.484,2.395-8.243,5.077-10.828,7.176c-1.295,1.048-2.322,1.925-3.013,2.551
					c-0.698,0.62-1.096,0.951-1.121,0.925c-0.025-0.025,0.325-0.406,0.983-1.073c0.65-0.674,1.644-1.597,2.916-2.687
					c2.539-2.184,6.297-4.938,10.819-7.352c4.525-2.403,8.908-3.983,12.138-4.87c1.615-0.447,2.936-0.756,3.858-0.919
					C345.948,43.085,346.46,43.006,346.467,43.041z"/>
			</g>
			<g style="opacity:0.3;">
				<path style="fill:#FFFFFF;" d="M222.455,172.554c-2.082,1.38-2.247,5.252-0.792,7.281c1.456,2.029,2.495,2.473,4.636,3.759
					c2.687,1.614,7.207,3.417,10.207,4.243c1.675,0.461,3.419,0.882,5.135,0.615c1.882-0.293,4.231-2.008,5.805-3.08
					c3.779-2.573,7.053-5.715,10.732-8.43c0.831-0.613,1.749-1.421,1.65-2.449c-0.128-1.322-1.756-1.836-3.068-2.037
					c-3.518-0.54-7.037-1.079-10.555-1.619c-1.044-0.16-2.111-0.328-3.044-0.824c-0.933-0.496-1.722-1.392-1.798-2.446
					c-0.124-1.724,1.576-3.61,0.517-4.977c-0.919-1.186-2.797-0.484-4.073,0.305C232.831,165.971,227.32,169.154,222.455,172.554"/>
			</g>
			<g>
				<path style="fill:#FFFFFF;" d="M296.756,159.347c0.121,0.077-0.078,0.607-0.445,1.182c-0.367,0.576-0.763,0.98-0.885,0.902
					c-0.121-0.077,0.078-0.607,0.446-1.182C296.239,159.674,296.635,159.27,296.756,159.347z"/>
			</g>
			<g>
				<path style="fill:#FFFFFF;" d="M261.049,195.221c-0.001,0.018-0.163,0.021-0.471,0.011c-0.368-0.019-0.812-0.042-1.345-0.07
					c-0.585-0.03-1.299-0.083-2.123-0.187c-0.825-0.099-1.769-0.183-2.8-0.365c-2.072-0.302-4.517-0.805-7.198-1.501
					c-2.672-0.726-5.575-1.663-8.54-2.861c-2.958-1.219-5.688-2.58-8.106-3.93c-2.403-1.378-4.503-2.729-6.194-3.963
					c-0.864-0.591-1.598-1.191-2.257-1.698c-0.662-0.502-1.209-0.964-1.648-1.352c-0.4-0.353-0.733-0.647-1.01-0.891
					c-0.227-0.208-0.34-0.324-0.329-0.337c0.012-0.014,0.148,0.075,0.396,0.257c0.293,0.223,0.646,0.491,1.07,0.814
					c0.457,0.362,1.02,0.799,1.697,1.277c0.673,0.482,1.418,1.059,2.292,1.628c1.71,1.189,3.817,2.499,6.217,3.845
					c2.415,1.318,5.132,2.657,8.068,3.867c2.944,1.189,5.821,2.132,8.469,2.88c2.656,0.717,5.079,1.254,7.132,1.601
					c1.022,0.205,1.958,0.314,2.776,0.44c0.818,0.131,1.526,0.213,2.106,0.274c0.529,0.066,0.968,0.121,1.334,0.167
					C260.891,195.171,261.05,195.202,261.049,195.221z"/>
			</g>
			<path style="opacity:0.3;fill:#FFFFFF;" d="M331.417,166.077c0,0,12.085,0.432,15.234-1.173
				c3.149-1.605,20.625-14.758,23.712-17.784c3.087-3.026,10.184-4.469,10.132-4.722c-0.148-0.731-0.62-1.326-1.039-1.728
				c-0.39-0.376-0.966-0.479-1.464-0.267c-1.955,0.834-7.208,3.101-8.483,3.931c-1.576,1.025-23.481,17.002-23.481,17.002
				l-14.612,0.869V166.077z"/>
			<g>
				<path style="fill:#263238;" d="M355.372,52.694c0.003,0.009-0.098,0.052-0.297,0.127c-0.226,0.082-0.518,0.189-0.886,0.322
					c-0.401,0.141-0.882,0.31-1.445,0.508c-0.574,0.191-1.232,0.423-1.95,0.745c-2.927,1.134-7.042,3.127-11.712,6.24
					c-1.196,0.736-2.333,1.676-3.579,2.565c-1.215,0.931-2.435,1.96-3.695,3.022c-2.461,2.197-5.013,4.637-7.475,7.415
					c-4.961,5.521-9.714,12.21-13.94,19.664c-8.467,14.95-13.255,29.889-15.882,40.794c-1.325,5.464-2.185,9.936-2.724,13.034
					c-0.289,1.546-0.463,2.756-0.612,3.57c-0.07,0.385-0.125,0.691-0.168,0.928c-0.041,0.209-0.066,0.315-0.075,0.314
					s-0.001-0.11,0.022-0.321c0.03-0.239,0.068-0.547,0.116-0.936c0.116-0.82,0.258-2.035,0.516-3.588
					c0.479-3.112,1.285-7.601,2.566-13.086c2.54-10.947,7.289-25.958,15.787-40.964c4.243-7.483,9.031-14.197,14.037-19.729
					c2.484-2.784,5.062-5.226,7.549-7.421c1.274-1.061,2.507-2.087,3.735-3.015c1.26-0.886,2.409-1.821,3.619-2.551
					c4.722-3.092,8.883-5.043,11.842-6.123c0.726-0.309,1.391-0.526,1.972-0.703c0.57-0.18,1.057-0.333,1.464-0.461
					c0.375-0.113,0.672-0.204,0.903-0.273C355.263,52.711,355.369,52.686,355.372,52.694z"/>
			</g>
			<path style="fill:#FF725E;" d="M378.871,168.27l-0.5-1.3c0,0,7.122-8.967,15.334-10.811c8.212-1.844,39.376-7.818,45.33-7.583
				s6.73,4.736,6.73,4.736l-42.075,6.751l-13.105,2.912L378.871,168.27z"/>
			<g>
				<path style="fill:#263238;" d="M217.357,178.58c0,0-0.02,0.251,0.231,0.646c0.239,0.394,0.696,0.921,1.387,1.507
					c1.356,1.204,3.613,2.669,6.618,4.354c3.014,1.671,6.79,3.58,11.262,5.565c4.507,1.907,9.865,3.526,15.879,4.872
					c12.02,2.693,26.757,4.308,43.039,3.285c4.067-0.248,8.224-0.672,12.459-1.2c4.241-0.516,8.527-1.223,12.876-2.14
					c8.707-1.713,17.764-3.436,26.594-6.693c4.403-1.625,8.733-3.381,12.639-5.735c3.913-2.356,7.127-5.571,10.532-8.431
					c3.369-2.855,5.963-6.404,8.935-9.497c2.921-3.138,6.35-5.753,10.138-7.385c0.936-0.426,1.911-0.747,2.867-1.082
					c0.979-0.26,1.943-0.582,2.917-0.781c1.94-0.455,3.861-0.859,5.758-1.241c3.793-0.767,7.49-1.433,11.068-2.047
					c7.158-1.228,13.847-2.235,19.974-3.016c3.065-0.383,5.987-0.72,8.778-0.855c0.702-0.008,1.396-0.034,2.09,0.154
					c0.344,0.072,0.642,0.261,0.961,0.386c0.307,0.15,0.569,0.366,0.853,0.544c1.065,0.805,1.923,1.762,2.722,2.695
					c1.573,1.89,2.927,3.726,4.355,5.257c1.411,1.534,2.915,2.776,4.51,3.403c1.575,0.61,3.206,0.762,4.395,0.229
					c0.585-0.27,1.034-0.71,1.287-1.199c0.288-0.472,0.4-0.973,0.5-1.408c0.151-0.89,0.115-1.588,0.081-2.05
					c-0.037-0.463-0.069-0.7-0.069-0.7s0.067,0.231,0.122,0.695c0.051,0.463,0.105,1.164-0.031,2.072
					c-0.094,0.446-0.199,0.96-0.49,1.455c-0.254,0.511-0.721,0.984-1.333,1.275c-1.254,0.574-2.913,0.429-4.536-0.18
					c-1.643-0.629-3.182-1.885-4.616-3.421c-1.451-1.534-2.822-3.369-4.396-5.239c-0.798-0.921-1.653-1.861-2.684-2.631
					c-0.271-0.168-0.526-0.376-0.816-0.515c-0.299-0.113-0.582-0.294-0.899-0.357c-0.622-0.168-1.305-0.145-1.993-0.133
					c-2.764,0.147-5.686,0.495-8.743,0.889c-6.116,0.803-12.799,1.831-19.947,3.076c-3.574,0.623-7.266,1.297-11.051,2.071
					c-1.893,0.386-3.81,0.793-5.742,1.249c-0.976,0.201-1.913,0.519-2.881,0.777c-0.941,0.332-1.899,0.649-2.818,1.069
					c-3.72,1.612-7.078,4.175-9.97,7.288c-2.942,3.066-5.538,6.631-8.965,9.543c-3.384,2.844-6.616,6.085-10.592,8.484
					c-3.962,2.388-8.308,4.149-12.732,5.782c-8.875,3.274-17.971,4.999-26.673,6.704c-4.343,0.912-8.671,1.623-12.913,2.133
					c-4.243,0.523-8.412,0.943-12.492,1.185c-16.332,1-31.109-0.658-43.149-3.404c-6.025-1.374-11.393-3.022-15.912-4.964
					c-4.48-2.019-8.238-3.953-11.247-5.657c-2.998-1.716-5.244-3.213-6.589-4.452c-0.684-0.602-1.134-1.148-1.363-1.559
					C217.3,178.841,217.337,178.57,217.357,178.58z"/>
			</g>
			<g>
				<path style="fill:#263238;" d="M414.396,159.747c0.007,0.035-0.376,0.144-1.074,0.31c-0.699,0.162-1.714,0.379-2.974,0.62
					c-2.643,0.473-6.066,1.084-9.85,1.761c-1.911,0.416-3.803,0.579-5.453,0.832c-1.661,0.253-3.116,0.667-4.282,1.16
					c-2.334,0.999-3.533,2.087-3.596,1.996c-0.022-0.026,0.269-0.298,0.829-0.754c0.577-0.43,1.439-1.036,2.619-1.579
					c1.175-0.549,2.666-1.013,4.352-1.296c1.694-0.286,3.52-0.454,5.435-0.87c3.849-0.725,7.356-1.215,9.884-1.612
					c1.178-0.179,2.179-0.332,2.999-0.456C413.993,159.753,414.389,159.712,414.396,159.747z"/>
			</g>
			<g>
				<path style="opacity:0.3;fill:#FFFFFF;" d="M439.83,119.091c0,0-2.693-23.955-17.609-41.796l-13.823,8.102
					c11.048,15.468,8.172,37.042,8.172,37.042L439.83,119.091z"/>
				<path style="opacity:0.3;fill:#FFFFFF;" d="M400.424,61.621c-39.65-14.683-62.24,20.806-62.24,20.806
					s15.671-16.127,48.09-11.958c7.015,0.902,11.675,2.467,15.829,6.482l10.188-8.982C408.786,65.433,404.85,63.261,400.424,61.621z
					"/>
			</g>
			<g>
				<path style="fill:#FFFFFF;" d="M343.797,165.863c0.024,0.136-1.884,0.561-4.283,0.653c-2.4,0.099-4.335-0.173-4.322-0.31
					c0.011-0.149,1.936-0.112,4.301-0.21C341.857,165.905,343.774,165.715,343.797,165.863z"/>
			</g>
			<g>
				<path style="fill:#FFFFFF;" d="M374.173,144.649c0.041,0.062-0.94,0.784-2.532,1.937c-1.593,1.153-3.791,2.745-6.19,4.542
					c-2.399,1.799-4.544,3.463-6.097,4.669c-1.553,1.205-2.521,1.944-2.569,1.887c-0.045-0.053,0.84-0.892,2.337-2.173
					c1.496-1.281,3.611-2.995,6.017-4.8c2.405-1.802,4.644-3.351,6.293-4.428C373.081,145.206,374.134,144.592,374.173,144.649z"/>
			</g>
			<g>
				<path style="fill:#FFFFFF;" d="M247.106,147.126c-0.142-0.026-0.113-0.827,0.063-1.79c0.176-0.963,0.434-1.722,0.575-1.697
					c0.141,0.026,0.113,0.827-0.063,1.79C247.505,146.392,247.247,147.152,247.106,147.126z"/>
			</g>
			<g>
				<path style="fill:#FFFFFF;" d="M264.238,108.538c0.033,0.013-0.132,0.546-0.46,1.497c-0.318,0.954-0.777,2.334-1.301,4.053
					c-1.063,3.434-2.375,8.226-3.664,13.558c-1.272,5.338-2.278,10.205-2.889,13.747c-0.314,1.77-0.531,3.208-0.68,4.202
					c-0.14,0.995-0.234,1.545-0.27,1.542c-0.036-0.003-0.01-0.56,0.068-1.566c0.087-1.004,0.25-2.455,0.518-4.237
					c0.519-3.568,1.471-8.459,2.746-13.809c1.292-5.344,2.663-10.134,3.819-13.549c0.57-1.71,1.083-3.077,1.461-4.011
					C263.975,109.032,264.204,108.525,264.238,108.538z"/>
			</g>
			<g>
				<path style="fill:#263238;" d="M301.617,72.919c-0.036-0.006-0.004-0.44,0.085-1.221c0.114-0.886,0.255-1.99,0.423-3.299
					c0.157-1.401,0.527-3.032,0.506-4.872c0-0.929,0.071-1.906-0.102-2.855c-0.17-0.925-0.714-1.838-1.533-2.406
					c-0.767-0.526-1.921-0.397-2.718,0.015c-0.837,0.444-1.466,1.19-2.012,1.915c-1.082,1.471-1.751,3.004-2.244,4.305
					c-0.948,2.626-1.367,4.323-1.459,4.296c-0.034-0.009,0.041-0.438,0.216-1.205c0.177-0.766,0.448-1.874,0.897-3.215
					c0.455-1.334,1.101-2.92,2.203-4.464c0.555-0.753,1.203-1.561,2.16-2.082c0.479-0.262,1.031-0.399,1.587-0.422
					c0.548-0.022,1.169,0.068,1.667,0.431c0.945,0.66,1.549,1.684,1.738,2.741c0.181,1.048,0.091,2.034,0.08,2.958
					c-0.007,1.885-0.421,3.538-0.622,4.917c-0.233,1.3-0.429,2.396-0.586,3.276C301.752,72.501,301.652,72.925,301.617,72.919z"/>
			</g>
			<g>
				<path style="fill:#FFFFFF;" d="M300.051,73.492c-0.103,0.119-1.446-1.015-3.41-1.834c-1.955-0.84-3.704-1.015-3.69-1.172
					c-0.009-0.131,1.838-0.188,3.893,0.692C298.906,72.041,300.151,73.407,300.051,73.492z"/>
			</g>
			<g>
				<path style="fill:#FFFFFF;" d="M320.504,45.694c0.026,0.075-1.172,0.543-3.077,1.364c-1.906,0.819-4.507,2.021-7.281,3.538
					c-2.773,1.521-5.188,3.064-6.905,4.228c-1.718,1.163-2.758,1.92-2.807,1.857c-0.022-0.028,0.212-0.251,0.655-0.63
					c0.441-0.382,1.103-0.905,1.939-1.528c1.671-1.247,4.073-2.852,6.867-4.384c2.795-1.528,5.442-2.686,7.392-3.422
					c0.975-0.369,1.773-0.644,2.332-0.81C320.178,45.738,320.492,45.66,320.504,45.694z"/>
			</g>
		</g>
		<g>
			<path style="fill:#FFFFFF;" d="M346.569,165.894c0.009,0.144-2.897,0.437-6.489,0.655c-3.593,0.218-6.513,0.278-6.521,0.135
				c-0.009-0.143,2.896-0.437,6.49-0.655C343.641,165.811,346.561,165.751,346.569,165.894z"/>
		</g>
		<g>
			<path style="fill:#FFFFFF;" d="M372.955,145.534c0.02,0.03-0.265,0.267-0.798,0.672c-0.63,0.468-1.387,1.031-2.272,1.689
				c-1.922,1.419-4.569,3.389-7.444,5.627c-2.875,2.24-5.434,4.323-7.28,5.84c-0.855,0.697-1.586,1.293-2.194,1.789
				c-0.522,0.418-0.823,0.636-0.846,0.609c-0.024-0.027,0.231-0.297,0.713-0.762c0.481-0.466,1.194-1.121,2.088-1.916
				c1.788-1.591,4.316-3.725,7.199-5.971c2.882-2.243,5.57-4.172,7.551-5.516c0.99-0.672,1.8-1.203,2.37-1.555
				C372.611,145.686,372.935,145.504,372.955,145.534z"/>
		</g>
	</g>
</g>
<g id="Character_00000024680433868203517350000001713195220301179533_">
	<g>
		<g>
			<g>
				<g>
					<path style="fill:#263238;" d="M97,480.807l2.512-54.33l2.765-39.8l122.406,1.315c0,0,6.312,26.646,4.207,50.14
						c-0.201,2.243-1.197,17.98-2.712,42.469l-60.143,0.207l0.302-23.661l-1.722,0.321c0,0-1.033,12.837-2.495,23.34H97z"/>
				</g>
			</g>
		</g>
		<path style="opacity:0.3;" d="M229.12,420.389c0,0-40.344,6.826-65.961,5.774s-63.225-5.774-63.225-5.774l0.712-9.205h128.673
			L229.12,420.389z"/>
		<g>
			<g>
				<g>
					<g>
						<g>
							<g>
								<g>
									<path style="fill:#FFBF9D;" d="M314.823,288.508l-12.495,5.938c0,0-46.598,45.492-51.309,48.553
										c-2.973,1.932-7.465,3.423-15.256,1.543c-9.895-2.387-28.732-51.241-28.732-51.241l28.139-20l15.327,30.862l45.308-30.774
										L314.823,288.508z"/>
								</g>
							</g>
						</g>
					</g>
					<g>
						<g>
							<g>
								<g>
									<g>
										<g>
											<g>
												<g>
													<g>
														<g>
															<g>
																<g>
																	<g>
																		<g>
																			<g>
																				<path style="fill:#FFBF9D;" d="M312.23,290.28c3.348-2.495,6.844-4.311,6.844-4.311l3.542-2.327
																					c0.072,0.274,0.105,0.564,0.128,0.847c0.043,0.538,0.083,1.105,0.382,1.554
																					c0.567,0.852,1.808,0.919,2.793,0.642c2.061-0.579,3.748-2.33,4.252-4.411c0.484-1.999-0.152-4.219-1.593-5.684
																					c-0.023-0.542-0.138-1.112-0.407-1.707c-1.65-3.647-7.35-4.589-7.35-4.589l1.126-0.989
																					c0,0,4.393-1.457,9.771,4.106c0.803,0.83,1.877,1.389,3.029,1.47c0.705,0.05,1.433-0.08,1.958-0.622
																					c1.307-1.349,0.691-2.627-2.619-6.146c-3.31-3.519-7.663-5.814-10.873-5.433c-3.21,0.38-4.44,0.737-4.44,0.737
																					s9.641-9.517,10.227-10.144c1.695-1.814,2.306-4.093,1.208-5.344c-0.704-0.803-2.183-1.292-4.222,0.758
																					c-1.764,1.774-22.149,17.65-22.149,17.65l-8.606,7.554L312.23,290.28z"/>
																			</g>
																		</g>
																	</g>
																</g>
															</g>
														</g>
													</g>
												</g>
											</g>
										</g>
									</g>
								</g>
								<g>
									<g>
										<g>
											<g>
												<g>
													<g>
														<g>
															<g>
																<g>
																	<g>
																		<g>
																			<g>
																				<g>
																					<path style="fill:#FFBF9D;" d="M297.465,274.803c0.731,1.278,2.496,1.569,3.926,1.22
																						c1.43-0.349,2.7-1.172,4.101-1.623c4.19-1.348,8.96,0.77,13.081-0.778c0.575-0.216,1.216-0.662,1.127-1.269
																						c-0.082-0.563-0.727-0.825-1.274-0.981c-4.673-1.336-9.346-2.671-14.019-4.006"/>
																				</g>
																			</g>
																		</g>
																	</g>
																</g>
															</g>
														</g>
													</g>
												</g>
											</g>
										</g>
									</g>
									<g>
										<g>
											<g>
												<g>
													<g>
														<g>
															<g>
																<g>
																	<g>
																		<g>
																			<g>
																				<g>
																					<g>
																						<path style="fill:#FF9A6C;" d="M304.407,267.366c0.016-0.055,0.571,0.046,1.561,0.278
																							c0.99,0.231,2.415,0.592,4.17,1.054c1.823,0.494,3.895,1.054,6.155,1.666
																							c0.581,0.161,1.173,0.326,1.776,0.493c0.551,0.199,1.359,0.215,1.91,1.061
																							c0.255,0.436,0.122,1.047-0.177,1.368c-0.285,0.337-0.627,0.531-0.979,0.682
																							c-0.682,0.25-1.366,0.44-2.083,0.531c-2.871,0.378-5.502-0.21-7.852-0.188
																							c-1.174-0.007-2.281,0.109-3.261,0.409c-0.98,0.298-1.865,0.756-2.725,1.093
																							c-1.702,0.763-3.411,0.693-4.342,0.163c-0.967-0.52-1.13-1.183-1.095-1.174
																							c0.065-0.054,0.325,0.508,1.229,0.88c0.9,0.383,2.374,0.38,3.98-0.411c0.815-0.358,1.689-0.853,2.745-1.209
																							c1.056-0.356,2.242-0.504,3.465-0.517c2.446-0.056,5.085,0.491,7.738,0.131
																							c0.658-0.082,1.299-0.264,1.884-0.473c0.563-0.222,0.938-0.643,0.75-0.91
																							c-0.16-0.322-0.804-0.507-1.406-0.673c-0.601-0.176-1.191-0.35-1.768-0.52
																							c-2.243-0.675-4.298-1.293-6.106-1.838c-1.735-0.535-3.135-0.982-4.098-1.308
																							C304.916,267.628,304.391,267.422,304.407,267.366z"/>
																					</g>
																				</g>
																			</g>
																		</g>
																	</g>
																</g>
															</g>
														</g>
													</g>
												</g>
											</g>
										</g>
									</g>
								</g>
								<g>
									<g>
										<g>
											<g>
												<g>
													<g>
														<g>
															<g>
																<g>
																	<g>
																		<g>
																			<g>
																				<g>
																					<path style="fill:#FF9A6C;" d="M320.642,270.216c0.059,0.092,0.776-0.884,2.47-1.219
																						c0.83-0.16,1.862-0.043,2.874,0.453c1.02,0.483,1.997,1.287,2.964,2.21c0.972,0.92,1.915,1.834,2.944,2.463
																						c1.023,0.624,2.078,0.996,3.017,1.003c0.953,0.022,1.66-0.469,1.954-0.879
																						c0.307-0.416,0.363-0.699,0.344-0.707c-0.046-0.026-0.171,0.226-0.501,0.568
																						c-0.326,0.338-0.946,0.7-1.787,0.638c-0.831-0.049-1.814-0.43-2.763-1.041c-0.955-0.615-1.86-1.507-2.84-2.437
																						c-0.977-0.932-2.015-1.773-3.124-2.268c-1.1-0.512-2.266-0.603-3.159-0.376c-0.9,0.214-1.53,0.646-1.902,0.982
																						C320.758,269.951,320.618,270.197,320.642,270.216z"/>
																				</g>
																			</g>
																		</g>
																	</g>
																</g>
															</g>
														</g>
													</g>
												</g>
											</g>
										</g>
									</g>
								</g>
								<g>
									<g>
										<g>
											<g>
												<g>
													<g>
														<g>
															<g>
																<g>
																	<g>
																		<g>
																			<g>
																				<g>
																					<path style="fill:#FF9A6C;" d="M329.643,252.565c-0.058-0.05-0.776,0.687-1.929,1.88
																						c-1.29,1.322-2.827,2.898-4.527,4.64c-1.726,1.716-3.287,3.269-4.597,4.572
																						c-1.182,1.165-1.911,1.89-1.861,1.947c0.047,0.054,0.867-0.572,2.119-1.669
																						c1.254-1.095,2.932-2.668,4.72-4.472c1.786-1.805,3.342-3.498,4.426-4.762
																						C329.08,253.438,329.697,252.611,329.643,252.565z"/>
																				</g>
																			</g>
																		</g>
																	</g>
																</g>
															</g>
														</g>
													</g>
												</g>
											</g>
										</g>
									</g>
								</g>
								<g>
									<g>
										<g>
											<g>
												<g>
													<g>
														<g>
															<g>
																<g>
																	<g>
																		<g>
																			<g>
																				<g>
																					<path style="fill:#FF9A6C;" d="M320.652,274.536c-0.012,0.039,0.276,0.139,0.773,0.339
																						c0.469,0.2,1.253,0.551,1.544,1.399c0.143,0.409,0.037,0.881-0.298,1.292c-0.32,0.417-0.81,0.753-1.326,1.15
																						c-0.504,0.387-1.104,0.919-1.269,1.728c-0.149,0.789,0.139,1.625,0.705,2.215
																						c0.579,0.607,1.403,0.857,2.149,0.847c0.754-0.016,1.459-0.222,2.038-0.627
																						c1.072-0.803,1.819-1.702,2.409-2.492c0.576-0.799,0.939-1.526,1.087-2.065c0.147-0.542,0.1-0.858,0.075-0.856
																						c-0.049-0.003-0.075,0.297-0.272,0.787c-0.199,0.491-0.596,1.157-1.191,1.903
																						c-0.601,0.731-1.386,1.6-2.387,2.315c-0.948,0.635-2.58,0.783-3.52-0.183
																						c-0.458-0.474-0.684-1.155-0.576-1.745c0.11-0.594,0.573-1.054,1.061-1.441
																						c0.487-0.393,1.011-0.766,1.375-1.271c0.383-0.479,0.519-1.174,0.3-1.682
																						c-0.427-1.031-1.341-1.321-1.834-1.472C320.96,274.533,320.661,274.504,320.652,274.536z"/>
																				</g>
																			</g>
																		</g>
																	</g>
																</g>
															</g>
														</g>
													</g>
												</g>
											</g>
										</g>
									</g>
								</g>
								<g>
									<g>
										<g>
											<g>
												<g>
													<g>
														<g>
															<g>
																<g>
																	<g>
																		<g>
																			<g>
																				<g>
																					<path style="fill:#FF9A6C;" d="M323.061,283.058c-0.015-0.021-0.271,0.13-0.487,0.595
																						c-0.206,0.448-0.335,1.264,0.132,2.095c0.457,0.812,1.517,1.464,2.747,1.445
																						c1.226-0.01,2.487-0.624,3.453-1.59c0.971-0.972,1.554-2.207,1.733-3.378c0.19-1.178-0.022-2.259-0.343-3.079
																						c-0.325-0.827-0.761-1.408-1.094-1.765c-0.337-0.357-0.567-0.504-0.588-0.481
																						c-0.082,0.065,0.785,0.779,1.325,2.375c0.258,0.787,0.412,1.795,0.212,2.867
																						c-0.189,1.069-0.738,2.193-1.625,3.081c-0.882,0.883-2.023,1.444-3.084,1.475
																						c-1.059,0.042-1.99-0.486-2.414-1.15c-0.432-0.671-0.39-1.398-0.259-1.822
																						C322.905,283.287,323.097,283.088,323.061,283.058z"/>
																				</g>
																			</g>
																		</g>
																	</g>
																</g>
															</g>
														</g>
													</g>
												</g>
											</g>
										</g>
									</g>
								</g>
								<g>
									<g>
										<g>
											<g>
												<g>
													<g>
														<g>
															<g>
																<g>
																	<g>
																		<g>
																			<g>
																				<g>
																					<path style="fill:#FF9A6C;" d="M310.065,282.885c0.037-0.032-0.238-0.446-0.928-0.901
																						c-0.677-0.449-1.824-0.906-3.201-0.782l0.229,0.415c0.359-0.444,0.723-0.946,1.062-1.49
																						c1.906-3.024,2.149-5.986,2.013-5.974c-0.159-0.041-0.631,2.782-2.469,5.69
																						c-0.329,0.526-0.674,1.016-1.01,1.455l-0.372,0.485l0.601-0.07c1.232-0.143,2.306,0.204,2.986,0.551
																						C309.666,282.614,310.016,282.937,310.065,282.885z"/>
																				</g>
																			</g>
																		</g>
																	</g>
																</g>
															</g>
														</g>
													</g>
												</g>
											</g>
										</g>
									</g>
								</g>
								<g>
									<g>
										<g>
											<g>
												<g>
													<g>
														<g>
															<g>
																<g>
																	<g>
																		<g>
																			<g>
																				<g>
																					<path style="fill:#FF9A6C;" d="M326.52,266.74c-0.135-0.045-0.45,1.012,0.033,2.212
																						c0.472,1.205,1.427,1.758,1.494,1.632c0.099-0.121-0.59-0.779-0.995-1.83
																						C326.625,267.712,326.675,266.761,326.52,266.74z"/>
																				</g>
																			</g>
																		</g>
																	</g>
																</g>
															</g>
														</g>
													</g>
												</g>
											</g>
										</g>
									</g>
								</g>
							</g>
						</g>
					</g>
				</g>
				<g>
					<path style="fill:#FF9A6C;" d="M248.04,316.802c-0.221-0.042,0.135-2.905,0.795-6.395c0.661-3.491,1.375-6.286,1.596-6.244
						c0.221,0.042-0.135,2.905-0.795,6.396C248.976,314.048,248.261,316.844,248.04,316.802z"/>
				</g>
			</g>
			<path style="fill:#FF725E;" d="M129.517,177.848c0,0-15.768-8.937-15.759-26.753c0.004-8.099,2.989-10.746,2.989-10.746
				s3.301-23.577,7.154-28.635c3.853-5.058,5.74-6.519,5.74-6.519s1.241-4.694,5.979-4.675c0,0,1.699-4.678,8.219-3.218
				c0,0,2.821-2.858,6.982-3.777c4.161-0.919,13.546-0.684,15.917,1.389c0,0,7.539,1.964,8.716,3.229c0,0,4.292-0.303,6.405,4.666
				c0,0,6.993,5.299,11.28,13.557l3.387,7.767c0,0,6.438,3.75,6.15,11.689c-0.288,7.939-4.485,18.449-9.441,23.022
				C190.214,161.633,151.124,185.116,129.517,177.848z"/>
			<g style="opacity:0.3;">
				<path d="M193.754,127.393c-3.655-2.831-8.558-3.289-13.168-3.639c-7.78-0.591-15.579-1.182-23.377-0.921
					c-7.081,0.237-14.237,1.205-20.753,3.987c-6.516,2.783-12.377,7.53-15.482,13.899c-3.074,6.306-3.221,13.832-1.058,20.505
					c2.163,6.673,6.509,12.515,11.829,17.088l59.366-19.177c3.141-4.944,6.343-10.035,7.487-15.779
					C199.743,137.609,198.384,130.98,193.754,127.393z"/>
			</g>
			<path style="fill:#263238;" d="M129.995,172.408c-2.693-7.37-5.358-14.797-6.744-22.52c-1.385-7.723-1.442-15.824,1.024-23.273
				c0.374-1.129,3.635-8.732,4.822-8.658c0.848,0.053-1.074,7.104-0.62,7.823c4.333,6.859,5.746,15.246,5.387,23.352
				C133.505,157.238,132.086,164.568,129.995,172.408"/>
			<path style="fill:#FFBF9D;" d="M132.516,214.194l-2.865-71.208c-1.348-19.632,7.442-37.248,27.105-38.053l2.136,0.037
				c18.155,0.315,33.021,14.516,34.168,32.637c1.082,17.103,2.065,36.098,1.791,45.272c-0.562,18.875-19.496,21.482-19.496,21.482
				c-0.042,0.001,0.024,7.631,0.167,13.171c0,0-2.525,8.78-18.8,8.127C139.134,224.954,132.516,214.194,132.516,214.194z"/>
			<g>
				<g>
					<g>
						<g>
							<g>
								<g>
									<path style="fill:#263238;" d="M183.903,156.727c0.026,1.425-1.159,2.622-2.647,2.675
										c-1.485,0.053-2.712-1.055-2.737-2.479c-0.026-1.425,1.159-2.623,2.644-2.677
										C182.651,154.192,183.878,155.303,183.903,156.727z"/>
								</g>
							</g>
						</g>
					</g>
				</g>
			</g>
			<g>
				<g>
					<g>
						<g>
							<g>
								<g>
									<g>
										<path style="fill:#263238;" d="M188.296,148.014c-0.341,0.346-2.356-1.202-5.258-1.244
											c-2.897-0.085-5.053,1.371-5.36,1.01c-0.152-0.16,0.199-0.789,1.138-1.448c0.924-0.656,2.492-1.283,4.3-1.244
											c1.807,0.042,3.316,0.733,4.177,1.429C188.173,147.218,188.464,147.859,188.296,148.014z"/>
									</g>
								</g>
							</g>
						</g>
					</g>
				</g>
			</g>
			<g>
				<g>
					<g>
						<g>
							<g>
								<g>
									<path style="fill:#263238;" d="M159.133,157.265c0.026,1.425-1.159,2.621-2.647,2.675
										c-1.484,0.054-2.711-1.054-2.736-2.479c-0.025-1.424,1.16-2.623,2.645-2.676
										C157.882,154.73,159.107,155.841,159.133,157.265z"/>
								</g>
							</g>
						</g>
					</g>
				</g>
			</g>
			<g>
				<g>
					<g>
						<g>
							<g>
								<g>
									<g>
										<path style="fill:#263238;" d="M161.779,148.445c-0.341,0.345-2.36-1.202-5.26-1.244c-2.896-0.084-5.052,1.371-5.361,1.01
											c-0.151-0.16,0.197-0.788,1.139-1.447c0.924-0.657,2.492-1.283,4.299-1.245c1.807,0.042,3.315,0.734,4.178,1.43
											C161.652,147.65,161.945,148.291,161.779,148.445z"/>
									</g>
								</g>
							</g>
						</g>
					</g>
				</g>
			</g>
			<g>
				<g>
					<g>
						<g>
							<g>
								<g>
									<path style="fill:#263238;" d="M170.612,170.873c-0.011-0.165,1.798-0.446,4.727-0.768
										c0.742-0.063,1.446-0.199,1.579-0.702c0.184-0.532-0.112-1.336-0.456-2.205c-0.666-1.805-1.361-3.697-2.092-5.679
										c-2.903-8.085-4.99-14.727-4.664-14.842c0.327-0.114,2.945,6.347,5.847,14.432c0.698,1.994,1.365,3.894,2,5.712
										c0.265,0.847,0.731,1.81,0.333,2.914c-0.209,0.55-0.76,0.943-1.237,1.062c-0.478,0.137-0.895,0.138-1.262,0.153
										C172.444,171.056,170.62,171.038,170.612,170.873z"/>
								</g>
							</g>
						</g>
					</g>
				</g>
			</g>
			<g>
				<g>
					<path style="fill:#263238;" d="M162.328,136.8c-0.314,0.779-3.196,0.299-6.613,0.586c-3.423,0.218-6.203,1.114-6.628,0.391
						c-0.189-0.346,0.316-1.07,1.454-1.793c1.127-0.722,2.907-1.383,4.958-1.536c2.05-0.149,3.909,0.243,5.129,0.792
						C161.858,135.788,162.465,136.43,162.328,136.8z"/>
				</g>
			</g>
			<g>
				<g>
					<path style="fill:#263238;" d="M189.321,138.2c-0.57,0.679-2.916,0.076-5.711,0.141c-2.795-0.02-5.142,0.621-5.71-0.049
						c-0.25-0.326,0.099-0.999,1.111-1.658c0.996-0.656,2.682-1.223,4.603-1.24c1.922-0.014,3.605,0.525,4.6,1.166
						C189.224,137.203,189.571,137.87,189.321,138.2z"/>
				</g>
			</g>
			<path style="fill:#263238;" d="M184.226,116.72c2.063-1.202-4.366-7.823-9.556-10.033c-7.844-3.34-19.746-5.232-26.855-3.036
				c-8.559,2.644-15.617,7.098-19.759,15.041c-4.143,7.943-5.556,17.118-5.096,26.064c0.14,2.73,0.49,5.571,2.003,7.846
				c1.87,2.813,5.373,4.53,5.313,8.472c-0.022,1.44,0.422,2.883,1.433,3.91c2.421,2.459,5.256,0.03,6.53-2.369
				c2.719-5.123,2.895-11.169,3.01-16.969c0.081-4.122,0.15-8.333-1.103-12.261c-0.682-2.138-1.744-4.148-2.307-6.32
				c-0.563-2.172-0.554-4.652,0.765-6.467c0.214-0.295,0.571-0.67,1.024-1.085c3.582-3.29,8.679-4.369,13.3-2.855
				c7.331,2.403,19.838,5.955,23.024,3.411c4.583-3.659,5.645-6,5.645-6L184.226,116.72z"/>
			<path style="fill:#263238;" d="M171.331,178.811c0.071,0.202-0.593,0.69-1.865,0.982c-1.26,0.296-3.13,0.292-5.02-0.38
				c-1.888-0.678-3.338-1.86-4.125-2.887c-0.799-1.032-1.004-1.83-0.82-1.942c0.408-0.268,2.221,2.105,5.517,3.231
				C168.278,179.032,171.185,178.345,171.331,178.811z"/>
			<path style="fill:#455A64;" d="M121.785,143.648l2.063,8.776c0,0,9.227-9.945,17.791-15.428
				c7.41-4.744,33.562-9.335,44.594-5.727c4.599,1.504,6.561,3.696,6.561,3.696c-0.014-3.896-0.849-7.419-2.548-10.551
				l-56.842,4.533l-12.427,11.77l0.525,3.429"/>
			<path style="fill:#FF725E;" d="M193.911,150.085c0,0,3.236-5.223,4.154-7.985c0.918-2.762,0.977-8.249-0.573-10.713
				c-2.138-3.399-6.242-4.901-10.05-6.176l-0.652-0.039c-33.43,3.213-50.465,4.881-50.465,4.881
				c-6.525,3.611-12.572,9.907-14.824,14.093c-2.252,4.186-3.246,11.616-1.756,16.13c1.489,4.514,5.345,8.296,10.009,9.214
				l-1.435,1.881c0,0-6.291-3.873-9.884-9.051c-3.593-5.178-1.125-19.319-1.125-19.319l3.22-8.914c0,0,6.589-36.136,33.432-36.729
				s36.374,19.563,36.374,19.563s7.789,9.001,9.144,12.471c1.355,3.47,1.731,8.178,1.316,11.474
				c-0.415,3.296-6.75,13.657-6.75,13.657L193.911,150.085z"/>
			<path style="fill:#FFBF9D;" d="M130.943,156.855c-0.32-0.145-12.905-4.063-12.718,8.851c0.188,12.914,13.115,10.062,13.132,9.692
				C131.373,175.027,130.943,156.855,130.943,156.855z"/>
			<path style="fill:#FF9A6C;" d="M127.125,170.613c-0.058-0.04-0.223,0.161-0.601,0.341c-0.368,0.175-1.004,0.301-1.681,0.059
				c-1.371-0.481-2.552-2.63-2.648-4.957c-0.05-1.175,0.18-2.298,0.583-3.23c0.381-0.95,0.982-1.619,1.668-1.751
				c0.681-0.168,1.173,0.236,1.337,0.597c0.179,0.359,0.1,0.618,0.169,0.639c0.037,0.032,0.274-0.22,0.162-0.752
				c-0.057-0.256-0.213-0.558-0.52-0.802c-0.313-0.248-0.771-0.369-1.248-0.311c-0.995,0.083-1.879,1.012-2.322,2.036
				c-0.498,1.029-0.783,2.291-0.728,3.611c0.121,2.601,1.488,5.017,3.363,5.529c0.912,0.224,1.666-0.061,2.052-0.372
				C127.106,170.926,127.17,170.636,127.125,170.613z"/>
			<g>
				<path style="fill:#263238;" d="M175.455,98.144c0.029-0.019,0.24,0.242,0.588,0.736c0.344,0.497,0.823,1.23,1.361,2.17
					c1.079,1.872,2.371,4.609,3.208,7.819c0.778,3.211,1.358,6.121,1.797,8.235c0.425,2.113,0.653,3.428,0.583,3.445
					c-0.07,0.016-0.425-1.269-0.942-3.361c-0.53-2.235-1.2-5.06-1.941-8.185c-0.825-3.162-2.041-5.875-3.028-7.777
					C176.091,99.322,175.386,98.188,175.455,98.144z"/>
			</g>
			<g>
				<path style="fill:#263238;" d="M138.998,126.317c-0.036,0.005-0.124-0.356-0.254-1.016c-0.131-0.659-0.298-1.616-0.487-2.802
					c-0.377-2.371-0.83-5.66-1.165-9.311c-0.334-3.652-0.476-6.971-0.507-9.373c-0.015-1.201-0.011-2.173,0.011-2.844
					c0.02-0.672,0.048-1.043,0.084-1.043c0.036,0,0.076,0.37,0.118,1.04c0.043,0.785,0.094,1.73,0.154,2.836
					c0.126,2.394,0.325,5.697,0.658,9.338c0.335,3.639,0.728,6.927,1.012,9.308c0.126,1.1,0.234,2.041,0.323,2.823
					C139.012,125.94,139.033,126.312,138.998,126.317z"/>
			</g>
			<g>
				<path style="fill:#263238;" d="M132.535,127.661c-0.035,0.008-0.139-0.31-0.296-0.894c-0.16-0.583-0.359-1.434-0.576-2.492
					c-0.436-2.116-0.905-5.07-1.171-8.359c-0.262-3.29-0.27-6.282-0.177-8.44c0.046-1.079,0.106-1.951,0.171-2.552
					c0.063-0.601,0.114-0.932,0.15-0.929c0.079,0.005,0.044,1.338,0.047,3.489c0.001,2.151,0.068,5.121,0.328,8.391
					c0.264,3.268,0.672,6.211,1.014,8.335C132.366,126.333,132.612,127.644,132.535,127.661z"/>
			</g>
			<path style="fill:#FFBF9D;" d="M93.786,140.914l3.972-4.659c0,0,1.203-12.271,3.368-14.677
				c2.165-2.406,15.001-5.155,18.562-2.851c0,0,6.692,1.129,8.419,4.854c0,0,4.288,1.534,4.4,3.986c0.112,2.452,0,7.914-2.341,8.137
				c-2.341,0.223-3.679-2.118-3.679-2.118l-6.242,3.233l-0.892,10.813l-14.491,14.157l-17.533-16.271L93.786,140.914z"/>
			<path style="fill:#FFBF9D;" d="M114.114,138.158c0.334,0,6.577-2.229,11.816,0l3.901-4.013l2.213-3.561l6.704-1.009
				c0,0-1.784,9.921-3.233,12.262c-1.449,2.341-4.459,10.478-6.688,11.481c-2.229,1.003-17.709,2.36-17.709,2.36L114.114,138.158z"
				/>
			<g>
				<path style="fill:#FF9A6C;" d="M124.482,137.84c-0.035,0.074-0.951-0.388-2.611-0.662c-1.646-0.294-4.014-0.455-6.673-0.281
					l-0.271,0.018l-0.005-0.273c-0.012-0.665-0.034-1.357-0.113-2.06c-0.31-3.146-1.328-5.87-2.263-7.713
					c-0.942-1.85-1.733-2.882-1.661-2.934c0.028-0.021,0.249,0.217,0.618,0.677c0.354,0.469,0.853,1.163,1.369,2.085
					c1.035,1.83,2.138,4.605,2.456,7.833c0.08,0.721,0.1,1.431,0.107,2.113l-0.276-0.255c2.722-0.156,5.111,0.073,6.781,0.463
					c0.837,0.183,1.481,0.436,1.914,0.618C124.275,137.682,124.496,137.812,124.482,137.84z"/>
			</g>
			<g>
				<path style="fill:#FF9A6C;" d="M115.384,121.86c0.118-0.053,0.854,1.91,0.654,4.435c-0.179,2.528-1.199,4.359-1.308,4.288
					c-0.148-0.06,0.621-1.909,0.788-4.327C115.713,123.841,115.229,121.897,115.384,121.86z"/>
			</g>
			<g>
				<path style="fill:#FF9A6C;" d="M119.372,118.627c0.011-0.025,0.369,0.086,0.954,0.424c0.576,0.345,1.381,0.935,2.132,1.897
					c1.606,1.867,2.3,5.59,0.901,9.08c-0.222,0.499-0.487,0.977-0.823,1.397c-0.174,0.204-0.342,0.413-0.544,0.585
					c-0.16,0.171-0.462,0.399-0.744,0.437c-0.557,0.113-1.062,0.034-1.541-0.076c-0.239-0.06-0.471-0.134-0.698-0.236
					c-0.247-0.106-0.461-0.302-0.6-0.51c-0.283-0.423-0.372-0.88-0.447-1.287c-0.073-0.414-0.113-0.816-0.125-1.2
					c-0.025-0.768,0.056-1.461,0.183-2.05l0.148,0.189c-0.968-0.095-1.551-0.68-1.805-1.09c-0.26-0.431-0.257-0.714-0.236-0.715
					c0.037-0.012,0.094,0.249,0.377,0.617c0.274,0.352,0.845,0.832,1.681,0.87l0.178,0.008l-0.03,0.182
					c-0.093,0.572-0.143,1.238-0.095,1.97c0.024,0.366,0.073,0.747,0.152,1.138c0.079,0.392,0.18,0.791,0.399,1.101
					c0.111,0.153,0.242,0.269,0.416,0.341c0.189,0.082,0.399,0.147,0.615,0.197c0.427,0.096,0.902,0.15,1.311,0.059
					c0.215-0.043,0.32-0.134,0.511-0.319c0.18-0.154,0.33-0.345,0.487-0.529c0.303-0.381,0.545-0.822,0.752-1.285
					c0.69-1.616,0.807-3.367,0.679-4.891c-0.118-1.53-0.722-2.82-1.398-3.761C120.769,119.273,119.302,118.719,119.372,118.627z"/>
			</g>
			<g>
				<path style="fill:#FF9A6C;" d="M128.317,123.582c0.037-0.042,0.671,0.758,0.811,2.314c0.071,0.767,0.004,1.694-0.225,2.677
					c-0.229,0.99-0.575,2.016-0.98,3.109c-0.219,0.543-0.518,1.102-1.031,1.465c-0.51,0.369-1.184,0.411-1.7,0.236
					c-1.067-0.337-1.656-1.265-1.849-2.005c-0.212-0.757-0.203-1.382-0.194-1.803c0.015-0.423,0.051-0.654,0.086-0.655
					c0.037-0.001,0.07,0.232,0.117,0.647c0.052,0.412,0.103,1.019,0.341,1.697c0.222,0.671,0.761,1.405,1.636,1.66
					c0.424,0.125,0.894,0.08,1.268-0.193c0.377-0.27,0.639-0.734,0.843-1.244c0.801-2.116,1.403-4.1,1.319-5.569
					C128.723,124.445,128.234,123.617,128.317,123.582z"/>
			</g>
			<g>
				<path style="fill:#FF9A6C;" d="M138.749,129.574c0.006,0.051-0.677,0.182-1.862,0.367c-1.186,0.185-2.874,0.423-4.878,0.689
					l0.175-0.117c-0.687,1.226-1.437,2.563-2.228,3.973l-0.017,0.03l-0.025,0.025c-0.179,0.179-0.37,0.37-0.563,0.563
					c-1.146,1.136-2.24,2.221-3.25,3.222l0.035-0.297c1.166,1.944,1.746,3.798,2.07,5.103c0.318,1.312,0.406,2.096,0.358,2.105
					c-0.059,0.013-0.246-0.751-0.641-2.026c-0.4-1.269-1.032-3.062-2.198-4.93l-0.1-0.161l0.135-0.136
					c1.002-1.01,2.086-2.103,3.223-3.249c0.193-0.193,0.384-0.384,0.563-0.562l-0.042,0.055c0.807-1.401,1.572-2.73,2.273-3.948
					l0.06-0.104l0.115-0.013c2.009-0.223,3.706-0.396,4.901-0.501C138.048,129.56,138.743,129.523,138.749,129.574z"/>
			</g>
			<g>
				<path style="fill:#263238;" d="M132.535,127.661c-0.005-0.017,0.201-0.089,0.596-0.209c0.45-0.13,1.025-0.296,1.735-0.502
					c1.577-0.432,3.75-1.026,6.408-1.754c5.42-1.428,12.958-3.342,21.461-4.49c4.247-0.605,8.34-0.834,12.057-0.852
					c0.929,0.015,1.836,0.029,2.718,0.043c0.881,0.022,1.733,0.12,2.558,0.174c1.654,0.084,3.176,0.34,4.567,0.55
					c1.399,0.162,2.625,0.531,3.716,0.765c0.542,0.134,1.053,0.233,1.511,0.372c0.449,0.15,0.863,0.288,1.242,0.415
					c0.7,0.242,1.267,0.437,1.71,0.59c0.389,0.14,0.589,0.222,0.583,0.239c-0.006,0.017-0.219-0.032-0.618-0.14
					c-0.45-0.128-1.024-0.292-1.734-0.495c-0.381-0.113-0.797-0.236-1.248-0.369c-0.459-0.124-0.971-0.209-1.513-0.328
					c-1.091-0.206-2.313-0.547-3.707-0.685c-1.385-0.185-2.898-0.419-4.543-0.483c-0.82-0.044-1.666-0.134-2.542-0.147
					c-0.876-0.007-1.777-0.014-2.701-0.021c-3.694,0.045-7.76,0.286-11.99,0.889c-8.465,1.143-15.998,2.995-21.439,4.331
					c-2.674,0.661-4.861,1.201-6.448,1.593c-0.721,0.167-1.304,0.302-1.76,0.407C132.754,127.641,132.539,127.678,132.535,127.661z"
					/>
			</g>
			<g>
				<path style="fill:#263238;" d="M197.733,142.468c-0.065-0.019,0.432-1.025,0.673-2.982c0.221-1.914,0.122-4.944-1.74-7.943
					c-0.922-1.477-2.258-2.91-4.001-3.989c-1.737-1.086-3.887-1.723-6.192-1.908c-2.309-0.207-4.756-0.016-7.29,0.207
					c-2.539,0.215-5.167,0.438-7.859,0.667c-10.773,0.888-20.523,1.692-27.573,2.36c-3.484,0.339-6.322,0.615-8.346,0.812
					c-0.947,0.092-1.702,0.165-2.27,0.22c-0.52,0.045-0.794,0.06-0.796,0.042c-0.002-0.018,0.267-0.068,0.783-0.146
					c0.565-0.079,1.317-0.185,2.259-0.317c1.964-0.255,4.81-0.6,8.333-0.977c7.044-0.762,16.793-1.625,27.566-2.513
					c2.692-0.225,5.319-0.444,7.859-0.656c2.536-0.216,5.015-0.401,7.377-0.176c2.356,0.202,4.586,0.877,6.377,2.02
					c1.795,1.133,3.157,2.628,4.086,4.162c1.878,3.12,1.913,6.226,1.627,8.162C198.299,141.493,197.733,142.468,197.733,142.468z"/>
			</g>
			<path style="fill:#E0E0E0;" d="M207.456,217.84c0,0,13.38,2.209,20.336,13.063c4.509,7.036,25.621,50.022,25.621,50.022
				c0.172-1.129-33.983,28.13-32.948,27.32c1.204-0.942-16.611-22.775-16.611-22.775L207.456,217.84z"/>
			<path style="fill:#FF9A6C;" d="M175.355,204.361c0,0-11.912,0.491-24.455-7.695c0,0,5.613,14.612,24.482,13.24L175.355,204.361z"
				/>
			<path style="fill:#FFBF9D;" d="M97.758,136.255c0,0-73.936,62.19-70.225,79.258s53.654,39.942,65.528,49.59
				c11.874,9.647,9.656,19.215,14.356,16.247c4.7-2.968,3.807-55.165-3.793-59.993c-2.264-1.438-32.334-16.546-32.334-16.546
				l37.535-48.626L97.758,136.255z"/>
			<g>
				<path style="fill:#E0E0E0;" d="M232.543,416.631l-14.331-150.075l-10.415-48.684c0,0-16.57-1.525-17.421-1.525
					c-0.851,0-12.818-1.264-14.65-1.427c0,0-0.365,8.115-14.031,9.455c-22.685,2.225-29.375-11.11-29.375-11.11l-6.485,1.234
					l-33.766,6.517l7.4,59.013l2.105,107.046l-3.389,30.135C119.888,419.508,184.9,421.051,232.543,416.631z"/>
				<polygon style="fill:#E0E0E0;" points="105.211,218.98 77.853,206.333 53,248.323 95.414,270.141 99.839,290.28 
					115.733,281.168 118.223,217.82 				"/>
				<g>
					<path style="fill:#263238;" d="M103.095,232.949c-0.068,0.006-0.215-0.853-0.362-2.252c-0.15-1.397-0.285-3.345-0.29-5.49
						c-0.013-4.272-0.301-7.733-0.131-7.748c0.068-0.006,0.215,0.853,0.361,2.252c0.15,1.397,0.285,3.345,0.29,5.491
						C102.977,229.472,103.265,232.934,103.095,232.949z"/>
				</g>
				<g>
					<path style="fill:#263238;" d="M89.869,259.228c0.03-0.02,0.363,0.456,0.941,1.335c0.587,0.872,1.368,2.181,2.251,3.842
						c0.9,1.654,1.818,3.704,2.718,6.026c0.866,2.336,1.643,4.969,2.25,7.777c1.218,5.625,1.543,10.833,1.736,14.578
						c0.073,1.876,0.118,3.395,0.117,4.445c0.006,1.05-0.008,1.631-0.044,1.632c-0.036,0.001-0.091-0.577-0.159-1.624
						c-0.072-1.137-0.167-2.629-0.282-4.431c-0.287-3.731-0.67-8.911-1.878-14.489c-0.602-2.786-1.358-5.397-2.191-7.722
						c-0.868-2.31-1.743-4.359-2.596-6.024c-0.836-1.672-1.564-3.002-2.096-3.904C90.114,259.76,89.838,259.248,89.869,259.228z"/>
				</g>
				<g>
					<path style="fill:#263238;" d="M221.187,245.88c0.018,0,0.033,0.185,0.046,0.539c0.006,0.412,0.014,0.923,0.023,1.545
						c-0.003,1.416-0.007,3.338-0.013,5.678c-0.029,4.863-0.069,11.45-0.112,18.73c-0.031,7.316-0.007,13.938,0.035,18.731
						c0.024,2.34,0.043,4.26,0.058,5.676c0,0.622-0.001,1.132-0.001,1.544c-0.006,0.353-0.018,0.539-0.036,0.54
						c-0.018,0.001-0.041-0.184-0.069-0.536c-0.026-0.411-0.058-0.92-0.097-1.542c-0.079-1.339-0.149-3.278-0.223-5.675
						c-0.136-4.794-0.219-11.42-0.187-18.74c0.027-7.316,0.142-13.94,0.265-18.733c0.073-2.34,0.134-4.26,0.178-5.676
						c0.03-0.621,0.055-1.131,0.074-1.542C221.149,246.066,221.169,245.88,221.187,245.88z"/>
				</g>
			</g>
			<g>
				<path style="fill:#FF725E;" d="M103.072,217.734c0,0,22.728,67.244-3.601,88.849v96.028h133.586
					c0.468-0.718-13.65-123.263-13.65-123.263l-17.15-62.165c-7.721-1.291-15.173-2.001-22.262-1.925
					c0,0-10.568,57.406-12.038,57.406s-39.41-58.681-39.41-58.681C121.039,214.956,110.467,215.76,103.072,217.734z"/>
				<polygon style="opacity:0.3;fill:#FFFFFF;" points="99.471,368.157 229.367,367.241 231.422,386.155 99.471,386.155 				"/>
				<g>
					<path style="fill:#263238;" d="M172.628,402.611c-0.144,0.005-1.328-28.936-2.645-64.634
						c-1.317-35.71-2.268-64.654-2.125-64.659c0.144-0.005,1.328,28.93,2.645,64.64
						C171.821,373.656,172.772,402.606,172.628,402.611z"/>
				</g>
				<g>
					<path style="fill:#263238;" d="M116.253,326.534c0.004-0.008,0.087,0.016,0.245,0.072c0.186,0.069,0.416,0.154,0.699,0.259
						c0.648,0.254,1.539,0.602,2.666,1.044c2.307,0.926,5.663,2.223,9.827,3.773c4.161,1.559,9.153,3.316,14.729,5.167
						c5.584,1.825,11.756,3.729,18.285,5.554c6.537,1.806,12.808,3.359,18.534,4.676c5.732,1.291,10.915,2.36,15.284,3.171
						c4.367,0.82,7.911,1.44,10.364,1.836c1.193,0.204,2.136,0.364,2.822,0.481c0.296,0.056,0.537,0.101,0.732,0.138
						c0.164,0.034,0.248,0.056,0.247,0.065c-0.001,0.009-0.087,0.005-0.255-0.012c-0.197-0.023-0.44-0.052-0.74-0.087
						c-0.69-0.094-1.638-0.222-2.838-0.385c-2.464-0.335-6.02-0.9-10.4-1.674c-4.382-0.766-9.578-1.799-15.323-3.065
						c-5.739-1.293-12.022-2.834-18.568-4.642c-6.538-1.827-12.714-3.747-18.297-5.6c-5.574-1.878-10.559-3.673-14.707-5.278
						c-4.152-1.596-7.489-2.946-9.774-3.93c-1.112-0.48-1.991-0.859-2.63-1.134c-0.275-0.124-0.498-0.225-0.679-0.307
						C116.326,326.583,116.25,326.542,116.253,326.534z"/>
				</g>
			</g>
			<g>
				<path style="fill:#FF9A6C;" d="M56.21,213.265c-0.137-0.138,4.293-0.366,8.802-2.949c2.252-1.269,4.001-2.861,5.127-4.123
					c1.133-1.264,1.71-2.156,1.782-2.109c0.05,0.029-0.419,0.997-1.502,2.348c-1.075,1.348-2.838,3.034-5.15,4.337
					C60.627,213.422,56.07,213.413,56.21,213.265z"/>
			</g>
			<g style="opacity:0.3;">
				<path d="M143.676,97.275c-0.203,0.41,0.204,6.523,0.747,9.562c0.849-1.897,0.892-4.042,0.92-6.121
					c0.022-1.638-0.068-2.847-0.045-4.484C144.724,96.538,144.181,96.883,143.676,97.275z"/>
			</g>
			<g style="opacity:0.3;">
				<path d="M166.54,94.866c0,0,1.196,2.689,1.735,4.235c0.838,2.401,1.846,5.035,3.727,5.834c0-0.477-1.672-6.713-3.143-9.427
					C168.859,95.508,167.583,95.154,166.54,94.866z"/>
			</g>
		</g>
		<path style="opacity:0.3;" d="M190.609,122.242c0,0-7.241-5.926-26.177-4.678s-29.109,8.764-29.109,8.764
			s22.269-5.36,28.585-6.063C179.584,118.521,190.609,122.242,190.609,122.242z"/>
	</g>
</g>
</svg>
